<svg data-name="Layer 1" xmlns="http://www.w3.org/2000/svg" width="1074.4" height="584.2" viewBox="0 0 1074.4 584.2">
  <ellipse cx="540.6" cy="549.3" rx="527.5" ry="34.9" fill="#f2f2f2"/>
  <path d="M520.4 167c-86 0-147.6 55.1-147.6 183.8 0 145.8 61.7 184.4 147.6 184.4S671.8 493 671.8 350.8c0-152-65.4-183.8-151.4-183.8zm.6 319.8c-59.5 0-90.6-34.9-90.6-135.9 0-89.1 32.3-136.1 91.9-136.1s91.9 30.9 91.9 136.1c0 98.4-33.7 136-93.2 136z" fill="#2f2e41"/>
  <path d="M321.3 433.5h-35.5V329a21 21 0 0 0-21-21h-8.3a21 21 0 0 0-21 21v104.6H135.3a12 12 0 0 1-10.6-17.5l106.1-200.8a21 21 0 0 0-9.6-28.8l-6.2-3a21 21 0 0 0-27.5 9.2l-129.3 242a28.4 28.4 0 0 0-3.4 13.4 28.4 28.4 0 0 0 28.4 28.4h152.3v66.2a25.1 25.1 0 0 0 25.2 25 25.1 25.1 0 0 0 25-25v-66.2h35.6a21.4 21.4 0 0 0 21.5-21.4 21.4 21.4 0 0 0-21.5-21.5zM979.3 433.5h-35.5V329a21 21 0 0 0-21-21h-8.3a21 21 0 0 0-21 21v104.6H793.3a12 12 0 0 1-10.6-17.5l106.1-200.8a21 21 0 0 0-9.6-28.8l-6.2-3a21 21 0 0 0-27.5 9.2l-129.3 242a28.4 28.4 0 0 0-3.4 13.4 28.4 28.4 0 0 0 28.4 28.4h152.3v66.2a25.1 25.1 0 0 0 25.2 25 25.1 25.1 0 0 0 25-25v-66.2h35.6a21.4 21.4 0 0 0 21.5-21.4 21.4 21.4 0 0 0-21.5-21.5z" fill="#1595d3"/>
  <path d="M331.1 421.3h-35.5V316.6a21 21 0 0 0-21-21h-8.3a21 21 0 0 0-21 21v104.7H145.1a12 12 0 0 1-10.6-17.6L240.6 203a21 21 0 0 0-9.6-28.7l-6.2-3a21 21 0 0 0-27.5 9.1L68 422.3a28.4 28.4 0 0 0-3.4 13.4A28.4 28.4 0 0 0 93 464.1h152.3v66.2a25.1 25.1 0 0 0 25.2 25.1 25.1 25.1 0 0 0 25-25V464h35.6a21.4 21.4 0 0 0 21.5-21.4 21.4 21.4 0 0 0-21.5-21.4zM997.7 421.3h-35.5V316.6a21 21 0 0 0-21-21h-8.3a21 21 0 0 0-21 21v104.7H811.7a12 12 0 0 1-10.6-17.6l106-200.8a21 21 0 0 0-9.5-28.7l-6.3-3a21 21 0 0 0-27.4 9.1l-129.4 242a28.4 28.4 0 0 0-3.3 13.4 28.4 28.4 0 0 0 28.4 28.4h152.3v66.2a25.1 25.1 0 0 0 25.1 25.1 25.1 25.1 0 0 0 25.2-25V464h35.5a21.4 21.4 0 0 0 21.4-21.4 21.4 21.4 0 0 0-21.4-21.4zM540 156c-86 0-147.6 55.1-147.6 183.8 0 145.8 61.7 184.4 147.6 184.4s151.4-42.3 151.4-184.4C691.4 187.8 626 156 540 156zm.6 319.8c-59.5 0-90.6-35-90.6-136 0-89 32.3-136 91.9-136s91.9 30.8 91.9 136c0 98.5-33.7 136-93.2 136z" fill="none" stroke="#3f3d56" stroke-miterlimit="10"/>
  <circle cx="471.1" cy="18.3" r="12.9" fill="#2f2e41"/>
  <ellipse cx="502.6" cy="46.9" rx="36.2" ry="46.9" fill="#2f2e41"/>
  <path d="M502.6 79.6c-18.1 0-33.1-17.3-35.8-39.8a61 61 0 0 0-.4 7c0 26 16.2 47 36.2 47s36.2-21 36.2-47a61 61 0 0 0-.4-7c-2.7 22.5-17.7 39.8-35.8 39.8z" opacity=".1"/>
  <path d="M576.2 184.2c-.7 3.2-4 5.7-7.8 7.5a69.3 69.3 0 0 1-26.8 5.3 45.2 45.2 0 0 1-7.1-.2 20.5 20.5 0 0 1-12.3-5.6 1.7 1.7 0 0 1 0-2.8 47 47 0 0 1 21.7-11.2c6.3-1.9 17.4-6.6 24.3-6 6.7.7 9 9 8 13z" fill="#3f3d56"/>
  <path d="M576.2 184.2c-.7 3.2-4 5.7-7.8 7.5a69.3 69.3 0 0 1-26.8 5.3 45.2 45.2 0 0 1-7.1-.2 20.5 20.5 0 0 1-12.3-5.6 1.7 1.7 0 0 1 0-2.8 47 47 0 0 1 21.7-11.2c6.3-1.9 17.4-6.6 24.3-6 6.7.7 9 9 8 13z" opacity=".1"/>
  <path d="M477 160.3a19.8 19.8 0 0 0-1.2 15.1 26.3 26.3 0 0 0 8.9 12.5c10 8 24 9.2 36.9 9a284.6 284.6 0 0 0 33.9-2.2 40.5 40.5 0 0 0 11-2.6c4.2-1.8 8-5.2 9.4-9.5s.5-9.7-3-12.6c-3.2-2.5-7.6-2.9-11.6-3.1l-23-1.4c2.2-2.3 5.2-3.6 8-5.3 3.7-2.2 6.2-6 8.8-9.3a129 129 0 0 1 13.5-13.9c.7 4.3 3.4 7.9 6.7 10.9s6.9 5.3 10.2 8.2c8 6.8 13.9 16.1 22.4 22.5a43.8 43.8 0 0 0 16-8l-3.3-6a4 4 0 0 0-1.2-1.6c-1-.6-2.1-.3-3.2-.4-3-.5-4.2-3.8-5.3-6.5-3.2-7.4-9.1-13.2-14.3-19.4a98 98 0 0 1-10-14.7c-1.7-3.1-3.2-6.4-5.6-9s-5.6-4.8-9.1-4.8c-3.1 0-6 1.6-8.7 3.2a230.5 230.5 0 0 0-23.6 16c-4 3.1-8 6.4-12.5 8.2-2 .8-4 1.4-6 2.3-3.2 1.7-5.7 4.6-8.3 7a56 56 0 0 1-35.8 15.4z" fill="#3f3d56"/>
  <path d="M525.3 96.1a23.8 23.8 0 0 1-1.7 8 10 10 0 0 1-5.8 5.6 12.4 12.4 0 0 1-5.6.2 10.9 10.9 0 0 1-4.6-1.6c-2.2-1.5-3.2-4.1-3.6-6.7-.4-2.6-.2-5.3-.5-7.9a43 43 0 0 0-1.2-6.2l-.5-2a95.8 95.8 0 0 1-1.1-5.7 18.4 18.4 0 0 0-.8-4.8 14.6 14.6 0 0 0-1.7-2.9l-.8-1.2a5.9 5.9 0 0 1-1-3.7 3.3 3.3 0 0 1 .2-.6v-.3a1.8 1.8 0 0 0 1.3-1.1 3.4 3.4 0 0 0-.2-1.8 11.3 11.3 0 0 0-1-2.3c-.2-.5-1-1.3-1.1-1.9 0-1 2.1-2 3-2.4a16.8 16.8 0 0 1 8.6-1.7c2 0 4 .7 5 2.3 1 1.4.8 3.3 1.3 5a1.5 1.5 0 0 0 .2.6 1.3 1.3 0 0 0 .8.4 4.5 4.5 0 0 0 1.4 0 3 3 0 0 0 .4 0 5 5 0 0 0 2-1l1.2-.2c1.6 5 1.8 10.3 3.1 15.4.6 2.5 1.6 5 1.7 7.6V88a7 7 0 0 0 .1 1.2 15.6 15.6 0 0 0 .5 1.7 8.6 8.6 0 0 1 .3 1 15 15 0 0 1 .1 4.2z" fill="#fbbebe"/>
  <circle cx="503.2" cy="45" r="18.6" fill="#fbbebe"/>
  <path d="M621.1 146.1a30.4 30.4 0 0 0-5.2-14l1.4 8.5a3.2 3.2 0 0 1-3.4-1 10.3 10.3 0 0 1-1.7-3.3 67.5 67.5 0 0 0-8.2-14.7 87.6 87.6 0 0 1-34-11.6c-10.3-5.7-20-12.6-30.3-18.5a43.6 43.6 0 0 0-5.6-2.8c-3.2-1.3-6.8-2-9.8-3.5l-.6-.3a12.6 12.6 0 0 1-2-1.3 10.3 10.3 0 0 1-.9-.9 20.4 20.4 0 0 1-3.6-6c-1.6-3.6-2.2-8-3.8-11.5a11.2 11.2 0 0 1 2.5-1.8l.4-.2a12 12 0 0 1 2-.7l1.2-.3a11.6 11.6 0 0 1 5.5.4c2.6 1 4.8 2.7 7 4.3a114 114 0 0 1 10.1 8c1.8 1.8 3.4 3.7 5.4 5.2a42.1 42.1 0 0 0 5 3.4L584 102c3.5 2.1 7 4.2 10.5 6.5 5.2 3.4 10.3 7 15.3 10.7l9 6.5a9.7 9.7 0 0 1 2.5 2.3 8.5 8.5 0 0 1 1.1 3.4 31.4 31.4 0 0 1-1.2 14.6z" fill="#fbbebe"/>
  <path d="M530 110c-1.3 5.7-7 9-10 14-3.7 6.1-2.2 13.2-.8 20.3l-7.6 6.5-4.3 3.5a57.4 57.4 0 0 1-6.8 4q-3.4 1.6-6.7 3.4a32.1 32.1 0 0 1-6.6 2.8c-4.4 1-9.1.3-13.5-1a6 6 0 0 1-1.5-.6 2.4 2.4 0 0 1-.7-.7 4 4 0 0 1-.4-2.5c.4-7.3 2.2-14.5 4-21.7a85.3 85.3 0 0 1 3.9-12.6 85 85 0 0 1 5.4-10.1 68.4 68.4 0 0 1 8-11.5A18.5 18.5 0 0 0 496 99c1.1-2.5.7-5.4.9-8.2a17.1 17.1 0 0 1 1.6-6 17 17 0 0 1 1.8-2.9l.9 2.1.6 1.4.8 1.8q1 2.6 2.2 5.1a21.6 21.6 0 0 0 3.3 6 6.5 6.5 0 0 0 11.1-.9 21.3 21.3 0 0 0 2.3-6 19.2 19.2 0 0 0 .2-7.8c-.7-5-2.8-10.2-4.4-14.8a15 15 0 0 1-1-4.9 3.4 3.4 0 0 1 0-.5v-.2a12 12 0 0 1 2-.7l1.2-.3 4 22.1.2.6a137.2 137.2 0 0 0 1.2 6l.3 1 .8 2.6c1.9 5 5.1 10.2 4 15.6z" fill="#1595d3"/>
  <path d="M605.3 189a6.6 6.6 0 0 0 .6 3.1c1.1 2.2 4 2.6 6.3 2.8a188.4 188.4 0 0 0 42.3-1.2 4.9 4.9 0 0 0 2.2-.7c2-1.4.7-4.8-1.5-5.9s-4.7-.8-7-1.3a22.5 22.5 0 0 1-6.8-2.9q-7.2-4.2-14.3-8.7c-2.8-1.8-6-3.7-9.2-2.6-8.5 2.9-12.7 8.2-12.6 17.4z" fill="#3f3d56"/>
  <path d="M501.4 83v.4l-.2.6-1.4 6c-1.5 5.4-3.6 10.8-5.6 16.1l-16.1 42.6c-1.4 3.6-2.7 7.1-4.3 10.6l-1.6 3.6A49.2 49.2 0 0 0 468 176a27.4 27.4 0 0 0-.2 9c.6 3 2.4 5.9 5.3 7 1.3.5 3.3 1.2 3 2.7-.3.8-1.2 1.1-2 1.3a7.3 7.3 0 0 1-6-1.8c-1.4-1.3-2.6-3.4-4.6-3.6-1.4-.1-2.7.7-4 1.3-5.1 2.3-11.2.7-16.6-1 .4-2.2 2.6-3.7 4.8-4.1 2.2-.4 4.5-.1 6.7-.2a3.5 3.5 0 0 0 2-.5 3.7 3.7 0 0 0 1.2-1.9 79 79 0 0 0 3.2-13.1c.7-4.7 1-9.5 2-14 .9-3.7 2.1-7.1 3.2-10.7a224.7 224.7 0 0 0 5-22 78 78 0 0 0 1.4-9.4c.2-2.6.1-5.3.4-7.9a60.9 60.9 0 0 1 2.1-10l2.9-10.6a36 36 0 0 1 6.6-14.9 14 14 0 0 1 10-4.8 9.9 9.9 0 0 1 2.1.3h.4a8.6 8.6 0 0 1 2.1 1c1.2-.8 1.7-.5 2.5.6a7 7 0 0 1 .8 3.8 52.4 52.4 0 0 1-.8 10.4z" fill="#fbbebe"/>
  <path d="M502.6 87.2l-.3.3-2.5 2.5-1.3-5.2-4.2-17.9a9.9 9.9 0 0 1 2.1.3 3.3 3.3 0 0 1 .2-.6l.2.6 1.4 5 2.7 9.3.5 1.5z" fill="#1595d3"/>
  <path d="M518.7 30.2a12.6 12.6 0 0 1-3.7 8.9 12.3 12.3 0 0 1-1.4 1.2 12.5 12.5 0 0 1-7.5 2.5H491a12.6 12.6 0 0 1 0-25.2h15a12.6 12.6 0 0 1 12.7 12.6z" fill="#2f2e41"/>
  <circle cx="532.8" cy="18.3" r="12.9" fill="#2f2e41"/>
  <path d="M532.5 5.3h-.5a12.9 12.9 0 0 1 0 25.8h.5a12.9 12.9 0 1 0 0-25.8zM471.1 5.3h.5a12.9 12.9 0 0 0 0 25.8h-.5a12.9 12.9 0 0 1 0-25.8zM513.6 40.3a12.5 12.5 0 0 1-7.5 2.5H491a12.5 12.5 0 0 1-7.6-2.5z" opacity=".1"/>
  <path d="M611 133.8s3.3 9.3 6.3 6.8l-2.4-12.2z" fill="#fbbebe"/>
  <path d="M1006.9 419.5a20.8 20.8 0 1 0 2.7-39.9l.6 10.7-5.1-9.1a20.7 20.7 0 0 0-10.7 11.7 20.4 20.4 0 0 0-1.2 5.6 20.8 20.8 0 0 0 13.7 21z" fill="#57b894"/>
  <path d="M1032 543.8c-1.8-9.1 5.9-17.2 13.6-22.4s16.6-10.5 19.2-19.4c3.7-12.8-7.5-24.5-16.2-34.6a125.3 125.3 0 0 1-16.5-24.6 33.8 33.8 0 0 1-4-11.1 38.5 38.5 0 0 1 3-16.8q9.2-27 19.7-53.6" fill="none" stroke="#3f3d56" stroke-miterlimit="10"/>
  <path d="M1007.7 416.8a20.8 20.8 0 1 0 2.8-40l.5 10.8-5-9.2a20.7 20.7 0 0 0-10.7 11.7 20.4 20.4 0 0 0-1.2 5.7 20.8 20.8 0 0 0 13.6 21z" fill="none" stroke="#3f3d56" stroke-miterlimit="10"/>
  <path d="M1029.4 357.6a20.8 20.8 0 0 1 15-13.2l1.7 10.2 3.2-10.7a20.8 20.8 0 1 1-19.9 13.7z" fill="#57b894"/>
  <path d="M1030.5 354a20.8 20.8 0 0 1 15-13.3l1.7 10.2 3.2-10.7a20.8 20.8 0 1 1-19.9 13.7z" fill="none" stroke="#3f3d56" stroke-miterlimit="10"/>
  <path d="M1045 467.6a20.8 20.8 0 0 0 18.4-37l-2.4 8.2-1.8-10.3a20.8 20.8 0 1 0-14.2 39.1z" fill="#57b894"/>
  <path d="M1046 463.9a20.8 20.8 0 0 0 18.4-37l-2.4 8.2-1.8-10.3a20.8 20.8 0 1 0-14.2 39z" fill="none" stroke="#3f3d56" stroke-miterlimit="10"/>
  <path d="M1023.3 502.2a20.8 20.8 0 1 0 4-16.3l9.3 14-12.7-7.5a20.6 20.6 0 0 0-.6 9.8z" fill="#57b894"/>
  <path d="M1024.2 499.4a20.8 20.8 0 1 0 4-16.3l9.3 14-12.7-7.4a20.6 20.6 0 0 0-.6 9.7z" fill="none" stroke="#3f3d56" stroke-miterlimit="10"/>
  <path d="M9 470.2a13.7 13.7 0 1 0 1.8-26.2l.4 7-3.4-6a13.6 13.6 0 0 0-7 7.7 13.4 13.4 0 0 0-.8 3.7 13.7 13.7 0 0 0 9 13.8z" fill="#57b894"/>
  <path d="M25.5 551.9c-1.2-6 3.9-11.3 9-14.8s10.8-6.8 12.6-12.7c2.4-8.4-5-16-10.6-22.7a82.3 82.3 0 0 1-10.9-16.1 22.2 22.2 0 0 1-2.6-7.4c-.4-3.7.8-7.4 2-11q6-17.8 12.9-35.2" fill="none" stroke="#3f3d56" stroke-miterlimit="10"/>
  <path d="M9.6 468.4a13.7 13.7 0 1 0 1.8-26.2l.3 7-3.3-6a13.6 13.6 0 0 0-7 7.7 13.4 13.4 0 0 0-.8 3.7 13.7 13.7 0 0 0 9 13.8z" fill="none" stroke="#3f3d56" stroke-miterlimit="10"/>
  <path d="M23.8 429.5a13.7 13.7 0 0 1 9.9-8.6l1 6.7 2.2-7a13.7 13.7 0 1 1-13 9z" fill="#57b894"/>
  <path d="M24.6 427.1a13.7 13.7 0 0 1 9.8-8.6l1.1 6.6 2.1-7a13.7 13.7 0 1 1-13 9z" fill="none" stroke="#3f3d56" stroke-miterlimit="10"/>
  <path d="M34 501.8a13.7 13.7 0 0 0 12.2-24.3l-1.6 5.4-1.2-6.8a13.7 13.7 0 1 0-9.3 25.7z" fill="#57b894"/>
  <path d="M34.7 499.4A13.7 13.7 0 0 0 46.8 475l-1.6 5.5-1.1-6.8a13.7 13.7 0 1 0-9.4 25.7z" fill="none" stroke="#3f3d56" stroke-miterlimit="10"/>
  <path d="M19.8 524.5a13.7 13.7 0 1 0 2.7-10.7l6 9.2-8.3-4.9a13.5 13.5 0 0 0-.4 6.4z" fill="#57b894"/>
  <path d="M20.4 522.7A13.7 13.7 0 1 0 23 512l6.1 9.2-8.3-4.9a13.5 13.5 0 0 0-.4 6.4z" fill="none" stroke="#3f3d56" stroke-miterlimit="10"/>
  <ellipse cx="480.9" cy="319.1" rx="17" ry="22" fill="#2f2e41"/>
  <ellipse cx="573.4" cy="319.6" rx="17" ry="22" fill="#2f2e41"/>
  <path d="M560.4 384.6c0 10-13.8 18-31 18s-31-8-31-18c0-8.6 10.5-15.8 24.4-17.6a50.1 50.1 0 0 1 6.6-.4 50.7 50.7 0 0 1 11.2 1.2c11.6 2.6 19.8 9.2 19.8 16.8z" fill="#2f2e41"/>
  <ellipse cx="484.9" cy="314.1" rx="17" ry="22" fill="none" stroke="#3f3d56" stroke-miterlimit="10"/>
  <ellipse cx="577.4" cy="314.6" rx="17" ry="22" fill="none" stroke="#3f3d56" stroke-miterlimit="10"/>
  <ellipse cx="533.4" cy="379.6" rx="31" ry="18" fill="none" stroke="#3f3d56" stroke-miterlimit="10"/>
  <path d="M541 369.3a5 5 0 0 1-1.4 3.4 4.3 4.3 0 0 1-3.2 1.4h-10a4.7 4.7 0 0 1-4.5-4.8 4.9 4.9 0 0 1 .9-2.7 47 47 0 0 1 6.6-.5 47.7 47.7 0 0 1 11.2 1.3 5 5 0 0 1 .3 2z" fill="#fff"/>
  <circle cx="484.9" cy="308.1" r="5" fill="#fff"/>
  <circle cx="577.9" cy="308.1" r="5" fill="#fff"/>
  <circle cx="582.9" cy="355.1" r="5" fill="#1595d3" opacity=".3"/>
  <circle cx="460.9" cy="355.1" r="5" fill="#1595d3" opacity=".3"/>
</svg>
