<svg id="c9110790-68f5-421a-bd61-01bf55405315" data-name="Layer 1" xmlns="http://www.w3.org/2000/svg" xmlns:xlink="http://www.w3.org/1999/xlink" width="915.4" height="848.8" viewBox="0 0 915.4 848.8">
  <defs>
    <linearGradient id="da9b23d9-0e41-46fc-9133-b8e9e7730c16" x1="597.1" y1="866.9" x2="597.1" y2="202.6" gradientUnits="userSpaceOnUse">
      <stop offset="0" stop-color="gray" stop-opacity=".3"/>
      <stop offset=".5" stop-color="gray" stop-opacity=".1"/>
      <stop offset="1" stop-color="gray" stop-opacity=".1"/>
    </linearGradient>
    <linearGradient id="9864eb82-b8e8-438f-a72c-0f0a4e60d74d" x1="559.4" y1="490.9" x2="559.4" y2="489" xlink:href="#da9b23d9-0e41-46fc-9133-b8e9e7730c16"/>
  </defs>
  <ellipse cx="491.9" cy="831.9" rx="221.1" ry="16.9" fill="#1595d3"/>
  <ellipse cx="491.9" cy="831.9" rx="221.1" ry="16.9" opacity=".4"/>
  <path d="M425 108c31-27.6 79.8-33.2 124.1-31 139.4 7 265.2 74.2 374 150.3 39.4 27.6 78.2 57.3 103.8 95.2 52 77.2 36.6 184.3-35.8 247.9-24.6 21.6-54.4 38.2-85.1 53-54.5 26.2-113.3 47.2-175.2 53.1-44 4.3-88.7.8-132.6-5.1C475.7 654.7 355.5 618 254.7 555c-44.3-27.6-86-61.9-104.1-106.5s-6.6-101 38.5-127.5c18.7-11 41-15.8 62.9-20.5 32.2-6.8 64.8-13.5 93.9-27.4 30-14.3 65.5-42 59.5-73.6-6.3-34-11.4-63.9 19.6-91.5z" transform="translate(-142.3 -25.6)" fill="#1595d3"/>
  <path d="M425 108c31-27.6 79.8-33.2 124.1-31 139.4 7 265.2 74.2 374 150.3 39.4 27.6 78.2 57.3 103.8 95.2 52 77.2 36.6 184.3-35.8 247.9-24.6 21.6-54.4 38.2-85.1 53-54.5 26.2-113.3 47.2-175.2 53.1-44 4.3-88.7.8-132.6-5.1C475.7 654.7 355.5 618 254.7 555c-44.3-27.6-86-61.9-104.1-106.5s-6.6-101 38.5-127.5c18.7-11 41-15.8 62.9-20.5 32.2-6.8 64.8-13.5 93.9-27.4 30-14.3 65.5-42 59.5-73.6-6.3-34-11.4-63.9 19.6-91.5z" transform="translate(-142.3 -25.6)" opacity=".4"/>
  <path d="M732.5 98.6V102.2l-.2 1.3v.4a1.4 1.4 0 0 1 0 .2v1.1l-.2 1-.3 2.3-.2 1.5a.4.4 0 0 0 0 .1l-.2.8v.4l-.1.4-.2.8c0 .2 0 .5-.2.8s0 .4 0 .6l-.3 1-.2.8-.2.8-.3 1v.3l-.4 1-1 3.1-.3 1-.2.6a71 71 0 0 1-9.8 17.5l-.7 1a74.7 74.7 0 0 1-6.2 7L609.1 251.3 506.8 149a72.4 72.4 0 0 1-8-9.5 70 70 0 0 1-4.1-6.7 72.3 72.3 0 0 1-8.8-41 73.4 73.4 0 0 1 2.1-12.2l.2-.7.1-.4.3-1 .7-2.4.4-1 1.8-4.6.4-1 .6-1.3 1-2.1v-.2l.6-1 .6-1 .7-1.4.4-.7.2-.3.5-.9.6-.8 1.3-2 .4-.7.6-.8.7-.8.7-1 .7-.9.3-.3.5-.6.8-1 .3-.4.7-.7.7-.8a29 29 0 0 1 2-2l.8-.7 1.2-1.2.8-.7 1-.9.7-.5a15.3 15.3 0 0 1 1.9-1.6l.7-.5 3.3-2.4.7-.5.7-.4.6-.5 1-.6.5-.3.7-.4 2.8-1.5.6-.3.9-.5.7-.4.7-.3.8-.3.7-.4.8-.3 3-1.2.6-.4.8-.3.7-.2.6-.2 1.4-.5.7-.2.6-.2.5-.1 1-.3 1.4-.3a73 73 0 0 1 4-1h.6l.8-.1.8-.2 1-.1.6-.1 4-.4H563.5l3.1.4 1.4.2h1l.8.2.8.2h.5l4.1 1 1.7.3.4.2.8.2 1.3.4.6.2 3 1 .7.2.9.4 1.3.5 1.6.7.6.2.8.4.7.4.7.3 1 .5.7.4 1.6.9.7.4 2.5 1.5.6.4.7.4.7.5.4.3 2.9 2 .6.6 1.3 1 .7.5.6.6 1 .8.8.8 1.2 1.2.8.8.8-.8 1.2-1.2.8-.7 1-.9.6-.5a15.3 15.3 0 0 1 2-1.5l.6-.6 3.4-2.4.7-.5.7-.4.6-.4 1-.6.4-.3.7-.4 2.9-1.6.6-.3.8-.5.8-.3.7-.3.7-.4.8-.3.7-.4 3-1.2.7-.2.8-.3.8-.3.5-.2 1.4-.4.7-.2.6-.2.6-.2 1-.2 1.3-.4a73 73 0 0 1 4-.8l.6-.1.8-.2.8-.1 1-.1.6-.1 4-.4H665.7l3.2.3 1.4.2 1 .2h.8l.7.2.6.1 4 .9 1.7.4.5.1.7.2 1.4.4.5.2 3 1 .7.3 1 .3 1.2.6 1.6.6.6.3.8.4.7.3.8.4.9.5.7.3 1.7 1 .7.4 2.4 1.4.6.4.7.5.7.5.5.3 2.8 2 .7.6 1.3 1 .6.5.7.6.8.7.8.8.5.4.9.8.3.4.5.4.8.8a47.7 47.7 0 0 1 3 3.3l1.1 1.4c1.4 1.6 2.6 3.3 3.8 5l.5.8.5.8.4.7.8 1.1.6 1 .4.8.3.5.2.5.5.8.4.8q1.4 2.7 2.5 5.6l.4.8.8 2.4.3.7.3 1 .3 1 .2.5.2.8.3 1 .5 1.7.2 1 .3 1.2v.5l.2.7.1.6.1.5v.4c0 .1 0 .3.2.5l.1.9.1.9.2 1v1l.1.5.1 1v.5l.1 1V96.5c.2.7.2 1.4.2 2.2z" transform="translate(-142.3 -25.6)" fill="#ff6584"/>
  <path d="M732.5 98.6V102.2l-.2 1.3v.4a1.4 1.4 0 0 1 0 .2v1.1l-.2 1-.3 2.3-.2 1.5a.4.4 0 0 0 0 .1l-.2.8v.4l-.1.4-.2.8c0 .2 0 .5-.2.8s0 .4 0 .6l-.3 1-.2.8-.2.8-.3 1v.3l-.4 1-1 3.1-.3 1-.2.6a72.3 72.3 0 0 0-31.6-78l-4-2.4a72.3 72.3 0 0 0-86 12.4 72.5 72.5 0 0 0-8.8-7.5 71.2 71.2 0 0 0-7.5-4.7 72.5 72.5 0 0 0-69.6 0 71.5 71.5 0 0 0-10.3 6.8 72.8 72.8 0 0 0-14 14.8 72.4 72.4 0 0 0-4 6.3 68.7 68.7 0 0 0-3.1 6.3 66.8 66.8 0 0 0-1.1 2.1l.2-.7v-.4l.4-1 .7-2.4.4-1c.5-1.6 1.1-3 1.8-4.6l.4-.9.6-1.3 1-2.2V65l.6-1 .5-1.1.8-1.4.4-.6.2-.4.5-.8.6-.9 1.2-2 .5-.6.6-.8.6-.9.8-1 .7-.9.2-.3.6-.6.7-1 .4-.3.7-.8.7-.7a29 29 0 0 1 2-2l.7-.8 1.3-1.2.8-.7 1-.9.6-.5a15.3 15.3 0 0 1 2-1.5l.6-.6 3.4-2.4.7-.5.7-.4.6-.4 1-.6.5-.3.7-.4 2.8-1.6.6-.3.9-.5.7-.3.7-.4.8-.3.7-.3.7-.4 3-1.2.7-.4.8-.3.7-.2.6-.2 1.4-.5.7-.2.6-.2.5-.1 1-.3 1.4-.3a73 73 0 0 1 4-1h.6l.8-.1.8-.2 1-.1.6-.1 4-.4H563.5l3.1.4 1.4.2h1l.8.2.8.2h.5l4.1 1 1.7.3.4.2.8.2 1.3.4.6.2 3 1 .7.2.9.4 1.3.5 1.6.7.6.2.8.4.7.4.7.3 1 .5.7.4 1.6.9.7.4 2.5 1.5.6.4.7.4.7.5.4.3 2.9 2 .6.6 1.3 1 .7.5.6.6 1 .8.8.8 1.2 1.2.8.8.8-.8 1.2-1.2.8-.7 1-.9.6-.5a15.3 15.3 0 0 1 2-1.5l.6-.6 3.4-2.4.7-.5.7-.4.6-.4 1-.6.4-.3.7-.4 2.9-1.6.6-.3.8-.5.8-.3.7-.3.7-.4.8-.3.7-.4 3-1.2.7-.2.8-.3.8-.3.5-.2 1.4-.4.7-.2.6-.2.6-.2 1-.2 1.3-.4a73 73 0 0 1 4-.8l.6-.1.8-.2.8-.1 1-.1.6-.1 4-.4H665.7l3.2.3 1.4.2 1 .2h.8l.7.2.6.1 4 .9 1.7.4.5.1.7.2 1.4.4.5.2 3 1 .7.3 1 .3 1.2.6 1.6.6.6.3.8.4.7.3.8.4.9.5.7.3 1.7 1 .7.4 2.4 1.4.6.4.7.5.7.5.5.3 2.8 2 .7.6 1.3 1 .6.5.7.6.8.7.8.8.5.4.9.8.3.4.5.4.8.8a47.7 47.7 0 0 1 3 3.3l1.1 1.4c1.4 1.6 2.6 3.3 3.8 5l.5.8.5.8.4.7.8 1.1.6 1 .4.8.3.5.2.5.5.8.4.8q1.4 2.7 2.5 5.6l.4.8.8 2.4.3.7.3 1 .3 1 .2.5.2.8.3 1 .5 1.7.2 1 .3 1.2v.5l.2.7.1.6.1.5v.4c0 .1 0 .3.2.5l.1.9.1.9.2 1v1l.1.5.1 1v.5l.1 1V96.5c.2.7.2 1.4.2 2.2z" transform="translate(-142.3 -25.6)" opacity=".1"/>
  <path d="M899.8 321.4v3l-.2.5V325.2a.5.5 0 0 1 0 .2v.2a2 2 0 0 1 0 .2v.5l-.1.3v.2l-.2.3v.4l-.4 1-.1.3a1.2 1.2 0 0 1 0 .2 21.5 21.5 0 0 1-3 5.3l-.2.3a22 22 0 0 1-1.9 2.2L862.1 368 831 336.8a22.3 22.3 0 0 1-2.4-3 22.8 22.8 0 0 1-1.3-2 22.2 22.2 0 0 1-2.7-12.5l.2-1.2c0-.7.2-1.4.4-2v-.5l.1-.2v-.1l.1-.3.3-.7v-.4l.6-1.3.1-.3.2-.4.3-.7.2-.3.2-.4.2-.4.1-.2h.1l.1-.3.2-.3.4-.6.1-.2.2-.2.2-.3.3-.3.2-.3.2-.2.2-.3.1-.2.2-.2.2-.2.6-.6.3-.3.4-.3.2-.2.3-.3.2-.2.2-.1.4-.4.2-.1 1-.8.2-.1.2-.1.2-.2.3-.1.2-.1.2-.2.8-.4.2-.1.3-.2h.2l.2-.2h.2l.3-.2h.2l.9-.5h.2l.3-.1.2-.1h.2l.4-.2h.2l.2-.1h.2l.3-.1.4-.1 1.2-.3h1.1l1.3-.1h4.3l.4.1h1l1.2.3.5.1h.4l.4.2h.2l.9.4h.2l.3.1.4.2.4.2h.2l.3.2.2.1.2.1.3.2h.2l.5.4h.2l.8.5.2.2h.2l.2.2.2.1.8.7a1.6 1.6 0 0 0 .2.1l.4.3.2.2.2.2.3.2.3.3.3.3a2.7 2.7 0 0 1 .3.3 1.8 1.8 0 0 1 .2-.3l.4-.3.2-.3.3-.2.2-.2.2-.2.4-.3a1.6 1.6 0 0 0 .2-.1l1-.8.2-.1.2-.2h.2l.3-.3h.2l.2-.2.9-.5h.1l.3-.2.2-.1.2-.1.3-.1.2-.1.2-.1 1-.4h.2l.2-.2h.4l.4-.2h.2l.2-.1h.2l.3-.2h.4l1.2-.3h1.2l1.2-.2h3.3l1 .1h1.4l1.2.4h.7l.2.1.4.2h.2l1 .3.1.1.3.1.4.2.5.2h.1l.3.2h.2l.2.2.3.1.2.2.5.2.3.2.7.4.2.1.2.2.2.1.1.1 1 .6.1.2.4.3.2.2.2.2.3.2.2.2.2.1.2.3h.1l.1.2.3.3.3.3.2.3.4.4.4.4 1.1 1.5.2.3.1.2.1.2.3.4.2.3v.2l.2.2v.1a1.7 1.7 0 0 1 .2.2v.3l.9 1.7v.3l.4.7v.2l.1.3a2.3 2.3 0 0 1 .1.3v.2l.1.2.1.3.2.6a2.7 2.7 0 0 1 0 .2l.1.4c.1.1 0 .1 0 .2v3.1a1.3 1.3 0 0 0 0 .2v.6c0 .1.6.5.6.7z" transform="translate(-142.3 -25.6)" fill="#ff6584"/>
  <path d="M899.8 321.4v3l-.2.5V325.2a.5.5 0 0 1 0 .2v.2a2 2 0 0 1 0 .2v.5l-.1.3v.2l-.2.3v.4l-.4 1-.1.3a1.2 1.2 0 0 1 0 .2 21.5 21.5 0 0 0 .5-5.4 22.1 22.1 0 0 0-10.2-18.4l-1.2-.7a22.1 22.1 0 0 0-21.2 0 23 23 0 0 0-2.1 1.3 22 22 0 0 0-3 2.4 22.4 22.4 0 0 0-2.6-2.3 23 23 0 0 0-2.3-1.4 22 22 0 0 0-24.4 2 23.6 23.6 0 0 0-1.8 1.7 21.8 21.8 0 0 0-2.5 2.9l-1.2 1.9a20.8 20.8 0 0 0-1 1.9c0 .4-.2.7-.4 1l.1-.4.1-.2.1-.4.2-.7.1-.4.6-1.3.1-.3.2-.4.3-.7.2-.3.1-.3.3-.5.1-.2.2-.3.2-.3.4-.6.1-.2.2-.2.2-.3.2-.3.2-.3h.1l.2-.2.2-.3.1-.1.2-.2.2-.3.6-.6.2-.2.4-.4.3-.2.3-.3.2-.2.2-.1.3-.3.3-.2 1-.7.2-.2.2-.1.2-.1.3-.2.1-.1.2-.1.9-.5.2-.1.2-.2h.2l.3-.2h.2l.2-.2h.2l1-.4.2-.1.2-.1h.2l.2-.2h.4l.3-.2H840.8l.3-.1.4-.1 1.3-.3h1.1l1.2-.1h4.4l.4.1h.9l1.3.3.5.1H852.9l.5.2h.1l1 .4h.2l.2.2.4.1.5.2.2.1.2.1.3.1.2.1.3.2.2.1.5.3.2.1.7.4.2.2.3.1.2.1.1.1.9.7a1.6 1.6 0 0 0 .2.1l.4.4.2.1.2.2.3.3.2.2.4.3a2.7 2.7 0 0 1 .2.3 1.8 1.8 0 0 1 .3-.3l.3-.3.3-.2.3-.3.2-.2.2-.1.4-.4a1.6 1.6 0 0 0 .2-.1l1-.8.2-.1.2-.1.2-.2.3-.2h.1l.2-.2 1-.4v-.1l.4-.2h.2l.2-.2h.2l.2-.2h.3l.9-.5h.2l.3-.1.2-.1h.2l.4-.2h.2l.2-.1h.1l.3-.2h.4l1.3-.3h1.1l1.2-.2h3.4l1 .1.4.1h.9c.5 0 .9.2 1.3.3l.5.1h.4l.4.2h.2l.9.4h.2l.2.1.4.2.5.2h.2l.2.2.3.1.2.1.3.2h.2l.5.3.2.2.8.4.2.1.2.2.2.1.1.1.9.7.2.1.4.3.2.2.2.2.2.2.3.2.1.2.2.2h.2v.2l.3.3.4.4.2.2.4.4.3.4 1.2 1.6.1.2.2.2.1.2.2.4.2.3.1.2.1.2.1.1a1.7 1.7 0 0 1 .1.3l.2.2.7 1.7.1.3.3.7v.2l.2.3a2.3 2.3 0 0 1 0 .3l.1.2.1.2v.4l.2.5a2.7 2.7 0 0 1 0 .2l.2.4V319.8a1.3 1.3 0 0 0 0 .2v.7l.2.7z" transform="translate(-142.3 -25.6)" opacity=".1"/>
  <path d="M755.1 280v2a2.7 2.7 0 0 1 0 .3v.7l-.1.5a1.9 1.9 0 0 1 0 .2.8.8 0 0 1 0 .2v.6a1.2 1.2 0 0 1 0 .1 2.8 2.8 0 0 1-.2.4 1.6 1.6 0 0 0 0 .2 2.5 2.5 0 0 0 0 .2l-.1.3a.2.2 0 0 1 0 .1l-.1.3-.3 1-.1.3v.2a22 22 0 0 1-3 5.3l-.3.3a22 22 0 0 1-1.8 2.2l-31.2 31.2-31.2-31.2a22.1 22.1 0 0 1-2.5-3 21.6 21.6 0 0 1-1.3-2 22 22 0 0 1-2.6-12.5l.1-1.2.4-2 .1-.5a1.4 1.4 0 0 1 0-.2.6.6 0 0 1 0-.1l.2-.3.2-.8.1-.3.5-1.4.1-.3.2-.4c0-.2.2-.4.4-.6l.1-.4.2-.3.2-.4a2 2 0 0 1 .1-.2l.1-.1.2-.3.1-.2.4-.6.2-.2.1-.3.2-.2.3-.3a2.8 2.8 0 0 1 .2-.3.9.9 0 0 1 0-.1l.2-.2.3-.3v-.1l.2-.2.3-.2.6-.7.2-.2.4-.4a2.7 2.7 0 0 1 .2-.2l.3-.2.2-.2.2-.2.4-.3.2-.2 1-.7.2-.1.2-.2.2-.1.3-.2h.2l.2-.2.8-.5h.2v-.3l.2-.1.2-.1.3-.1.2-.1.2-.1 1-.4h.2l.2-.2h.4l.4-.2h.2l.2-.1h.2l.3-.2h.4l1.2-.4h8.1l1.2.3.5.2h.2a1.7 1.7 0 0 1 .2 0l.4.2h.2l1 .3.1.1.3.1.4.2.5.2h.1l.3.2h.2l.2.2.3.1.2.1.5.3.3.1.7.5.2.1.2.2.2.1.2.1.8.6a1.6 1.6 0 0 1 .2.2l.4.3.2.2.2.1.3.3a2.7 2.7 0 0 1 .3.2l.3.4.3.2.2-.2.4-.4.2-.2.3-.3.2-.1.2-.2c.2 0 .3-.2.4-.3a1.6 1.6 0 0 1 .2-.2l1-.7.2-.1.3-.2.1-.1.3-.2h.2l.2-.2.9-.5h.1l.3-.2.2-.1.3-.1.2-.1.2-.1.2-.1 1-.4h.2l.2-.2h.2l.2-.1.4-.2h.4l.2-.1.3-.1.4-.1 1.2-.3h8.1l1.3.3.5.2a1.4 1.4 0 0 1 .3 0l.4.1.2.1 1 .3h.1l.3.2.4.2.5.2h.2l.2.2h.2l.2.2.3.1.2.1.6.3.2.1.7.5.2.1.2.1.2.2h.2l.8.7.2.2.4.3.2.2.2.1.3.2.2.3.2.1.2.2.1.2h.2l.2.3.4.4.2.2.3.4.4.5 1.1 1.5.2.2.1.3a2.4 2.4 0 0 1 .2.2l.2.3.2.4.1.2v.1l.2.2.1.2.1.3.8 1.7a1.9 1.9 0 0 1 .1.2l.3.8v.2l.2.3v.3l.1.2c.1.2 0 .1 0 .2l.2.3.1.5v.3l.2.4v.2a1.4 1.4 0 0 1 0 .2 1 1 0 0 1 0 .2.8.8 0 0 1 0 .1V276.1a2.5 2.5 0 0 1 0 .2 2.7 2.7 0 0 1 0 .3v2.6c.4.3.4.6.4.8z" transform="translate(-142.3 -25.6)" fill="#ff6584"/>
  <path d="M755.1 280v2a2.7 2.7 0 0 1 0 .3v.7l-.1.5a1.9 1.9 0 0 1 0 .2.8.8 0 0 1 0 .2v.6a1.2 1.2 0 0 1 0 .1 2.8 2.8 0 0 1-.2.4 1.6 1.6 0 0 0 0 .2 2.5 2.5 0 0 0 0 .2l-.1.3a.2.2 0 0 1 0 .1l-.1.3-.3 1-.1.3v.2a22 22 0 0 0-.2-10.9 22 22 0 0 0-9.5-12.9 18 18 0 0 0-1.2-.7 22 22 0 0 0-21.3 0 19.8 19.8 0 0 0-2 1.3 21.3 21.3 0 0 0-3 2.4 22.5 22.5 0 0 0-2.7-2.3 21.8 21.8 0 0 0-2.2-1.4 22.1 22.1 0 0 0-26.3 3.7 21.8 21.8 0 0 0-2.8 2.9l-1.2 2-1 1.8-.4 1 .1-.3a1.4 1.4 0 0 1 0-.3l.2-.4.2-.7.1-.4.5-1.3.1-.3.2-.4.4-.7.1-.3.2-.4.2-.4a2 2 0 0 1 .1-.2h.1l.2-.3.1-.3.4-.6.2-.2.1-.2.2-.3.3-.3a2.8 2.8 0 0 1 .2-.3l.2-.2.3-.3v-.2l.2-.2.3-.2.6-.6.2-.3.4-.3a2.7 2.7 0 0 1 .2-.2l.3-.3.2-.2.2-.1.4-.4.2-.1 1-.8h.2l.2-.2.2-.2.3-.1.2-.1.2-.2.8-.4.2-.1.4-.2.2-.1.2-.1.3-.1.2-.1.2-.1 1-.4h.2l.2-.2h.4l.4-.2h.2l.2-.1h.2l.3-.2h.4l1.2-.4h8.1l1.2.3.5.2h.2a1.7 1.7 0 0 1 .2 0l.4.2h.2l1 .3.1.1.3.1.4.2.5.2h.1l.3.2h.2l.2.2.3.1.2.1.5.3.3.1.7.5.2.1.2.2.2.1.2.1.8.6a1.6 1.6 0 0 1 .2.2l.4.3.2.2.2.1.3.3a2.7 2.7 0 0 1 .3.2l.3.4.3.2.2-.2.4-.4.2-.2.3-.3.2-.1.2-.2c.2 0 .3-.2.4-.3a1.6 1.6 0 0 1 .2-.2l1-.7.2-.1.3-.2.1-.1.3-.2h.2l.2-.2.9-.5h.1l.3-.2.2-.1.3-.1.2-.1.2-.1.2-.1 1-.4h.2l.2-.2h.2l.2-.1.4-.2h.4l.2-.1.3-.1.4-.1 1.2-.3h8.1l1.3.3.5.2a1.4 1.4 0 0 1 .3 0l.4.1.2.1 1 .3h.1l.3.2.4.2.5.2h.2l.2.2h.2l.2.2.3.1.2.1.6.3.2.1.7.5.2.1.2.1.2.2h.2l.8.7.2.2.4.3.2.2.2.1.3.2.2.3.2.1.2.2.1.2h.2l.2.3.4.4.2.2.3.4.4.5 1.1 1.5.2.2.1.3a2.4 2.4 0 0 1 .2.2l.2.3.2.4.1.2v.1l.2.2.1.2.1.3.8 1.7a1.9 1.9 0 0 1 .1.2l.3.8v.2l.2.3v.3l.1.2c.1.2 0 .1 0 .2l.2.3.1.5v.3l.2.4v.2a1.4 1.4 0 0 1 0 .2 1 1 0 0 1 0 .2.8.8 0 0 1 0 .1V276.1a2.5 2.5 0 0 1 0 .2 2.7 2.7 0 0 1 0 .3v2.6c.4.3.4.6.4.8z" transform="translate(-142.3 -25.6)" opacity=".1"/>
  <path d="M460 302a1.3 1.3 0 0 1 0 .1v1.8a2.9 2.9 0 0 1 0 .3v1.2a1.6 1.6 0 0 1 0 .2v.5l-.1.3a1.2 1.2 0 0 1 0 .1l-.1.4a1.6 1.6 0 0 0 0 .2 2.3 2.3 0 0 0-.1.2l-.1.3a.3.3 0 0 1 0 .1l-.1.3-.3 1a2.8 2.8 0 0 1-.1.3v.2a22 22 0 0 1-3 5.3l-.2.3a22 22 0 0 1-2 2.2l-31.1 31.2-31.2-31.2a22.3 22.3 0 0 1-2.5-3l-1.3-2a22 22 0 0 1-2.6-12.5l.1-1.2.4-2 .1-.5v-.2a.7.7 0 0 1 0-.1l.2-.3c0-.3 0-.5.2-.8v-.3l.6-1.4.1-.2.2-.5c0-.2.2-.4.4-.6l.1-.3.2-.4.2-.4.1-.2.1-.1.2-.2.1-.3.4-.6.2-.2.1-.3.2-.2a3.5 3.5 0 0 1 .3-.3l.2-.3.2-.3.3-.3.2-.3.3-.2.6-.6.2-.3.4-.3.2-.3.3-.2.2-.2.2-.2.4-.3.2-.1 1-.8.2-.1.2-.2h.2a2.9 2.9 0 0 1 .3-.3h.2l.2-.2.8-.5h.2l.1-.2.2-.1.2-.1.3-.1.2-.1.2-.1 1-.4h.2l.2-.2h.2l.2-.1.4-.1.2-.1h.4l.3-.1.4-.1 1.2-.3h1.2l1.2-.2h3.3l1 .1h.4l.3.1h.7l1.2.3.5.1h.4l.4.2h.2l.9.4h.2l.3.1.4.2.4.2.2.1.3.1.2.1.2.1.3.2h.2l.5.4h.2l.8.5.2.2.2.1.2.1a.7.7 0 0 1 .1.1l.9.7.2.1.4.4.2.1.2.2.3.2.2.3.4.3.2.3.3-.3.4-.3.2-.3.3-.2.2-.2.2-.1.4-.4.2-.1 1-.8.2-.1.2-.1.2-.2.3-.2h.1l.3-.2.8-.4a1 1 0 0 0 .2-.2h.3l.2-.2.2-.1.2-.1.3-.1.2-.1.9-.4h.2l.3-.1.2-.1h.2l.4-.2h.2l.2-.1h.2l.3-.1.4-.1 1.2-.3h1.2l1.2-.2h3.3l1 .1h.5l.2.1h.7l1.2.3.5.1h.4l.4.2h.2l.9.4h.2l.3.2.4.1.5.2.1.1.3.1.2.1.2.2h.3l.2.2.5.3.3.1.7.5h.2l.2.2.2.2h.2l.8.7.2.1.4.4.2.1.2.2.3.2a2.7 2.7 0 0 1 .2.3h.2l.2.3.1.1.2.2.2.2.4.4.2.2.3.4.4.4 1.1 1.6.2.2.1.3a1.4 1.4 0 0 1 .2.2l.2.3.2.3v.2l.2.2v.2l.2.2.1.2a18.7 18.7 0 0 1 .8 1.8v.2l.4.7v.3l.1.3.1.2v.2l.2.3a3 3 0 0 1 0 .3l.2.5v.3l.1.4v.1a1.7 1.7 0 0 1 0 .2 1.2 1.2 0 0 1 0 .2.6.6 0 0 1 0 .2v.5a2.5 2.5 0 0 1 0 .3v.3a2.9 2.9 0 0 1 0 .3v.6a3 3 0 0 1 0 .3 1.2 1.2 0 0 0 0 .2v.9s.5.4.5.6z" transform="translate(-142.3 -25.6)" fill="#ff6584"/>
  <path d="M460 302a1.3 1.3 0 0 1 0 .1v1.8a2.9 2.9 0 0 1 0 .3v1.2a1.6 1.6 0 0 1 0 .2v.5l-.1.3a1.2 1.2 0 0 1 0 .1l-.1.4a1.6 1.6 0 0 0 0 .2 2.3 2.3 0 0 0-.1.2l-.1.3a.3.3 0 0 1 0 .1l-.1.3-.3 1a2.8 2.8 0 0 1-.1.3v.2a22.1 22.1 0 0 0-.2-11 22 22 0 0 0-9.9-12.8l-1.2-.7a22.1 22.1 0 0 0-21.3 0 21.5 21.5 0 0 0-2 1.3 22.1 22.1 0 0 0-3 2.5 21.6 21.6 0 0 0-2.6-2.3 21.9 21.9 0 0 0-2.3-1.5 22.1 22.1 0 0 0-21.3 0 21.4 21.4 0 0 0-3 2.1 22 22 0 0 0-2 1.7 21.8 21.8 0 0 0-2.4 2.8l-1.2 2-1 1.8c0 .4-.2.8-.3 1.1v-.4l.1-.2a.7.7 0 0 1 0-.1v-.3l.3-.8.1-.3.6-1.4v-.3l.3-.4.3-.6.1-.4.2-.3.3-.4v-.2l.1-.1.2-.2.2-.3.4-.6.1-.2.2-.3.2-.2a3.5 3.5 0 0 1 .2-.3l.2-.3.2-.3.3-.3h.1l.2-.3.2-.2.6-.6.2-.3.4-.3.3-.3.3-.2.2-.2.1-.2.4-.3.2-.1 1-.8.3-.1.2-.2h.2a2.9 2.9 0 0 1 .3-.3l.3-.2.9-.5h.2l.4-.2.2-.1.2-.1.3-.1.2-.1.2-.1 1-.4h.2l.2-.2h.2l.2-.1.4-.1.2-.1h.4l.3-.1.4-.1 1.2-.3h1.2l1.2-.2h3.3l1 .1h.4l.3.1h.7l1.2.3.5.1h.4l.4.2h.2l.9.4h.2l.3.1.4.2.4.2.2.1.3.1.2.1.2.1.3.2h.2l.5.4h.2l.8.5.2.2.2.1.2.1a.7.7 0 0 1 .1.1l.9.7.2.1.4.4.2.1.2.2.3.2.2.3.4.3.2.3.3-.3.4-.3.2-.3.3-.2.2-.2.2-.1.4-.4.2-.1 1-.8.2-.1.2-.1.2-.2.3-.2h.1l.3-.2.8-.4a1 1 0 0 0 .2-.2h.3l.2-.2.2-.1.2-.1.3-.1.2-.1.9-.4h.2l.3-.1.2-.1h.2l.4-.2h.2l.2-.1h.2l.3-.1.4-.1 1.2-.3h1.2l1.2-.2h3.3l1 .1h.5l.2.1h.7l1.2.3.5.1h.4l.4.2h.2l.9.4h.2l.3.2.4.1.5.2.1.1.3.1.2.1.2.2h.3l.2.2.5.3.3.1.7.5h.2l.2.2.2.2h.2l.8.7.2.1.4.4.2.1.2.2.3.2a2.7 2.7 0 0 1 .2.3h.2l.2.3.1.1.2.2.2.2.4.4.2.2.3.4.4.4 1.1 1.6.2.2.1.3a1.4 1.4 0 0 1 .2.2l.2.3.2.3v.2l.2.2v.2l.2.2.1.2a18.7 18.7 0 0 1 .8 1.8v.2l.4.7v.3l.1.3.1.2v.2l.2.3a3 3 0 0 1 0 .3l.2.5v.3l.1.4v.1a1.7 1.7 0 0 1 0 .2 1.2 1.2 0 0 1 0 .2.6.6 0 0 1 0 .2v.5a2.5 2.5 0 0 1 0 .3v.3a2.9 2.9 0 0 1 0 .3v.6a3 3 0 0 1 0 .3 1.2 1.2 0 0 0 0 .2v.9s.5.4.5.6z" transform="translate(-142.3 -25.6)" opacity=".1"/>
  <path d="M450.4 461.2v.3a1.3 1.3 0 0 1 0 .2v1a.1.1 0 0 1 0 .1v1.4l-.1.5V465a.5.5 0 0 1 0 .1 1.8 1.8 0 0 1 0 .3 2 2 0 0 1-.1.2v.5l-.1.2-.1.3-.1.3-.1.4-.3 1-.1.3a.9.9 0 0 1 0 .2 21.6 21.6 0 0 1-3 5.3l-.2.3a22 22 0 0 1-2 2.1l-31.1 31.2-31.2-31.2a22.3 22.3 0 0 1-2.5-2.9 22.8 22.8 0 0 1-1.2-2 22 22 0 0 1-2.7-12.5l.1-1.2.4-2.1.1-.4v-.4l.2-.3.2-.7.1-.3.5-1.4-.1-.3.2-.4.3-.7.2-.3.2-.3.2-.5.1-.2.2-.3.2-.3.4-.6.1-.2.2-.2.2-.3.2-.3.2-.3h.1l.2-.2.2-.3.1-.1.2-.3.3-.2.6-.6.2-.3.4-.3.3-.2.3-.3.2-.2.2-.1.4-.4a1.6 1.6 0 0 1 .1-.1l1-.8h.3a1.5 1.5 0 0 1 .2-.2l.2-.2.3-.1.1-.1.2-.2.9-.4.2-.1.2-.2h.2l.3-.2h.2l.2-.2h.2l1-.5h.2l.2-.1.2-.1h.2l.4-.2h.3l.1-.1h.2l.3-.1.4-.1 1.3-.3h1.1l1.2-.1H399.8l.5.1H401.2l1.3.3.5.1.3.1.4.1.2.1 1 .3h.1l.3.2.4.2.5.2h.2l.2.2h.2l.3.2.2.1.3.1.5.3.2.1.7.5.2.1.2.1.2.2h.2l.8.7.2.2.4.3.2.2.2.1.3.3.3.2.3.4.3.2.2-.2.4-.4.3-.2.2-.3.2-.1.2-.2.4-.3.2-.2 1-.7.2-.2.3-.1.2-.1.2-.2.2-.1.2-.1.9-.5.1-.1.3-.1.2-.2h.3l.2-.2h.2l.2-.2 1-.3.2-.1.2-.1h.2l.2-.1.4-.2H422.4l.3-.2h.4l1.3-.4h8l1.2.3.5.2h.4l.4.2h.2l.9.3.2.1.3.1.4.2.5.2h.1l.3.2h.2l.2.2.3.1.2.2.5.2.3.2.7.4.2.1.2.2.2.1.1.1.9.6.2.2.4.3.2.2.2.2.3.2.2.2.1.1.3.3.2.2.3.3.3.3.2.3.4.4.3.4 1.2 1.5.2.3.1.2.1.2.3.4.1.3.2.2v.2l.1.1.2.3v.2l.9 1.7v.3l.3.7.1.2.1.3.1.3v.2l.1.2.1.4.2.5a2.7 2.7 0 0 1 0 .2l.1.4V459.7a1.4 1.4 0 0 0 0 .2v.6c0 .1.6.4.5.7z" transform="translate(-142.3 -25.6)" fill="#ff6584"/>
  <path d="M450.4 461.2v.3a1.3 1.3 0 0 1 0 .2v1a.1.1 0 0 1 0 .1v1.4l-.1.5V465a.5.5 0 0 1 0 .1 1.8 1.8 0 0 1 0 .3 2 2 0 0 1-.1.2v.5l-.1.2-.1.3-.1.3-.1.4-.3 1-.1.3a.9.9 0 0 1 0 .2 21.4 21.4 0 0 0 .5-5.4 21.7 21.7 0 0 0-.7-5.5 22.2 22.2 0 0 0-9.5-13l-1.2-.6a22 22 0 0 0-21.3 0 21 21 0 0 0-2 1.3 21.2 21.2 0 0 0-3.2 2.4 22.4 22.4 0 0 0-2.7-2.3 23 23 0 0 0-2.3-1.4 22 22 0 0 0-24.4 2 23.6 23.6 0 0 0-1.8 1.7 21.8 21.8 0 0 0-2.4 2.9 20.4 20.4 0 0 0-1.2 1.9 20.8 20.8 0 0 0-1 1.9l-.4 1v-.4l.1-.2v-.1l.1-.3.3-.8v-.3l.6-1.4.1-.2.2-.4.3-.7.2-.3.2-.3.2-.5.1-.2.2-.3.2-.3.4-.6.1-.2.2-.2.2-.3.2-.3.2-.3h.1l.2-.2.2-.3.1-.1.2-.3.3-.2.6-.6.2-.3.4-.3.3-.2.3-.3.2-.2.2-.1.4-.4a1.6 1.6 0 0 1 .1-.1l1-.8h.3a1.5 1.5 0 0 1 .2-.2l.2-.2.3-.1.1-.1.2-.2.9-.4.2-.1.2-.2h.2l.3-.2h.2l.2-.2h.2l1-.5h.2l.2-.1.2-.1h.2l.4-.2h.3l.1-.1h.2l.3-.1.4-.1 1.3-.3h1.1l1.2-.1H399.8l.5.1H401.2l1.3.3.5.1.3.1.4.1.2.1 1 .3h.1l.3.2.4.2.5.2h.2l.2.2h.2l.3.2.2.1.3.1.5.3.2.1.7.5.2.1.2.1.2.2h.2l.8.7.2.2.4.3.2.2.2.1.3.3.3.2.3.4.3.2.2-.2.4-.4.3-.2.2-.3.2-.1.2-.2.4-.3.2-.2 1-.7.2-.2.3-.1.2-.1.2-.2.2-.1.2-.1.9-.5.1-.1.3-.1.2-.2h.3l.2-.2h.2l.2-.2 1-.3.2-.1.2-.1h.2l.2-.1.4-.2H422.4l.3-.2h.4l1.3-.4h8l1.2.3.5.2h.4l.4.2h.2l.9.3.2.1.3.1.4.2.5.2h.1l.3.2h.2l.2.2.3.1.2.2.5.2.3.2.7.4.2.1.2.2.2.1.1.1.9.6.2.2.4.3.2.2.2.2.3.2.2.2.1.1.3.3.2.2.3.3.3.3.2.3.4.4.3.4 1.2 1.5.2.3.1.2.1.2.3.4.1.3.2.2v.2l.1.1.2.3v.2l.9 1.7v.3l.3.7.1.2.1.3.1.3v.2l.1.2.1.4.2.5a2.7 2.7 0 0 1 0 .2l.1.4V459.7a1.4 1.4 0 0 0 0 .2v.6c0 .1.6.4.5.7z" transform="translate(-142.3 -25.6)" opacity=".1"/>
  <path d="M533.5 358.8v.3a.6.6 0 0 1 0 .1V360.3a1.5 1.5 0 0 1 0 .2v.9a.4.4 0 0 1 0 .1v.5a2.3 2.3 0 0 0 0 .3v.2l-.1.1v.3l-.1.2-.3.7v.2l-.1.2a15.8 15.8 0 0 1-2 3.7l-.2.2a14.4 14.4 0 0 1-1.3 1.6l-22.1 22-22-22a15.6 15.6 0 0 1-4.6-12.4l.1-.8a14.7 14.7 0 0 1 .3-1.5v-.3a.8.8 0 0 0 0-.2l.2-.3.1-.5v-.2l.5-1v-.2l.2-.3.2-.5a2.1 2.1 0 0 0 .1-.2l.2-.2a2.8 2.8 0 0 1 .1-.3.6.6 0 0 1 .1-.1v-.1l.1-.2.1-.2.3-.4.1-.1.1-.2.2-.2.1-.2a1.4 1.4 0 0 1 .2-.2l.2-.2.1-.2h.1l.1-.2.2-.2.4-.4.2-.2.2-.3a1.3 1.3 0 0 0 .2-.1l.2-.2.2-.1.1-.1.3-.3h.1l.7-.6.2-.1h.1l.2-.2.2-.1.2-.2.7-.3.3-.2h.1l.2-.1h.1l.2-.2h.2l.6-.3h.2l.1-.1H491.2l.3-.2H492.1l.3-.1.9-.2H498.9l1 .2H500.4l.3.2.7.2h.2l.2.1.2.1.4.2h.1l.2.1h.1l.2.2h.2l.1.1.4.2.2.1.5.3.1.1.2.1.1.1h.1l.6.5.2.2.3.2.2.2.2.2.2.2a3 3 0 0 0 .3.2l.1.2.2-.2a3 3 0 0 0 .3-.2l.2-.2.2-.2.1-.1.1-.1.3-.2.2-.2.7-.5h.1l.2-.2h.1l.2-.2h.1l.2-.1.6-.4h.1l.2-.2h.2l.1-.1h.2l.1-.1.2-.1.6-.3h.2l.2-.1H513.3l.2-.2H514.4c.3-.2.6-.2 1-.3h5.6l.9.2H522.5l.3.2h.1l.6.2h.2l.2.1.3.1.3.2h.1l.2.1h.2l.1.2h.2l.2.2.3.1.2.1.5.4h.1l.2.1.1.1.1.1.7.5h.1a3.1 3.1 0 0 1 .3.3l.1.1.2.1.1.2.2.1.1.1.2.2.2.2.1.2.3.2.1.2.3.3.2.3.8 1 .1.2.2.2v.1l.2.3.1.2a1 1 0 0 1 .1.2l.1.2.1.2.1.1.6 1.2v.2l.2.5a.9.9 0 0 1 0 .2l.2.2v.2a1 1 0 0 0 0 .1v.2l.1.2.1.4v.2l.1.3v.2a.5.5 0 0 0 0 .1V356.7a1.5 1.5 0 0 1 0 .3 1.5 1.5 0 0 0 0 .3v.3a.7.7 0 0 1 0 .2 2 2 0 0 1 0 .3 2 2 0 0 1 0 .3z" transform="translate(-142.3 -25.6)" fill="#ff6584"/>
  <path d="M533.5 358.8v.3a.6.6 0 0 1 0 .1V360.3a1.5 1.5 0 0 1 0 .2v.9a.4.4 0 0 1 0 .1v.5a2.3 2.3 0 0 0 0 .3v.2l-.1.1v.3l-.1.2-.3.7v.2l-.1.2a15.6 15.6 0 0 0 .4-3.8 15.9 15.9 0 0 0-.5-4 15.6 15.6 0 0 0-4-7 15.9 15.9 0 0 0-2.7-2c-.2-.3-.5-.4-.8-.6a15.6 15.6 0 0 0-15 0 17.4 17.4 0 0 0-1.5 1 16.4 16.4 0 0 0-2 1.7 16 16 0 0 0-1.9-1.7 13.7 13.7 0 0 0-1.6-1 15.6 15.6 0 0 0-15 0 15.2 15.2 0 0 0-2.2 1.5 15.8 15.8 0 0 0-1.3 1.2 16.4 16.4 0 0 0-1.7 2c-.4.4-.6.9-.9 1.3a14 14 0 0 0-.7 1.4l-.3.7v-.3a.8.8 0 0 0 0-.1v-.1l.2-.2.1-.5v-.3l.5-1v-.2l.2-.3.2-.4a2.1 2.1 0 0 0 .1-.2l.2-.3a2.8 2.8 0 0 1 .1-.3.6.6 0 0 1 .1-.1l.1-.2.1-.2.3-.4.1-.2.1-.2.2-.2.1-.2a1.4 1.4 0 0 1 .2-.2l.2-.2.1-.2h.1l.1-.2.2-.2.4-.4.2-.2.2-.2a1.3 1.3 0 0 0 .2-.2l.2-.2h.2l.1-.2.3-.2.1-.1.7-.6h.2l.1-.1.2-.1.2-.2.2-.1.7-.4.3-.1.1-.1h.2l.1-.1.2-.1h.2l.6-.3.2-.1h.1l.2-.1h.1l.3-.1H492.2l.3-.2.9-.1h.7l1-.1H499l1 .2.3.1H500.9l.7.3h.2l.2.1.2.2.4.1h.1l.2.1.1.1h.2l.2.2h.1l.4.3h.2l.5.4h.1l.2.2h.1l.1.1.6.5h.2l.3.3v.1l.2.2.2.1.2.2a3 3 0 0 0 .3.2l.1.2.2-.2a3 3 0 0 0 .3-.2l.2-.2.2-.1.1-.2h.1l.3-.3.2-.1.7-.5.1-.1.2-.1.1-.1.2-.2h.1l.2-.1.6-.3.1-.1.2-.1h.1l.2-.2h.2l.1-.1h.2l.6-.3.2-.1h.2l.1-.1h.1l.3-.1H514.2l.3-.1 1-.2H516.2l.9-.1h4l.9.2.3.1H522.6l.3.1h.1l.6.2h.2l.2.2h.3l.3.2h.1l.2.2h.2l.1.1.2.1h.2l.3.3h.2l.5.4h.1l.2.2h.1l.1.1.7.5.1.1a3.1 3.1 0 0 1 .3.2l.1.1.2.2.1.1.2.2h.1l.2.3.2.1.1.2.3.3.1.1.3.3.2.3.8 1.1.1.2.2.1v.2l.2.2.1.3a1 1 0 0 1 .1 0v.2l.1.1.1.2.1.2.6 1.2v.2l.2.5a.9.9 0 0 1 0 .1s0 .2.2.2v.2a1 1 0 0 0 0 .2v.1l.1.3.1.3v.2l.1.3V356.7a1.5 1.5 0 0 1 0 .2v.1a1.5 1.5 0 0 0 0 .2.4.4 0 0 0 0 .1v.3a.7.7 0 0 1 0 .2 2 2 0 0 1 0 .3 2 2 0 0 1 0 .2z" transform="translate(-142.3 -25.6)" opacity=".1"/>
  <path d="M769.5 443.3v.3a.7.7 0 0 1 0 .1v.4a2.5 2.5 0 0 0 0 .3V444.7a1.4 1.4 0 0 1 0 .2v1a.3.3 0 0 1 0 .1v.1a1.4 1.4 0 0 1 0 .2v.5a.8.8 0 0 0 0 .2v.4a1.9 1.9 0 0 0-.2.3l-.2.6a1.8 1.8 0 0 0 0 .3h-.1a15.6 15.6 0 0 1-2 3.8l-.2.3a15.8 15.8 0 0 1-1.4 1.5l-22 22-22-22a14.5 14.5 0 0 1-1.7-2 14.3 14.3 0 0 1-1-1.5 15.6 15.6 0 0 1-1.8-8.9v-.8a14.8 14.8 0 0 1 .4-1.5v-.3a.8.8 0 0 1 0-.2v-.3l.3-.5a2.3 2.3 0 0 0 0-.2l.4-1 .1-.2.1-.3.3-.5v-.2l.2-.2.2-.3a1 1 0 0 1 0-.1v-.1l.2-.2v-.2l.4-.4v-.1l.2-.2.1-.2.2-.2.1-.2.1-.2.2-.2v-.1l.2-.1.2-.2.4-.5a1.4 1.4 0 0 1 .2-.1 3 3 0 0 1 .2-.3l.2-.1a1.8 1.8 0 0 1 .2-.2l.1-.1.2-.2.3-.2h.1l.7-.6.2-.1.1-.1.2-.1.2-.1.2-.2.6-.3h.2l.1-.2h.2l.2-.1.1-.1h.2l.1-.1.7-.3h.1l.2-.1h.2l.1-.1.3-.1H728.2l.3-.1.9-.2h.8l.8-.1h4a8.6 8.6 0 0 1 1 .2l.3.1h.2l.3.1h.2l.6.2h.1l.2.1.3.1.4.2.3.1h.1l.2.2h.2l.1.1.4.2.1.1.6.3.1.1.2.1.1.1.1.1.6.4.2.2.2.2.2.1.1.1.2.2.2.2.3.2a1.4 1.4 0 0 1 .1.2l.2-.2.3-.2a1.3 1.3 0 0 1 .1-.2l.2-.2.2-.1.1-.1.3-.2.1-.2.8-.5h.1l.2-.2h.1l.2-.2h.1l.2-.1.6-.4h.1l.2-.1.1-.1h.2l.2-.2h.1l.2-.1.6-.3H749l.2-.1h.1l.3-.2H750.2l.3-.1 1-.2h5.5c.4 0 .7 0 1 .2H758.6l.3.2h.1l.6.2h.4l.3.2.3.1h.1l.2.2h.2l.1.1.2.1h.2l.3.3h.2l.5.4h.1l.2.2h.1l.1.1.6.5.2.1.3.2.1.1.1.2.2.1.2.2a1 1 0 0 0 .1 0l.2.3.1.1.2.2.3.3.1.1a3.2 3.2 0 0 1 .3.3l.2.3.8 1.1.1.2.1.1.1.2.2.2.1.3h.1v.2l.1.1.1.2.1.2.6 1.2a1.3 1.3 0 0 1 0 .2l.2.5v.1a1.7 1.7 0 0 0 .2.2v.8l.2.3v2.9a2 2 0 0 1 0 .3 2 2 0 0 1 0 .2z" transform="translate(-142.3 -25.6)" fill="#ff6584"/>
  <path d="M769.5 443.3v.3a.7.7 0 0 1 0 .1v.4a2.5 2.5 0 0 0 0 .3V444.7a1.4 1.4 0 0 1 0 .2v1a.3.3 0 0 1 0 .1v.1a1.4 1.4 0 0 1 0 .2v.5a.8.8 0 0 0 0 .2v.4a1.9 1.9 0 0 0-.2.3l-.2.6a1.8 1.8 0 0 0 0 .3h-.1a15.6 15.6 0 0 0 .4-3.7 15.6 15.6 0 0 0-7.2-13l-.9-.5a15.6 15.6 0 0 0-15 0 15.3 15.3 0 0 0-1.4 1 15.6 15.6 0 0 0-2 1.6 15.3 15.3 0 0 0-2-1.6 18.2 18.2 0 0 0-1.6-1 15.7 15.7 0 0 0-15 0 16 16 0 0 0-2.2 1.5 14.3 14.3 0 0 0-1.3 1.2 14.8 14.8 0 0 0-1.7 2 13 13 0 0 0-.8 1.3 15.2 15.2 0 0 0-1 2.1v-.3a.8.8 0 0 1 0-.1.3.3 0 0 1 0-.1l.1-.2.2-.6a2.3 2.3 0 0 0 0-.2l.4-1 .1-.2.2-.3.2-.4.1-.3.1-.2.2-.3a1 1 0 0 1 0-.1v-.1l.2-.2.1-.2.3-.4v-.1l.2-.2.1-.2.2-.2.2-.2v-.2l.2-.2h.1l.2-.2.1-.2.4-.4a1.4 1.4 0 0 1 .2-.2 3 3 0 0 1 .3-.2l.1-.2a1.8 1.8 0 0 1 .2-.2l.2-.1.1-.1.3-.3h.1l.8-.6h.1l.2-.2h.1l.2-.2h.1l.2-.2.6-.3h.1l.2-.2h.1l.2-.1h.2l.1-.2h.2l.6-.3h.2l.2-.1h.1l.1-.1.3-.1H728.2l.3-.1 1-.2H730.2l.9-.1H735a8.6 8.6 0 0 1 1 .3H736.6l.3.1h.1l.6.3h.4l.3.1.3.2h.1l.2.1.2.1h.1l.2.2h.2l.3.3h.2l.5.4h.1l.2.2h.1l.1.1.6.5h.2l.3.3.1.1.1.1.3.2.1.2.3.2a1.4 1.4 0 0 1 .2.2l.1-.2.3-.2a1.3 1.3 0 0 1 .2-.2l.2-.2h.1l.2-.2.2-.2.2-.1.7-.5.2-.1.1-.1.1-.1.2-.2h.2l.1-.1.6-.4h.1l.2-.1.2-.1h.1l.2-.1.2-.1h.1l.7-.3.1-.1h.2l.1-.1h.2l.3-.2H750.6l.8-.3H757.1l1 .2h.5l.3.2h.1l.7.2H760l.3.2.3.1h.2l.1.2h.2l.2.1.2.1.1.1.4.2h.1l.5.4h.2l.1.2h.2v.2l.7.4.1.1.3.3h.1l.2.2.2.1.1.2a1 1 0 0 0 .1.1l.2.2h.1v.1l.3.2.2.3.2.1a3.2 3.2 0 0 1 .2.3l.3.3.8 1.1v.2l.2.1v.2l.2.2.2.3v.1l.1.1v.1l.2.2v.2l.6 1.2a1.3 1.3 0 0 1 0 .2l.3.5v.1a1.7 1.7 0 0 0 .1.3v.5l.1.2.1.4c.1.2 0 0 0 .1V442a.6.6 0 0 0 0 .1v.1a2 2 0 0 1 0 .3 2 2 0 0 1 0 .2z" transform="translate(-142.3 -25.6)" opacity=".1"/>
  <path d="M703.4 448a115 115 0 0 0-10.1-9.2l1.5-20.6c0-3.1-4.5-7.1-14.4-10.8s-7 13.5-6.9 15 2.3 6.3 6 7.8c1.4.6 1.7 1.3 1.6 2l-.3-.1c-8-1-11.7-3-11.7-3s-3 9-3 13.4v.7a5.1 5.1 0 0 0 .2 2.3h.7a7.5 7.5 0 0 1-.6 3.4 26.4 26.4 0 0 1-1 2.5 68.8 68.8 0 0 1-.4-7.4c.1-2.4-3.7-12.2-3.7-12.2s-1.6-.6-5-4.5-6-5.4-8.2-6.2-10.5-11.5-13.9-14c-2.7-2-3.8-.8-4-.3l-.3.2c-1.6-2.2-2.7-4.3-2.7-5.8l.3-6.1a26 26 0 0 1 3.3 3c2.3 2.5 4 5.6 6.5 8a10.6 10.6 0 0 0 7.2 3 6.6 6.6 0 0 0 2.6-.4c3.3-1.3 5.5-5.3 9-5.5 2.8.2 4.8 2.7 7 4.4a9.4 9.4 0 0 0 5.9 2 6.6 6.6 0 0 0 2.4-.4c2.6-1 4.4-4.2 3.2-6.7-1.8-3.9-8.1-3-10.8-6.4a2.6 2.6 0 0 1-.6-2.4 1.7 1.7 0 0 1 1.6-1.2 5.6 5.6 0 0 1 3.4 1.6c1.3 1.3 3 3 4.6 2.8a2.2 2.2 0 0 0 1.3-.3l.2-3.5a12.4 12.4 0 0 0 5.5 1.6 6.5 6.5 0 0 0 1.1 0c2.1-.4 4.1-2.3 3.9-4.4a4.8 4.8 0 0 0 3.3 1.1 4.5 4.5 0 0 0 1.6-.2 4.8 4.8 0 0 0 3.2-4.1c.2-2.2-1.2-4.2-2.5-6l-6.5-9a3.6 3.6 0 0 1-1-2.5 5.4 5.4 0 0 1 1.1-2c1.8-2.6 1-6.5-1.4-8.6s-5.5-3-8.7-3c-2.4.1-5 .5-6.9-.8-1.5-1-2.2-3-2.7-4.7-1.4-5.3-1.5-10.8-2.4-16.2s-3-10.8-7.4-14a6.8 6.8 0 0 0-3.5-1.6 24.3 24.3 0 0 0-3.1.3c-3.6.2-6.8-2.3-9.1-5.1s-4-6.1-6.6-8.6c-3.9-3.9-10.3-5-15.4-3.5-2.3.6-4.2 2.5-6.6 2.6-3.5.2-7.4-.6-11-1-3.3-.3-6.7-.6-10 .2a10.6 10.6 0 0 0-7 5.2l-.8-7.2S579.7 288 579 287c-.6-.8-.4-2 0-3.2l.2.1.4-1a2.6 2.6 0 0 0 0-.9c.3-2.7-4.6-20.1-4.6-20.1h-4.5l-.1-.7c-1.3-7-3.5-18-5-20.7-1-1.9-1.1-4.5-1-6.8a53.9 53.9 0 0 0 .3-7.9 21.7 21.7 0 0 1 .2-3.8 5.4 5.4 0 0 0-2.1-5c-5.9-4.3-20.1-14.2-28.4-14.5-10.7-.3 3.3 18.4 3.1 20.2s10.7 3.3 10.7 3.3.6 5.5 1.3 8.5a528 528 0 0 1 1.6 27.2c-2.6-.4-7.2-2.7-7.2-2.7s-12.4-3.4-13.5 0 15.1 19.5 15.1 19.5 5.7 15.2 4 20-.5 27.5-.5 27.5.2 27 1.4 33.9-2.2 10.7-2.2 10.7-1.4 17 0 18.5a49.5 49.5 0 0 1 4 6.3l.4.8a48 48 0 0 1-11.9 12c-4.7 1.4-37.3 15-37.3 15s-10.7 10.2-12.3 10.2 9.7 10.8 9.7 10.8 10.2 8.2 11.3 9.5 29 16.4 29 16.4 4.8 1.5 5.3 3 6.8 5.4 6.8 5.4 4.9 5.6 6.2 9.2v.7c0 1 .2 1.4.2 1.2.9 2.3 6.6 8.3 3.8 12.6-1.2 2 0 5.6 2.5 8.5-.7 3.5-1.6 7.6-2.6 9-2 2.5-1 6.1-3 6.6s-2.5 9.8-2.5 9.8l-1.7 20.7s-.4 4.2-2.8 5.3 0 6.8 0 6.8-2.5 5-1 7.7-3 15.6-3 15.6-1.9 24.7 0 28a28 28 0 0 1 3 11l1.1 42s-2.5 16.2-3.4 19.1 2.3 9.6.2 13-1.7 11.1-1.7 11.1-3.2 30-1.3 41.2-.6 13.4-.6 13.4a22.7 22.7 0 0 0 4.2 1.8l.1 1.3c1 9.4 2.5 25.4 1.1 29s-1.7 10.7-1.8 14.6v.7l-3.7 6s-.8 5.3-1.7 6.1-9 15.3-10 17.2l-.1.2s-8 14.8 11.8 15.2 17.4-9.8 17.4-9.8l.3-4.4c.2-3 .7-6.7 1.4-7.6 1.4-1.7 5.4-9.7 5.4-9.7v-11.8h-1.2v-.6a44.3 44.3 0 0 1 1.1-7.3c.7-1.4-1.3-10.4-1.3-10.4s.4-17.2 2.4-28.1l.2-1.4a34 34 0 0 0 4.3-2.3s0-21.7 2.6-25.6 2-14.7 2-14.7.6-9.5 2.5-11.5 1.5-10.4 1.5-10.4 1.7-5.6 3.6-10 3-17 3-17a21.6 21.6 0 0 1 3-6.3c2.1-3 0-9.6 0-9.6s-2.3-4.2-.8-8.5 9.7-38.8 9.7-38.8l3.2-12.3 4.7 15.7s-.7 11.3 0 14.5 5 10 5 10v33.5s.5 22.6 2.2 26.2 2.5 17 2.5 17 5.7 39.5 2.1 45.3a34.5 34.5 0 0 0 5.9 3.2v23.2s-4.2 14-2.7 23.6v.6c-.3.3-.7.5-1 .4l.7 16s.1 9-1.6 13.6a19.3 19.3 0 0 0-1 5c-.3 6.4 2.1 15 16 14.2 18.6-1.2 15.7-13 15.7-13v-1.3a48.2 48.2 0 0 0-4.6-17.4c-4.5-8.7-3.8-19.6-3.8-19.6a6.9 6.9 0 0 1-1.2.3v-.7l1-8.7c.7-3.2 0-10.6 0-10.6l2.5-23.4v-1.3a19.1 19.1 0 0 0 3.4-2 24 24 0 0 1-1.2-6.5 5.7 5.7 0 0 1 1.2-4c2.7-2.9 4.6-37.6 4.6-37.6s1.5-12.2 1.5-16.4v-.7c-.1-2.5-1.4-12.2-1.4-18a11.3 11.3 0 0 1 .4-3.5c1.3-3.2 3-63.3 3-63.3l2.1-26.6v-22a129 129 0 0 0-3.8-31c5.8 3 15.7 9.8 17.5 8 2.2-2.2 3.4-40.6 2.7-44.5l-.1-.7-.7-2.8 1-1.5c4.3-7.5 11-19.5 11.4-23 .6-4 1.4-14.4 3-19a8.8 8.8 0 0 1 .4-1c.3-.8.8-1.2 1.2-1.1 2.8.6 4.5 2.7 6 2a.7.7 0 0 0 .1-.2 2.4 2.4 0 0 0 .4-.6 5 5 0 0 0 .3-.7l.3-.8v-.1l.1-.4a.7.7 0 0 0 0-.2v-.3l.1-.2v-.2l.6-3 .1-.8v-.4z" transform="translate(-142.3 -25.6)" fill="url(#da9b23d9-0e41-46fc-9133-b8e9e7730c16)"/>
  <path d="M559.5 490.8a3.4 3.4 0 0 0-.2-1.8c0 1.4.1 2 .2 1.8z" transform="translate(-142.3 -25.6)" fill="url(#9864eb82-b8e8-438f-a72c-0f0a4e60d74d)"/>
  <path d="M679.4 436.5s3.8-2.6.1-4.1-5.8-6.2-6-7.8-3-18.6 6.9-15 14.5 7.7 14.4 10.8-1.7 22.9-1.7 22.9z" transform="translate(-142.3 -25.6)" fill="#fbbebe"/>
  <path d="M703.4 450l-.1 1.2c-.3 2-1 6.1-2.1 6.7-1.4.8-3.2-1.3-5.9-1.9-.5-.1-.9.3-1.3 1.1a9.3 9.3 0 0 0-.4 1c-1.5 4.6-2.3 15-3 19a133 133 0 0 1-13.2 25.8l-2 3.3-11-20.6v-30.4a27 27 0 0 0 2-4.2 7.4 7.4 0 0 0 .5-3.4 1.7 1.7 0 0 0-.4-1 1.2 1.2 0 0 1-.2-.3 1.6 1.6 0 0 1-.1-.3 3.3 3.3 0 0 1-.2-.7v-.7c0-4.3 3-13.3 3-13.3s3.7 2 11.8 2.9 22.6 15.9 22.6 15.9z" transform="translate(-142.3 -25.6)" fill="#1595d3"/>
  <path d="M703.3 451.2c-.3 2-1 6.1-2.1 6.7-1.4.8-3.2-1.3-5.9-1.9-.5-.1-.9.3-1.3 1.1a9.3 9.3 0 0 0-.4 1c-5.5-2.6-15-7.4-15.6-8.8s-7.3-1.7-11-1.7h-.7a5 5 0 0 1-.2-2.3c.2-4.5 3-12.7 3-12.7s3.6 2 11.7 2.9c7.7.9 21 14.2 22.5 15.7z" transform="translate(-142.3 -25.6)" opacity=".1"/>
  <path d="M703.4 450s-.8 7.1-2.2 8-3.2-1.4-5.9-2c-.5-.1-.9.3-1.3 1.1-5.4-2.6-15.4-7.7-16-9s-8.1-1.8-11.7-1.8c-1.3-2.7 2.8-15 2.8-15s3.7 2 11.8 2.9 22.5 15.9 22.5 15.9zM676.4 549.2c-2.3 2.2-16.7-8.6-20.7-9.3s-18.4-61-18.4-61l2.2-34.1-8.5-31.3-1.1-4.1s.8-2.5 4.2 0 11.7 13.1 14 14 4.9 2.3 8.2 6.1 5 4.5 5 4.5 3.7 9.7 3.6 12 1.3 18.7 3 20.1 4.6 14.5 4.6 14.5 5.3 18.3 6.4 23.6l.1.7c.7 3.9-.4 42-2.6 44.3z" transform="translate(-142.3 -25.6)" fill="#1595d3"/>
  <path d="M651.5 473.3l10.5 2.8s2 18.2 2.8 19.1 3.3 38.2 3.3 38.2l-16.6-7.5-6.2-20v-22z" transform="translate(-142.3 -25.6)" opacity=".1"/>
  <path d="M573.3 767.8a35.4 35.4 0 0 0-1.5 6c-2 10.8-2.4 28-2.4 28s2 8.9 1.3 10.4a43.6 43.6 0 0 0-1 7.2l-.4 2.7L550 821v-3c.2-3.9.6-10.8 2-14.4s-.2-19.7-1.2-29l-.8-6.7s26.6-8.5 23.4 0zM649 773l-2.3 23.2s.6 7.4 0 10.6c-.4 1.8-.8 5.7-1 8.7l-.3 4s-14.9 10.5-18.3 1.3a16.1 16.1 0 0 1-.8-3.4C624.9 808 629 794 629 794V764l20.6 3.4z" transform="translate(-142.3 -25.6)" fill="#fbbebe"/>
  <path d="M573.3 767.8a35.4 35.4 0 0 0-1.5 6 29.6 29.6 0 0 1-21 .8l-.8-6.8s26.5-8.5 23.3 0zM649.6 767.4l-.5 5.6c-7.2 3.3-15 1.3-20-1v-8z" transform="translate(-142.3 -25.6)" opacity=".1"/>
  <path d="M566.8 506.2s-1.7 12.5-3.6 15-1 6.2-3 6.6-2.6 9.8-2.6 9.8l-1.6 20.6s-.4 4.2-2.8 5.3 0 6.8 0 6.8-2.5 4.9-1 7.6-3 15.5-3 15.5-1.9 24.6 0 28a27.8 27.8 0 0 1 3 10.8l1.1 41.8s-2.5 16.1-3.4 19.1 2.3 9.5.2 13-1.7 11-1.7 11-3.3 29.9-1.4 40.9-.6 13.4-.6 13.4a29.7 29.7 0 0 0 30-1.3s0-21.6 2.5-25.5S581 730 581 730s.6-9.6 2.5-11.5 1.5-10.3 1.5-10.3 1.7-5.6 3.6-10 3-17 3-17a21.4 21.4 0 0 1 3-6.2c2.1-3 0-9.5 0-9.5s-2.3-4.3-.8-8.5 9.7-38.6 9.7-38.6l3.2-12.3 4.7 15.7s-.7 11.2 0 14.4 5 10 5 10v33.3s.5 22.5 2.2 26 2.5 17 2.5 17 5.7 39.3 2.1 45c0 0 16.4 11.8 29.3 2.2 0 0-2.7-7.8 0-10.6s4.7-37.3 4.7-37.3 1.7-13.8 1.5-17-2.4-18.3-1-21.5 3-63 3-63l2-26.5v-21.7a127.5 127.5 0 0 0-4.8-34.7c-3.6-12.7-8.5-27.2-12.7-28 0 0-66 7.2-78.4-3.2z" transform="translate(-142.3 -25.6)" fill="#3f3d56"/>
  <path d="M569.6 819.3l-.3 2.8-19.4-1.3V818c9.2-8 18.3 1.4 18.3 1.4z" transform="translate(-142.3 -25.6)" opacity=".1"/>
  <path d="M570.8 820v11.8s-4 8-5.4 9.6c-.7 1-1.2 4.6-1.4 7.6l-.3 4.4s2.6 10.2-17.4 9.8-11.8-15.2-11.8-15.2v-.2c1-1.9 9.1-16.3 10-17s1.8-6.2 1.8-6.2l3.7-6c9.1-8.2 18.2 1.4 18.2 1.4z" transform="translate(-142.3 -25.6)" fill="#3f3d56"/>
  <path d="M563.7 853.4s2.6 10.2-17.4 9.7-11.8-15.1-11.8-15.1v-.2c.6 3 3 6.1 10.5 5.7a46 46 0 0 0 19-4.5l-.3 4.4zM645.7 815.5l-.3 4s-14.8 10.4-18.2 1.3a16.1 16.1 0 0 1-.9-3.4 8.1 8.1 0 0 0 .9-.7c2.4-3.6 15.3-3.7 16-2 .3 1 1.6 1 2.5.8z" transform="translate(-142.3 -25.6)" opacity=".1"/>
  <path d="M639.6 866.9c-14 .8-16.4-7.8-16-14a19 19 0 0 1 1-5.1c1.7-4.6 1.5-13.5 1.5-13.5l-.7-15.9c.6.2 1.8-1 1.8-1 2.5-3.7 15.4-3.8 16-2s3.6.5 3.6.5-.6 10.8 3.9 19.5a47.9 47.9 0 0 1 4.5 17.3l.1 1.3s2.8 11.7-15.7 12.9z" transform="translate(-142.3 -25.6)" fill="#3f3d56"/>
  <path d="M639.6 866.9c-14 .8-16.4-7.8-16-14 0 0 3.6 6.1 16.5 4.6a36.3 36.3 0 0 0 15.1-4.8l.1 1.2s2.8 11.8-15.7 13zM654 525c-2.9-8.3-6-15-8.8-15.6l-2.6.2c2.7 1.4 5.6 7.8 8.2 15.3a158.6 158.6 0 0 1 8.7 52.3v16.7l-2.1 26.5s-1.7 59.8-3 63 .9 18.2 1 21.4-1.4 17-1.4 17-2 34.6-4.7 37.3 0 10.7 0 10.7a19 19 0 0 1-10 3.7 19.5 19.5 0 0 0 13.2-3.7s-2.7-7.9 0-10.6 4.7-37.4 4.7-37.4 1.7-13.8 1.5-17-2.4-18.2-1-21.4 3-63 3-63l2-26.5v-16.7a158.6 158.6 0 0 0-8.7-52.3zM550.3 771.4s2.6-2.3.6-13.4 1.3-41 1.3-41-.4-7.6 1.7-11-1-10-.2-12.9 3.4-19 3.4-19l-1.1-41.9a27.8 27.8 0 0 0-3-10.8c-2-3.4 0-28 0-28s4.5-12.7 3-15.5 1-7.6 1-7.6-2.3-5.7 0-6.8 2.8-5.3 2.8-5.3l1.7-20.6s.6-9.3 2.5-9.7 1-4 3-6.6c1.4-2 2.8-9.4 3.3-13a13.2 13.2 0 0 1-3.5-2s-1.7 12.4-3.6 15-1 6.1-3 6.5-2.6 9.8-2.6 9.8l-1.6 20.6s-.4 4.2-2.8 5.3 0 6.8 0 6.8-2.5 4.9-1 7.6-3 15.5-3 15.5-1.9 24.6 0 28a27.8 27.8 0 0 1 3 10.8l1.1 41.8s-2.5 16.1-3.4 19.1 2.3 9.5.2 13-1.7 11-1.7 11-3.2 29.9-1.3 40.9-.6 13.4-.6 13.4a29.2 29.2 0 0 0 15.7 3.3 28.5 28.5 0 0 1-11.9-3.3z" transform="translate(-142.3 -25.6)" opacity=".1"/>
  <path d="M632.1 308.1c2.7 2.5 4.4 5.7 6.6 8.5s5.5 5.3 9.1 5.1a24.4 24.4 0 0 1 3.2-.2 6.8 6.8 0 0 1 3.4 1.5c4.4 3.2 6.5 8.7 7.4 14s1 10.8 2.5 16c.5 1.8 1.2 3.7 2.7 4.7 2 1.3 4.5 1 6.9.9 3.1 0 6.4.7 8.7 2.9s3.1 6 1.4 8.5a5.2 5.2 0 0 0-1.2 2 3.6 3.6 0 0 0 1 2.5l6.6 9c1.3 1.7 2.7 3.7 2.5 6a4.7 4.7 0 0 1-8.3 2.6c.7 2.2-1.4 4.5-3.7 4.8s-4.6-.7-6.7-1.7l-.1 3.8c-2 1-4-1-5.5-2.6s-4.7-2.5-5.4-.4a2.6 2.6 0 0 0 .6 2.5c2.7 3.3 9 2.4 10.8 6.3 1.2 2.5-.6 5.7-3.2 6.7s-5.6 0-7.8-1.6-4.5-4.4-7.4-4.4c-3.6 0-5.8 4.2-9.2 5.5-3.2 1.2-6.8-.4-9.3-2.7s-4.2-5.4-6.5-8c-6-6.5-14.9-9-23.3-11.8s-17.2-6.6-21.5-14.3c-1.3-2.4-2.2-5-3.8-7.2-2.8-3.7-7.6-5.4-10.6-8.8a13.7 13.7 0 0 1-2.1-14.6c1.4-3.1 4-5.5 6-8.3a27.6 27.6 0 0 0 5.5-16.2c0-2.2-.2-4.4.5-6.5 1-3.2 4.1-5.3 7.4-6.1s6.6-.6 10-.3c3.5.4 7.4 1.2 11 1 2.3 0 4.2-2 6.5-2.6 5.1-1.4 11.5-.3 15.3 3.5z" transform="translate(-142.3 -25.6)" fill="#3f3d56"/>
  <g opacity=".1">
    <path d="M660.1 334.4c1 5.4 1 10.9 2.5 16.1a10.1 10.1 0 0 0 1.6 3.6l-.4-1c-1.4-5.3-1.4-10.8-2.4-16.1a28.6 28.6 0 0 0-3.2-9.2 31.7 31.7 0 0 1 2 6.6zM682.3 367.5a5.1 5.1 0 0 0-1.2 2 3.6 3.6 0 0 0 1 2.6l.3.3a1.6 1.6 0 0 1 0-.3 5.2 5.2 0 0 1 1.1-2c1.6-2.3 1-5.5-.6-7.7a6.2 6.2 0 0 1-.6 5.1zM673.2 403.5a5.5 5.5 0 0 1-3.6 5.4c-2.6 1-5.6 0-7.8-1.6s-4.4-4.4-7.3-4.3c-3.6 0-5.8 4.2-9.2 5.5-3.2 1.2-6.8-.4-9.3-2.7s-4.2-5.4-6.5-8c-6-6.5-15-9-23.3-11.9s-17.2-6.5-21.5-14.2l1.3 2.5c4.3 7.7 13.1 11.5 21.5 14.3s17.3 5.4 23.2 11.9c2.3 2.5 4 5.6 6.5 8s6.2 3.8 9.4 2.6c3.4-1.3 5.5-5.5 9.2-5.5 2.9 0 5 2.6 7.3 4.4s5.2 2.5 7.8 1.6 4.4-4.2 3.2-6.7a4.7 4.7 0 0 0-1-1.3zM691 384.9a5.5 5.5 0 0 1 .2 2 4.7 4.7 0 0 1-8.3 2.7c.7 2.2-1.5 4.5-3.8 4.8s-4.5-.7-6.6-1.7l-.2 3.7c-1.9 1-4-1-5.4-2.5s-4.7-2.5-5.5-.4a2.6 2.6 0 0 0 .7 2.4 5.1 5.1 0 0 0 .5.6 1.8 1.8 0 0 1 .1-.5c.7-2 3.9-1.1 5.4.4s3.6 3.6 5.5 2.6l.2-3.8c2 1 4.3 2 6.6 1.8s4.5-2.6 3.8-4.8a4.7 4.7 0 0 0 8.3-2.7 7.5 7.5 0 0 0-1.6-4.6zM580.9 364.5c-2.8-3.7-7.6-5.4-10.7-8.8a11.6 11.6 0 0 1-1.1-1.6 12.7 12.7 0 0 0 2.4 4.1c3 3.4 7.8 5.2 10.7 8.8a13.6 13.6 0 0 1 1 1.7 22.6 22.6 0 0 0-2.3-4.2z" transform="translate(-142.3 -25.6)"/>
  </g>
  <path d="M599.8 362.4s2.3 25.9-8.3 33.7 22.7 29.3 22.7 29.3l25.3-5.5s-12.3-11.5-12.3-16.4 2-32.2 5.5-35.4-33-5.7-33-5.7z" transform="translate(-142.3 -25.6)" fill="#fbbebe"/>
  <path d="M592.4 362.4l-5.8 12.6-9.2 5.6c-.6.5-7.5 8.2-7.5 8.2l-16.8 10.9-1-1.9a50.4 50.4 0 0 0-4-6.3c-1.4-1.5 0-18.4 0-18.4s3.4-3.8 2.2-10.7-1.4-33.7-1.4-33.7-1.2-22.6.5-27.4-4-19.9-4-19.9-16.2-16-15-19.4 13.4 0 13.4 0 5 2.5 7.5 2.7l16 .1h7.6s5.2 18.3 4.6 20.2l-.4 1.1c-.5 1.5-.9 2.8-.3 3.7.8 1.1 2.6 14.7 2.6 14.7L583 319s2.7 11.4 2.6 13-4.2 5-2.4 8 2.4 12.2 2.4 12.2 3 6.8 5.8 9.4a4.9 4.9 0 0 0 1 .7z" transform="translate(-142.3 -25.6)" fill="#1595d3"/>
  <circle cx="476.9" cy="323.4" r="30.6" opacity=".1"/>
  <circle cx="476.9" cy="322.2" r="30.6" fill="#fbbebe"/>
  <path d="M651.5 473.3c-2.7 3-3.3 32-1.7 34.6s-8.2 7.6-14 7.4-21.4 4.7-21.4 4.7-31.4-8.5-38-4.2-15.9-7.7-13.1-12-3-10.1-3.8-12.4a18.7 18.7 0 0 1-.4-3c-.7-10.7-1.5-45-1.5-45v-39.2l28.8-20.4a138.4 138.4 0 0 1 13.4 7.8 65.6 65.6 0 0 1 8.7 6.6c7.8 7.5 27.3 15.3 27.3 15.3s21.5 25.7 24.2 28.2-5.7 28.7-8.5 31.6z" transform="translate(-142.3 -25.6)" fill="#fff"/>
  <path d="M557.6 443.4v-33.8s.9 61.6 1.5 78.7c-.7-10.7-1.5-44.9-1.5-44.9zM559.3 490.9a3.4 3.4 0 0 1 .2 1.7c0 .3-.2-.3-.2-1.7z" transform="translate(-142.3 -25.6)" opacity=".1"/>
  <path d="M600 402.5a25.9 25.9 0 0 0-4.6 6.5c-1.6 3.5-37.8.6-37.8.6v-5.4l28.8-20.4a138.4 138.4 0 0 1 13.4 7.8l.2 10.9zM559.3 488.3a3.4 3.4 0 0 1 .2 1.8c0 .3-.2-.4-.2-1.8zM592.4 362.4l-5.8 12.6-9.2 5.6c-.6.5-7.5 8.2-7.5 8.2l-16.8 10.9-1-1.9c4.5-5.6 9.2-11.5 12-13.6 5.4-4.1-.2-4.6 0-5.4s11.9-5 15-8c2.7-2.6 9.9-7.4 12.4-9a4.9 4.9 0 0 0 1 .6z" transform="translate(-142.3 -25.6)" opacity=".1"/>
  <path d="M592.4 362.4s-10 6.5-13.2 9.5-15 7.4-15.2 8.2 5.4 1.2 0 5.4-18.6 23.5-23.4 25-37.3 15-37.3 15-10.7 10-12.3 10 9.7 10.8 9.7 10.8 10.2 8.1 11.3 9.4 29 16.3 29 16.3 4.8 1.4 5.3 2.9 6.8 5.4 6.8 5.4 7.1 8.1 6.4 11-1.9-83-1.9-83 36.2 3 37.8-.6a25.9 25.9 0 0 1 4.6-6.5s0-29.4-2.1-31.6-5.4-4.5-5.5-7.2z" transform="translate(-142.3 -25.6)" fill="#1595d3"/>
  <path d="M508.2 432.2s9.5 10.4 14 12.1a12 12 0 0 1 6.2 6.4s5.3 3 8.1 3.5 7.2 4.8 7.2 4.8 10.6 3 10.6 5.2 4.3 5.3 4.3 5.3l-1-61.1s-17.7 2.2-22.8 9.7-26.6 14.1-26.6 14.1z" transform="translate(-142.3 -25.6)" opacity=".1"/>
  <path d="M529 438c.8-.5 22.5-28.5 22.5-28.5l4-.8s-10.3 15.5-10.1 16.7S529 438 529 438zM538.1 447.2s5.7-13.2 7.3-15.4 10.2-17.2 10.2-17.2a10 10 0 0 1 0 3.8c-.5 1.4-17.5 28.8-17.5 28.8zM576.5 348.7s-12.8 23.2-11.7 24.4 11.7-24.4 11.7-24.4zM581 358s-10.6 15.3-9.6 15 9.5-15 9.5-15z" transform="translate(-142.3 -25.6)" opacity=".1"/>
  <path d="M571.4 270.3l-20 1.4-.2-1.8c-.2-6.6-1.3-29.7-1.8-32.2-.6-3-1.3-8.5-1.3-8.5s-10.8-1.6-10.6-3.3-13.9-20.4-3.2-20c8.3.2 22.5 10 28.4 14.4a5.3 5.3 0 0 1 2.1 5 21.4 21.4 0 0 0-.2 3.7 53.3 53.3 0 0 1-.2 7.9c-.2 2.3-.1 4.9 1 6.7 1.4 2.6 3.6 13.6 5 20.7l1 6z" transform="translate(-142.3 -25.6)" fill="#fbbebe"/>
  <path d="M579.5 285.7l-.4 1c-4.3-4.2-31.6-7-31.6-7-2.4-2.8-.3-4 2.3-7.4 1.5-2 10.4-4.8 17.6-6.8h7.5s5.2 18.3 4.6 20.2z" transform="translate(-142.3 -25.6)" opacity=".1"/>
  <path d="M571.4 270.3l-20 1.4-.2-1.8c3.2-1.8 10.3-4 16.2-5.7h2.9l1 6z" transform="translate(-142.3 -25.6)" opacity=".1"/>
  <path d="M579.5 285l-.4 1.2c-4.3-4.4-31.6-7.1-31.6-7.1-2.4-2.8-.3-4 2.3-7.4 1.5-2 10.4-4.8 17.6-6.9h7.5s5.2 18.3 4.6 20.3z" transform="translate(-142.3 -25.6)" fill="#1595d3"/>
  <path d="M596.8 442.6s-2.2 42.8 0 44.8 0-44.8 0-44.8zM612.6 460.6s-.8 47 0 47.5 0-47.6 0-47.6zM631 466.1s3 32.5 5.7 33.7-5.7-33.7-5.7-33.7zM678.3 504.8a6.6 6.6 0 0 1-2.6-1c-2.7-1.8-5.7-20.5-9.7-23s-18.3-27.6-18.3-27.6-5.5-10-7.8-12.6-1-14-1-14-6-6.8-8.5-12.5a11.4 11.4 0 0 1-1.1-4.1s.8-2.5 4.2 0 11.7 13.1 14 14 4.8 2.3 8.2 6.1 5 4.5 5 4.5 3.7 9.7 3.6 12 1.2 18.7 3 20.1 4.6 14.5 4.6 14.5 5.3 18.4 6.4 23.6zM666 445.3v-.7a6.2 6.2 0 0 1 .2 1.4 3.3 3.3 0 0 1-.2-.7z" transform="translate(-142.3 -25.6)" opacity=".1"/>
  <path d="M679.2 500l-1.8 3c-2.6-2.8-5.6-20.5-9.5-23a18 18 0 0 1-3.5-3.9v-21a27 27 0 0 0 2-4.2c.5 5.7 1.6 14.1 2.8 15.2a62 62 0 0 1 4.6 14.4s3.5 12 5.4 19.4z" transform="translate(-142.3 -25.6)" opacity=".1"/>
  <path d="M679 504.2a6.3 6.3 0 0 1-2.6-1c-2.7-1.8-5.8-20.6-9.7-23.1s-18.3-27.5-18.3-27.5-5.6-10-7.8-12.6-1.1-14-1.1-14-6-6.8-8.5-12.6a11.5 11.5 0 0 1-1-4s.8-2.6 4.2 0 11.6 13 13.8 13.9 5 2.4 8.3 6.2 5 4.5 5 4.5 3.8 9.7 3.6 12 1.3 18.7 3 20 4.6 14.6 4.6 14.6 5.3 18.3 6.4 23.6z" transform="translate(-142.3 -25.6)" fill="#1595d3"/>
  <circle cx="504.1" cy="417" r="2.1" fill="#3f3d56"/>
  <circle cx="518.3" cy="436.3" r="2.1" fill="#3f3d56"/>
  <path d="M677 456.2s-10.3-4.7-8.8-2.2 8.8 2.2 8.8 2.2zM677 463.1s-10.5-2.9-8.3-1.2 8.3 1.2 8.3 1.2zM675.3 470.7s-7.2-5.2-5.4-3.3 5.4 3.3 5.4 3.3zM682.7 476.1s-7.3 14.4-3.8 15.3 3.8-15.3 3.8-15.3zM578.8 711.8s-16.8 15.9-11.9 15.7 11.9-15.7 11.9-15.7zM555.2 733.8c.9 0 17.9-1.7 13.4-2.5s-13.4 2.5-13.4 2.5zM637.8 709.2s18 .7 17.6 2.6-17.6-2.6-17.6-2.6zM634.8 716.4s10.4 7.9 12.7 5.3-12.7-5.3-12.7-5.3z" transform="translate(-142.3 -25.6)" opacity=".1"/>
  <path d="M585 604a5.3 5.3 0 0 1-.7 1.6 1.6 1.6 0 0 1-.4.5 28.6 28.6 0 0 1-8.5 4l-3.6-1c-2-.6-4.1-1.2-5-1.3s-1.2-1.4-1.3-2.7 0-2.2.5-2.4a1.3 1.3 0 0 0 .5-.6 8 8 0 0 0 .3-1v-.2l.7-3.9.2-1.6v-.5l1.4-.1h1.3c3.6-.2 9.8-.3 12.2.1 1 .2 1.7 1.2 2.2 2.6a11.7 11.7 0 0 1 .5 2.8 12.8 12.8 0 0 1-.3 3.7zM657.6 611.4a1.5 1.5 0 0 0 0 .2l-.1 4c0 1-22 6.9-27.6 6.4-3.6-.2-.9-2.7 1.1-5.3a8.4 8.4 0 0 0 1.6-2.7 2 2 0 0 0 0-1c0-.5-.2-.8-.3-1.2-.5-2.3-.2-3 .3-3.5a4.2 4.2 0 0 0 .7-1.4 5.5 5.5 0 0 0 .4-1.4 4.3 4.3 0 0 0-.9-3c-1.6-2.4 6.4-3.6 6.4-3.6h15.3c1.6 0 2.4 2.2 2.8 4.9a32 32 0 0 1 .3 5v2.6zM590.7 675.5s-17 4-15.3 3c.6-.4.8-1.8.7-3.4a22.3 22.3 0 0 0-.2-2.3l-.5-3.2s8.9-2 12-1a3.8 3.8 0 0 1 2.5 2.5 3.6 3.6 0 0 1 .1.3 14.6 14.6 0 0 1 .7 4.1z" transform="translate(-142.3 -25.6)" fill="#fbbebe"/>
  <path d="M603.6 339.3c2.3-.8 4.3-2.2 6.6-3.2s4.8-1.7 7.1-.7a11.4 11.4 0 0 1 3.1 2.2c2 1.7 4 3.5 5.9 5.4a34.5 34.5 0 0 0 6.1 5.5c5.3 3.2 12 2.5 18 1.5a11 11 0 0 0 3.6-1c2.6-1.5 3.7-5 3-8s-2.5-5.5-4.5-7.7a64 64 0 0 0-20.9-15.5c-8.4-3.8-18.4-5.8-26.8-1.9a29.1 29.1 0 0 0-7 4.8c-3 2.6-10.5 9.2-8.8 13.7 1.8 5 10.2 6.4 14.6 5z" transform="translate(-142.3 -25.6)" opacity=".1"/>
  <path d="M603.6 338.7c2.3-.8 4.3-2.2 6.6-3.2s4.8-1.7 7.1-.8a11.8 11.8 0 0 1 3.1 2.2l5.9 5.5a34.2 34.2 0 0 0 6.1 5.4c5.3 3.3 12 2.5 18 1.6a10.8 10.8 0 0 0 3.6-1c2.6-1.5 3.7-5 3-8s-2.5-5.5-4.5-7.8a63.9 63.9 0 0 0-20.9-15.4c-8.4-3.9-18.4-5.8-26.8-2a29.4 29.4 0 0 0-7 4.9c-3 2.6-10.5 9.2-8.8 13.6 1.8 5 10.2 6.4 14.6 5z" transform="translate(-142.3 -25.6)" fill="#3f3d56"/>
  <path d="M654 347a10.7 10.7 0 0 1-3.5 1c-6.1 1-12.8 1.7-18-1.5a34.5 34.5 0 0 1-6.2-5.5c-1.9-1.9-3.9-3.7-5.9-5.4a11.6 11.6 0 0 0-3.1-2.2c-2.3-1-4.9-.3-7.1.7s-4.3 2.4-6.6 3.2c-4.4 1.5-12.8.1-14.7-5a3.8 3.8 0 0 1-.2-.7 4.2 4.2 0 0 0 .2 2c2 5 10.3 6.4 14.7 5 2.3-.8 4.3-2.3 6.6-3.3s4.8-1.6 7.1-.7a11.4 11.4 0 0 1 3.1 2.2l5.9 5.4a34.5 34.5 0 0 0 6.1 5.5c5.3 3.2 12 2.5 18 1.6a11 11 0 0 0 3.6-1c2.3-1.3 3.4-4.2 3.2-7a6.7 6.7 0 0 1-3.2 5.8zM567.9 595.5a41.3 41.3 0 0 1-1.1 5.7 47.5 47.5 0 0 0 1-5.8z" transform="translate(-142.3 -25.6)" opacity=".1"/>
  <path d="M583.9 606.1c-2.1 1.5-7.7 4.3-8.5 4s-7-2-8.5-2.3-1.9-4.7-.9-5a1.3 1.3 0 0 0 .5-.8 8.6 8.6 0 0 1-.4 1c-1.2 2.4 1 4.6 1 4.6l8.8 2.3 8.3-4.6c2-2.7-.2-9-1.3-10s-14.8 0-14.8 0l-.3-.4 1.4-.1h1.3c3.6-.2 9.8-.3 12.2.1 3.3.6 3.3 9.8 1.2 11.2zM654.6 599h-15.4s-8 1.1-6.3 3.4.4 5.2-.2 5.9-1 1.4 0 4.6-8.3 8.7-2.8 9.1 27.6-5.5 27.6-6.3 1.2-16.8-3-16.8zm2 16.4c0 .8-20.7 6.4-26 6s3.4-5.6 2.6-8.6-.6-3.8 0-4.4 1.8-3.4.2-5.5 6-3.3 6-3.3H654c3.9 0 2.8 15 2.8 15.8zM587.5 668.5c-3.2-.8-12.1 1-12.1 1s1.7 8 0 9 15.3-3 15.3-3 0-6.1-3.2-7zm-11.8 9.8c1.6-1 0-8.6 0-8.6s8.6-1.9 11.6-1 3.1 6.7 3.1 6.7-16.4 4-14.8 2.9z" transform="translate(-142.3 -25.6)" opacity=".1"/>
  <path d="M657.6 608.8l-25.2 3 25.1-5.4.1 2.4z" transform="translate(-142.3 -25.6)" opacity=".1"/>
  <path fill="#3f3d56" d="M489.8 585.6l26.3-5.6.5 2.4-26.8 3.2z"/>
  <path d="M657.6 611.4a1.5 1.5 0 0 0 0 .2l-26.6 5.1a8.4 8.4 0 0 0 1.6-2.7z" transform="translate(-142.3 -25.6)" opacity=".1"/>
  <path fill="#3f3d56" d="M485.8 588.2l32-3.3-31.1 6-.9-2.7z"/>
  <path d="M657.3 603.8l-23.6 1.7a5.5 5.5 0 0 1-.3 1.4l23.9-3z" transform="translate(-142.3 -25.6)" opacity=".1"/>
  <path fill="#3f3d56" d="M489.8 579.3l26.8-1.9-27.2 3.4.4-1.5z"/>
  <path d="M585.3 600.3l-18.5.6.7-3.8 17.3.3a11.7 11.7 0 0 1 .5 2.9z" transform="translate(-142.3 -25.6)" opacity=".1"/>
  <path fill="#3f3d56" d="M423.1 570.8l25.2.5-3 2.7-22.2.7v-4z"/>
  <path d="M585 604a5.3 5.3 0 0 1-.7 1.6l-12.5 3.5c-2-.6-4.1-1.2-5-1.3s-1.2-1.4-1.3-2.7z" transform="translate(-142.3 -25.6)" opacity=".1"/>
  <path fill="#3f3d56" d="M419.8 579.1l29.4-1.7-27 7.5-2.4-5.8z"/>
  <path d="M590 671.4l-13.9 3.7a22.3 22.3 0 0 0-.2-2.3l14-1.7a3.6 3.6 0 0 1 .1.3z" transform="translate(-142.3 -25.6)" opacity=".1"/>
  <path d="M572.7 672.6c.6-.2 19.9-2.5 19.9-2.5l-19.9 5.3z" transform="translate(-142.3 -25.6)" fill="#3f3d56"/>
  <circle cx="744" cy="95.3" r="21.6" fill="#1595d3"/>
  <circle cx="840.1" cy="148.3" r="17" fill="#1595d3"/>
  <circle cx="744" cy="95.3" r="21.6" opacity=".4"/>
  <circle cx="840.1" cy="148.3" r="17" opacity=".4"/>
  <circle cx="131.6" cy="148.3" r="54.6" fill="#1595d3"/>
  <circle cx="131.6" cy="148.3" r="54.6" opacity=".4"/>
  <circle cx="835" cy="72.3" r="6" fill="#1595d3"/>
  <circle cx="835" cy="72.3" r="6" opacity=".4"/>
  <path d="M461 788s6.2 8.1-2.9 20.4-16.6 22.6-13.5 30.3c0 0 13.7-22.8 24.8-23.1s3.9-13.9-8.4-27.6z" transform="translate(-142.3 -25.6)" fill="#1595d3"/>
  <path d="M461 788a10 10 0 0 1 1.3 2.5c10.9 12.8 16.7 24.8 6.2 25-9.8.3-21.4 17.8-24.3 22.2a9.2 9.2 0 0 0 .4 1s13.7-22.8 24.8-23.2 3.9-13.8-8.4-27.5z" transform="translate(-142.3 -25.6)" opacity=".1"/>
  <path d="M472.5 798.4c0 2.8-.3 5.2-.7 5.2s-.7-2.4-.7-5.2.4-1.5.8-1.5.6-1.4.6 1.5z" transform="translate(-142.3 -25.6)" fill="#ffd037"/>
  <path d="M476.5 801.8c-2.5 1.4-4.7 2.2-4.9 1.8s1.7-1.7 4.2-3 1.5-.4 1.7 0 1.5-.2-1 1.2z" transform="translate(-142.3 -25.6)" fill="#ffd037"/>
  <path d="M428.1 788s-6.2 8.1 2.9 20.4 16.6 22.6 13.6 30.3c0 0-13.8-22.8-25-23.1s-3.8-13.9 8.5-27.6z" transform="translate(-142.3 -25.6)" fill="#1595d3"/>
  <path d="M428.1 788a10 10 0 0 0-1.2 2.5c-11 12.8-16.7 24.8-6.3 25 9.8.3 21.5 17.8 24.3 22.2a9.2 9.2 0 0 1-.3 1s-13.8-22.8-25-23.2-3.8-13.8 8.5-27.5z" transform="translate(-142.3 -25.6)" opacity=".1"/>
  <path d="M416.6 798.4c0 2.8.3 5.2.7 5.2s.7-2.4.7-5.2-.4-1.5-.8-1.5-.6-1.4-.6 1.5z" transform="translate(-142.3 -25.6)" fill="#ffd037"/>
  <path d="M412.6 801.8c2.5 1.4 4.7 2.2 4.9 1.8s-1.7-1.7-4.2-3-1.5-.4-1.7 0-1.5-.2 1 1.2z" transform="translate(-142.3 -25.6)" fill="#ffd037"/>
  <path d="M418.6 837.6s17.3-.5 22.6-4.2 26.7-8.2 28-2.2 26.1 29.7 6.5 29.9-45.6-3-50.8-6.2-6.3-17.3-6.3-17.3z" transform="translate(-142.3 -25.6)" fill="#a8a8a8"/>
  <path d="M476 859c-19.6.2-45.5-3-50.8-6.2-4-2.5-5.5-11.2-6-15.2h-.6s1 14 6.3 17.2 31.2 6.4 50.8 6.3c5.7 0 7.6-2.1 7.5-5-.8 1.8-3 2.9-7.1 2.9z" transform="translate(-142.3 -25.6)" opacity=".2"/>
  <path d="M672.2 824.6s-11.1-37.7 2-65.5a59.6 59.6 0 0 0 5-37.4 100.3 100.3 0 0 0-5.4-17.6" fill="none" stroke="#535461" stroke-miterlimit="10" stroke-width="2"/>
  <path d="M824.4 712.2c0 4.6-8.4 18-8.4 18s-8.4-13.4-8.4-18a8.4 8.4 0 0 1 16.8 0zM838.2 737.8c-2.5 3.9-16.8 10.6-16.8 10.6s.2-15.8 2.7-19.7a8.4 8.4 0 0 1 14.1 9.1zM837.6 781.6c-4.1 2-19.9.6-19.9.6s8.2-13.5 12.3-15.6a8.4 8.4 0 1 1 7.6 15zM829.7 814.6c-3.7 2.8-19.5 4-19.5 4s5.8-14.7 9.5-17.4a8.4 8.4 0 1 1 10 13.4zM803.8 749.3c3.3 3.2 18.8 6.6 18.8 6.6s-3.8-15.4-7.1-18.6a8.4 8.4 0 1 0-11.7 12zM795 788c4.1 2 19.9.6 19.9.6s-8.2-13.5-12.4-15.6a8.4 8.4 0 0 0-7.5 15zM791.7 826.8c3.7 2.8 19.4 4 19.4 4s-5.8-14.7-9.5-17.4a8.4 8.4 0 0 0-10 13.5z" transform="translate(-142.3 -25.6)" fill="#1595d3"/>
  <path d="M824.4 712.2c0 4.6-8.4 18-8.4 18s-8.4-13.4-8.4-18a8.4 8.4 0 0 1 16.8 0zM838.2 737.8c-2.5 3.9-16.8 10.6-16.8 10.6s.2-15.8 2.7-19.7a8.4 8.4 0 0 1 14.1 9.1zM837.6 781.6c-4.1 2-19.9.6-19.9.6s8.2-13.5 12.3-15.6a8.4 8.4 0 1 1 7.6 15zM829.7 814.6c-3.7 2.8-19.5 4-19.5 4s5.8-14.7 9.5-17.4a8.4 8.4 0 1 1 10 13.4zM803.8 749.3c3.3 3.2 18.8 6.6 18.8 6.6s-3.8-15.4-7.1-18.6a8.4 8.4 0 1 0-11.7 12zM795 788c4.1 2 19.9.6 19.9.6s-8.2-13.5-12.4-15.6a8.4 8.4 0 0 0-7.5 15zM791.7 826.8c3.7 2.8 19.4 4 19.4 4s-5.8-14.7-9.5-17.4a8.4 8.4 0 0 0-10 13.5z" transform="translate(-142.3 -25.6)" fill="#1595d3"/>
  <path d="M788.3 847.8s13.5-2.7 17.1-6.3 19.9-9.8 21.7-5.3 24.3 19.7 9 22.4-36.1 3.5-40.6 1.7-7.2-12.5-7.2-12.5z" transform="translate(-142.3 -25.6)" fill="#a8a8a8"/>
  <path d="M836 856.9c-15.2 2.7-36 3.6-40.5 1.8-3.4-1.4-5.8-8-6.8-11h-.4s2.7 10.8 7.2 12.6 25.3 1 40.6-1.8c4.4-.8 5.7-2.6 5.2-4.9-.4 1.6-2 2.7-5.2 3.3z" transform="translate(-142.3 -25.6)" opacity=".2"/>
  <path d="M311.6 111.4v.3a1.1 1.1 0 0 0 0 .2v1.8l-.1.7v.5a1.9 1.9 0 0 0 0 .2v.1a.5.5 0 0 1 0 .2l-.1.2c-.1.1 0 .2 0 .2v.2l-.1.3a1.6 1.6 0 0 1-.1.2 2.5 2.5 0 0 1 0 .3l-.1.3-.2.4c0 .3-.1.7-.3 1v.3l-.1.2a21.8 21.8 0 0 1-3 5.3l-.2.3a22.1 22.1 0 0 1-1.9 2.2L274 158l-31.2-31.2a22.2 22.2 0 0 1-2.4-3 21.5 21.5 0 0 1-1.3-2 22.1 22.1 0 0 1-2.7-12.4l.2-1.3.4-2v-.5l.1-.2v-.1l.1-.3c0-.3.2-.5.3-.7v-.4l.6-1.4.1-.2.2-.4.3-.7.2-.3a2.7 2.7 0 0 1 .2-.3l.2-.4a2 2 0 0 0 .1-.2.4.4 0 0 0 0-.1l.2-.3.2-.2.4-.6.1-.2.2-.3.2-.3.2-.3.3-.2v-.1l.2-.2a3.5 3.5 0 0 1 .2-.3 1.5 1.5 0 0 1 .1-.1l.2-.2.2-.3.6-.6.3-.2.3-.4.3-.2.3-.3.2-.1.2-.2.4-.3.2-.2 1-.7.2-.2.2-.1.2-.1.3-.2.1-.1.2-.1.9-.5.2-.1.2-.1.3-.1.2-.1.2-.2h.2l.3-.2.9-.3.2-.1.2-.1h.3l.1-.1.5-.2.3-.2H252.3l.3-.1.4-.1 1.3-.3h1.1l1.2-.1h4.4l.4.1h1l1.2.3.5.1h.4l.4.2h.2l.9.4h.2l.3.2.4.1.4.2.2.1.3.1.2.1.2.1.3.2h.2l.5.4h.2l.8.5.2.2.2.1.2.2h.1l.9.7.2.1.4.4.2.1.2.2.3.3.2.2.4.3.2.3.3-.3.4-.3a2.7 2.7 0 0 1 .2-.2l.3-.3.2-.2.2-.1.4-.4.2-.1 1-.8.2-.1.2-.1.2-.2.3-.1.1-.1.3-.2.8-.4.2-.1.3-.2h.2l.2-.2.2-.1.3-.1.2-.1.9-.4h.2l.3-.1.2-.1h.2l.4-.2h.2l.2-.1h.2l.3-.1.4-.1 1.2-.3h1.1l1.3-.1H292.2l.4.2h1l1.2.2.5.2h.4l.4.1h.2l.9.4h.2l.3.2.4.2.4.2h.2l.3.2h.2l.2.2.3.1.2.1.5.3.2.1.8.5.2.1.2.1.2.2h.1l.9.7a1.6 1.6 0 0 1 .2.2l.4.3.2.2.2.1.2.3.3.2.1.1.3.3.2.2.3.2.3.4a2.2 2.2 0 0 1 .2.3l.4.3.3.5 1.2 1.5a1.5 1.5 0 0 1 .2.2 1.9 1.9 0 0 1 .2.2v.2l.3.4.2.3.1.2.1.2v.1l.2.3.1.2.8 1.7.1.3.3.7a2 2 0 0 1 0 .2l.2.3v.3l.1.2v.2l.2.4.1.5v.3l.2.3a1 1 0 0 0 0 .2v2.9a1.3 1.3 0 0 1 0 .2 1.3 1.3 0 0 1 0 .2v.7z" transform="translate(-142.3 -25.6)" fill="#ff6584"/>
  <path d="M311.6 111.4v.3a1.1 1.1 0 0 0 0 .2v1.8l-.1.7v.5a1.9 1.9 0 0 0 0 .2v.1a.5.5 0 0 1 0 .2l-.1.2c-.1.1 0 .2 0 .2v.2l-.1.3a1.6 1.6 0 0 1-.1.2 2.5 2.5 0 0 1 0 .3l-.1.3-.2.4c0 .3-.1.7-.3 1v.3l-.1.2a22 22 0 0 0-5.9-20.8 22.4 22.4 0 0 0-3.8-3l-1.2-.7a22 22 0 0 0-23.6 1.3 21.2 21.2 0 0 0-2.9 2.4 24.2 24.2 0 0 0-2.7-2.3 23 23 0 0 0-2.3-1.4 22 22 0 0 0-21.2 0 22.8 22.8 0 0 0-3.1 2 22.4 22.4 0 0 0-4.3 4.6c-.4.6-.9 1.3-1.2 2a20.8 20.8 0 0 0-1 1.8l-.4 1v-.3l.2-.2v-.5l.3-.7v-.3l.6-1.4.1-.3.2-.4.3-.7.2-.3a2.7 2.7 0 0 1 .2-.3l.2-.4a2 2 0 0 0 .1-.2.4.4 0 0 0 0-.1l.2-.3.2-.2.4-.6.2-.2.1-.3.2-.2.3-.3.2-.3v-.1l.2-.2a3.5 3.5 0 0 1 .3-.3 1.5 1.5 0 0 1 0-.1l.2-.2.3-.2.6-.7.2-.2.4-.3.2-.3.3-.2.2-.2.2-.2.4-.3.2-.1 1-.8.2-.1.2-.2.2-.1.3-.2h.1l.3-.2.8-.5h.2l.3-.2.2-.1.2-.1.2-.1.3-.1.2-.1.9-.4h.2l.3-.2h.2l.2-.1.4-.1.3-.2H252.3l.3-.1.4-.1 1.3-.3h1.1l1.2-.1h4.4l.4.1h1l1.2.3.5.1h.4l.4.2h.2l.9.4h.2l.3.2.4.1.4.2.2.1.3.1.2.1.2.1.3.2h.2l.5.4h.2l.8.5.2.2.2.1.2.2h.1l.9.7.2.1.4.4.2.1.2.2.3.3.2.2.4.3.2.3.3-.3.4-.3a2.7 2.7 0 0 1 .2-.2l.3-.3.2-.2.2-.1.4-.4.2-.1 1-.8.2-.1.2-.1.2-.2.3-.1.1-.1.3-.2.8-.4.2-.1.3-.2h.2l.2-.2.2-.1.3-.1.2-.1.9-.4h.2l.3-.1.2-.1h.2l.4-.2h.2l.2-.1h.2l.3-.1.4-.1 1.2-.3h1.1l1.3-.1H292.2l.4.2h1l1.2.2.5.2h.4l.4.1h.2l.9.4h.2l.3.2.4.2.4.2h.2l.3.2h.2l.2.2.3.1.2.1.5.3.2.1.8.5.2.1.2.1.2.2h.1l.9.7a1.6 1.6 0 0 1 .2.2l.4.3.2.2.2.1.2.3.3.2.1.1.3.3.2.2.3.2.3.4a2.2 2.2 0 0 1 .2.3l.4.3.3.5 1.2 1.5a1.5 1.5 0 0 1 .2.2 1.9 1.9 0 0 1 .2.2v.2l.3.4.2.3.1.2.1.2v.1l.2.3.1.2.8 1.7.1.3.3.7a2 2 0 0 1 0 .2l.2.3v.3l.1.2v.2l.2.4.1.5v.3l.2.3a1 1 0 0 0 0 .2v2.9a1.3 1.3 0 0 1 0 .2 1.3 1.3 0 0 1 0 .2v.7z" transform="translate(-142.3 -25.6)" opacity=".1"/>
</svg>
