<svg data-name="Layer 1" xmlns="http://www.w3.org/2000/svg" width="938" height="604" viewBox="0 0 938 604">
  <path d="M680.6 566.7l-4.9-60.6-14 64s.3 16.2.7 33.9h17.9c.6-20.2.3-37.3.3-37.3zM430 588.2a123.3 123.3 0 0 1-3-17.2l-1.9-21c-.8-5.7-1.6-10.8-2.5-15.2-6.2-31.9-12.6-33-12.6-33l-.8.7a20.6 20.6 0 0 0-2.1 2.2c-10.2 13-17.1 46.6-20.8 69-2 12.3-3 21.1-3 21.1l2.2 9.2H432a82.8 82.8 0 0 0-2-15.8z" fill="#f2f2f2"/>
  <path d="M796.2 0H141.8C63.8 0 0 63.8 0 141.8v320.4C0 540.2 63.8 604 141.8 604h207.4l-2.7-12.6s-6.9-44.4 0-79a260 260 0 0 0 4.6-33 198.4 198.4 0 0 1 6-37l.7-2c-1.7-.5-2.5-.9-2.1-1.1 1-.6 1.7-2.6 2-5A241.7 241.7 0 0 1 368 386c-7 4.4-11.6 4.9-14.6 3.2-10.6-3-6.2-26.8-6.2-26.8s6.6-51.7 8.8-70.4c1.2-10.8 17.4-16.9 31.7-20.2 1.5-3.2 2.6-6.5 2-9.9l-.3-.7c-1.8-4-5.5-7.3-6.9-11.5a12.2 12.2 0 0 1-1.2-3.6c-1.3-7.2 5.4-13.4 7.4-20.3a16.7 16.7 0 0 1-4.3-6.9c-3-6-1.5-13.3 8-18.9l5.9-3a9.2 9.2 0 0 1 2.4-1.1c6.7-3 13.5-6 17.6-12 1-1.5 2-3.3 3.6-4.1a7 7 0 0 1 2.5-.6c13-1 24.9 10.2 37.9 8.6 4-.5 8-2.1 11.7-1 2.5.8 4.4 2.7 6 4.7a48 48 0 0 1 10.5 39.5c-1.6 8.6-5.6 17.4-2.8 25.6 2.2 6 7.8 11 7.9 17.4 0 5.2-3.7 9.4-7.3 13.5l1.3 1.5c8.9 10 7.2 18.6 6 22L491 355l-3.8 29.3s-1 12-9.9 14.7c-2.6 1.2-6 1.5-10.4.2l-7.5-2.6a98 98 0 0 1 4.8 31.4c-.7 17.3 1.6 18.8 1.6 18.8a3.1 3.1 0 0 1-.5.5 71 71 0 0 1-.3 61.3c-10.7 23.3.8 77.5.8 77.5s.8 8.5 1.1 17.9h164.3c-2.6-25-5.7-49.9-7.1-52.7-2.3-4.6.6-80.3 1.7-106.6a46.3 46.3 0 0 1-3.5-1 15.5 15.5 0 0 0 .4 3.9c1 2.2-1.4 4-5.3 5 2.3 11.2 5.1 32-4.5 36-9.8 4.2-10-21-9.5-34.1h-3.7c-11.8 0 3.5-137.1 2.8-146.2-.7-9 5.6-46 5.6-46s2-7.6 8.3-9 36.2-18.8 36.2-18.8a22.4 22.4 0 0 1 6.3-5.9v-1a23 23 0 0 1 2.5-2c-.4-6.1-1.2-14-1.8-19.3a24.3 24.3 0 0 1-6.5-12.5 38.4 38.4 0 0 1-3.7-3.2 19 19 0 0 1-4.7-11.9 37.5 37.5 0 0 1 2-12.8 15.3 15.3 0 0 1 1.5-3.9 14.1 14.1 0 0 1 3.7-3.6l1.3-.9a12.2 12.2 0 0 1 3.9-4.5c3.6-2.3 8.1-2.1 12.4-2h.2l2.3-.3a2.4 2.4 0 0 0 2-1.9l1.7 1.7h2.6a18.5 18.5 0 0 1 1.3-2.5l1 2.7c.8 0 1.7.2 2.5.4l2-1.7c.2 0 .8 1.7 1 2.3l1.4.4 2-.2a13.1 13.1 0 0 1 7 1.8 15 15 0 0 1 4.4 5.1 33.3 33.3 0 0 1 5 14.3 16.6 16.6 0 0 1 2.7 6.2c1.2 7-5.5 12.8-6.8 19.8-.7 3.7.1 7.8-1.8 11a11.6 11.6 0 0 1-3.2 3.4 24 24 0 0 1-2.3 1.6 60.5 60.5 0 0 0 1.4 12.5l1 3.4 4.5 3.5s19.5 8.4 26.4 12.6c6.2 3.6 12.8 4 14.8 8.9l.5.1s7 77.3 7.7 90.5 9 94.7 7.7 98.2c-.5 1.3-3.8 2.8-7.8 4 2.3 10.5 6 33.5-4 37.8-10.3 4.3-10.1-23.2-9.5-35.8-1.4-.1-2.3-.5-2.4-1.1l-1-7-2.7.4h-.6C739.4 471 719.9 544.7 716 559c-2 7.5-4 26.2-6 45h86.1c78 0 141.8-63.8 141.8-141.8V141.8C938 63.8 874.2 0 796.2 0z" fill="#f2f2f2"/>
  <ellipse cx="210" cy="169" rx="95" ry="86.5" fill="#3f3d56"/>
  <path d="M366.5 451.5s32-22 32-32 22-75 34-46-17 70-17 70-32 58-51 68-35 4-35 4v-27l18.3-27a22.6 22.6 0 0 1 18.7-10z" fill="#ffb9b9"/>
  <path d="M275.5 298.3s48 15.2 53 22.2 7-5 21 41S367 452 367 452s-34.5 11.5-30.5 56.5-6 94-6 94H318l-27.5-85 33-129s-47-79.3-48-90.2z" fill="#575a89"/>
  <circle cx="259.5" cy="196.5" r="60" fill="#ffb9b9"/>
  <path d="M282.5 241.5s-17 56-2 64 32 44 32 44l-26 29h-60l-27-30-11-51 15-12s16-40 16-61 63 17 63 17z" fill="#ffb9b9"/>
  <path d="M287.5 303.5s-12-3-5 9 14 34-11 35-50-12-58-39-11-25-14-24-35 34-35 34l11 62 4 222h146s6-64-4-79 9-53 9-53 17-26 4-76-42-91-47-91z" fill="#1595d3"/>
  <path d="M206.5 284.5s-15-7-28 5-42 22-42 28 25 177 8 207-35 78-35 78h83.4s13.6-50 27.6-77 13-103 9-126-23-115-23-115z" fill="#575a89"/>
  <path fill="#ffb9b9" d="M118.5 549.5l4.9 53h54l-4.9-66-54 13z"/>
  <path fill="#3f3d56" d="M364.5 521.5l13 81h289l25-163-327 82z"/>
  <path fill="#3f3d56" d="M702.5 428.5l3 15-374 90v-13l371-92z"/>
  <path fill="#3f3d56" d="M544.5 455.5l-2 17 22-3-9-17-11 3z"/>
  <path d="M423.5 283.5s44-3 56 31 40 95 51 104 23 33 21 41" fill="none" stroke="#3f3d56" stroke-miterlimit="10" stroke-width="5"/>
  <path d="M430 283c0 4.7-5 8.5-13 8.5s-12-3.8-12-8.5 4-8.5 12-8.5 13 3.8 13 8.5z" fill="#1595d3"/>
  <path d="M356 439s7.5-31.5-6.5-77.5-16-34-21-41-53-22.2-53-22.2c.4 3.6 5.7 14.6 12.6 27.7a53.2 53.2 0 0 0-5.6-13.5c-7-12 5-9 5-9 5 0 34 41 47 91s-4 76-4 76z" fill="#575a89"/>
  <path d="M276 298s6 22.5 11 25.7 34.9 34.4 34.9 34.4L318 333l-16-24-4.3-3z" fill="#575a89"/>
  <path d="M143 367l1.4-51.5s-32.9 14-35.9 74 5 173 16 174 63-11 63-11 8-145 5-164S143 367 143 367z" opacity=".1"/>
  <path d="M145.5 315.5h-8.1s-32.9 14-35.9 74 5 173 16 174 63-11 63-11 8-145 5-164-40-73-40-73z" fill="#575a89"/>
  <ellipse cx="188" cy="180.5" rx="62" ry="69.5" fill="#3f3d56"/>
  <ellipse cx="232.5" cy="218.5" rx="12.5" ry="18.5" fill="#ffb9b9"/>
  <circle cx="126" cy="111" r="51" fill="#3f3d56"/>
  <path d="M132.6 151.9a51 51 0 0 1-73.9-40.7 51 51 0 1 0 101.2 2.9 51 51 0 0 1-27.3 37.8z" fill="#3f3d56"/>
  <path d="M98 119.4a51 51 0 0 1 25.7-80.3 51 51 0 1 0 16.6 99.9A51 51 0 0 1 98 119.4z" fill="#3f3d56"/>
  <ellipse cx="263" cy="150" rx="36" ry="26" fill="#3f3d56"/>
</svg>
