<?xml version="1.0" encoding="utf-8"?>
<!-- Generator: Adobe Illustrator 23.0.4, SVG Export Plug-In . SVG Version: 6.00 Build 0)  -->
<svg version="1.1" id="Layer_1" xmlns="http://www.w3.org/2000/svg" xmlns:xlink="http://www.w3.org/1999/xlink" x="0px" y="0px"
	 viewBox="0 0 2316.857 1400" enable-background="new 0 0 2316.857 1400" xml:space="preserve" width="248" height="150">
<g>
	<rect x="0" opacity="0.25" fill="none" width="2316.857" height="1400"/>
	<g>
		<path fill="#FA0A1E" d="M1300.97,324.013L988.165,659.457c-7.616,8.167-18.282,12.805-29.45,12.805H629.729
			c-17.6,0-26.728-20.993-14.725-33.865l80.087-85.883c7.616-8.167,18.282-12.805,29.45-12.805H929.28
			c11.167,0,21.833-4.638,29.45-12.805l127.191-136.396H677.175c-22.335,0-43.667,9.275-58.899,25.61L398.182,652.139
			c-60.017,64.36-14.377,169.324,73.624,169.324h534.275c22.335,0,43.667-9.275,58.899-25.61l312.805-335.444
			c7.616-8.167,18.282-12.805,29.45-12.805h329.152c17.6,0,26.728,20.993,14.725,33.865l-80.087,85.883
			c-7.616,8.167-18.282,12.805-29.45,12.805h-204.904c-11.167,0-21.833,4.638-29.45,12.805L1280.03,729.357h408.911
			c22.335,0,43.667-9.275,58.899-25.61l220.093-236.021c60.017-64.36,14.377-169.324-73.624-169.324H1359.87
			C1337.535,298.402,1316.203,307.678,1300.97,324.013z"/>
		<path fill="#B3B3B3" d="M868.368,1068.626h-51.617c-2.675,0-4.843-2.168-4.843-4.843v-86.157c0-2.675-2.169-4.843-4.845-4.843
			h-25.396c-2.675,0-4.843,2.168-4.843,4.843v116.902c0,2.675,2.168,4.843,4.843,4.843h86.701c2.675,0,4.843-2.168,4.843-4.843
			v-21.055C873.211,1070.797,871.043,1068.626,868.368,1068.626z M685.412,974.835c-0.759-1.792-2.515-2.958-4.462-2.958h-27.394
			c-1.947,0-3.704,1.166-4.462,2.958l-49.796,117.804c-1.35,3.194,0.995,6.731,4.46,6.731h26.309c1.98,0,3.761-1.207,4.497-3.046
			l6.605-16.514c0.735-1.841,2.516-3.046,4.497-3.046h42.293c1.969,0,3.742,1.191,4.485,3.013l6.763,16.577
			c0.744,1.825,2.516,3.016,4.485,3.016h27.054c3.467,0,5.812-3.537,4.462-6.731L685.412,974.835z M673.987,1049.459h-14.156
			c-3.422,0-5.765-3.452-4.503-6.632l7.124-17.943c1.622-4.083,7.408-4.072,9.011,0.022l7.034,17.941
			C679.741,1046.023,677.399,1049.459,673.987,1049.459z M557.123,1069.531h-58.308c-2.675,0-4.845-2.171-4.845-4.843v-10.386
			c0-2.676,2.169-4.843,4.845-4.843h51.073c2.675,0,4.845-2.171,4.845-4.846v-17.979c0-2.675-2.169-4.846-4.845-4.846h-51.073
			c-2.675,0-4.845-2.168-4.845-4.843v-9.481c0-2.675,2.169-4.843,4.845-4.843h57.405c2.674,0,4.843-2.168,4.843-4.843v-20.152
			c0-2.675-2.169-4.843-4.843-4.843h-92.127c-2.675,0-4.843,2.168-4.843,4.843v116.902c0,2.675,2.168,4.843,4.843,4.843h93.03
			c2.674,0,4.843-2.168,4.843-4.843v-20.152C561.967,1071.699,559.797,1069.531,557.123,1069.531z M347.261,972.782h-43.982
			c-2.675,0-4.845,2.168-4.845,4.843v116.902c0,2.675,2.169,4.843,4.845,4.843h43.257c45.573,0,72.155-27.125,72.155-63.656v-0.362
			C418.691,998.823,392.472,972.782,347.261,972.782z M382.705,1036.257c0,20.435-13.926,32.009-34.903,32.009h-9.442
			c-2.675,0-4.845-2.171-4.845-4.846v-54.689c0-2.675,2.169-4.846,4.845-4.846h9.442c20.977,0,34.903,11.755,34.903,32.009V1036.257
			z M1011.67,1069.531h-58.308c-2.675,0-4.845-2.171-4.845-4.843v-10.386c0-2.676,2.169-4.843,4.845-4.843h51.073
			c2.675,0,4.845-2.171,4.845-4.846v-17.979c0-2.675-2.169-4.846-4.845-4.846h-51.073c-2.675,0-4.845-2.168-4.845-4.843v-9.481
			c0-2.675,2.169-4.843,4.845-4.843h57.403c2.675,0,4.845-2.168,4.845-4.843v-20.152c0-2.675-2.169-4.843-4.845-4.843H918.64
			c-2.675,0-4.843,2.168-4.843,4.843v116.902c0,2.675,2.168,4.843,4.843,4.843h93.03c2.674,0,4.843-2.168,4.843-4.843v-20.152
			C1016.513,1071.699,1014.344,1069.531,1011.67,1069.531z M1864.486,1073.294c-1.795-1.759-4.665-1.88-6.545-0.211
			c-10.956,9.717-21.811,15.257-37.607,15.257c-27.851,0-49.007-22.968-49.007-52.444c0-29.476,20.975-52.082,49.007-52.082
			c15.369,0,26.542,5.79,36.365,14.261c1.957,1.688,4.902,1.506,6.664-0.384l3.158-3.394c1.88-2.02,1.694-5.203-0.395-7.003
			c-11.681-10.057-24.894-16.681-45.611-16.681c-39.673,0-67.45,33.428-63.675,72.769c3.529,36.781,38.369,62.91,74.892,57.301
			c14.59-2.239,25.4-8.729,35.194-17.809c2.042-1.893,2.117-5.109,0.129-7.06L1864.486,1073.294z M2014.411,972.782h-6.387
			c-1.604,0-3.104,0.793-4.005,2.121l-37.577,55.257c-1.928,2.835-6.107,2.826-8.022-0.014l-37.239-55.229
			c-0.9-1.334-2.405-2.135-4.016-2.135h-7.107c-3.252,0-5.168,3.647-3.326,6.325l47.421,68.93c0.556,0.807,0.853,1.764,0.853,2.744
			v43.745c0,2.675,2.169,4.843,4.843,4.843h4.78c2.674,0,4.843-2.168,4.843-4.843v-43.921c0-0.982,0.299-1.943,0.856-2.75
			l47.405-68.746C2019.581,976.432,2017.663,972.782,2014.411,972.782z M1696.065,972.782h-4.6c-2.676,0-4.843,2.168-4.843,4.843
			v116.902c0,2.675,2.168,4.843,4.843,4.843h4.6c2.675,0,4.845-2.168,4.845-4.843V977.625
			C1700.91,974.95,1698.741,972.782,1696.065,972.782z M1282.696,972.782h-42.537c-2.676,0-4.845,2.168-4.845,4.843v116.902
			c0,2.675,2.169,4.843,4.845,4.843h4.598c2.676,0,4.843-2.168,4.843-4.843v-34.981c0-2.675,2.169-4.843,4.845-4.843h25.9
			c26.945,0,49.73-14.107,49.73-41.594C1330.074,987.973,1311.268,972.782,1282.696,972.782z M1280.886,1041.682h-26.442
			c-2.675,0-4.845-2.168-4.845-4.843v-46.012c0-2.675,2.169-4.843,4.845-4.843h27.165c20.436,0,33.999,9.404,33.999,27.668
			C1315.608,1030.47,1301.864,1041.682,1280.886,1041.682z M1123.281,972.782h-55.014c-2.675,0-4.845,2.168-4.845,4.843v116.902
			c0,2.675,2.169,4.843,4.845,4.843h25.395c2.674,0,4.843-2.168,4.843-4.843v-28.651c0-2.675,2.168-4.843,4.843-4.843h7.933
			c1.622,0,3.135,0.809,4.034,2.16l22.622,34.015c0.897,1.35,2.412,2.162,4.032,2.162h28.727c3.895,0,6.197-4.366,3.998-7.579
			l-21.859-31.938c-1.615-2.36-0.825-5.573,1.678-6.953c12.978-7.154,21.209-19.244,21.209-36.534v-0.362
			c0-12.48-3.795-22.243-11.211-29.477C1156.013,977.845,1142.629,972.782,1123.281,972.782z M1140.46,1018.534
			c0,9.223-6.872,15.01-18.808,15.01h-18.304c-2.676,0-4.843-2.168-4.843-4.843v-20.693c0-2.675,2.168-4.843,4.843-4.843h18.123
			c11.754,0,18.989,5.063,18.989,15.007V1018.534z M1432.81,970.612c-38.517,0-64.74,30.563-64.74,65.646
			c0,35.083,25.86,65.284,64.379,65.284s64.742-30.563,64.742-65.646C1497.191,1000.812,1471.33,970.612,1432.81,970.612z
			 M1432.81,1088.339c-28.935,0-49.91-23.508-49.91-52.444c0-28.933,20.615-52.082,49.549-52.082s49.913,23.508,49.913,52.444
			C1482.362,1065.19,1461.745,1088.339,1432.81,1088.339z M1629.135,1086.169h-61.564c-2.675,0-4.845-2.168-4.845-4.843v-103.7
			c0-2.675-2.169-4.843-4.843-4.843h-4.598c-2.675,0-4.845,2.168-4.845,4.843v116.902c0,2.675,2.169,4.843,4.845,4.843h75.849
			c2.675,0,4.843-2.168,4.843-4.843v-3.515C1633.978,1088.336,1631.81,1086.169,1629.135,1086.169z"/>
	</g>
</g>
</svg>
