<svg xmlns="http://www.w3.org/2000/svg" viewBox="0 0 2316.857 1400" width="248" height="150"><path opacity=".25" fill="none" d="M0 0h2316.857v1400H0z"/><path fill="#FA0A1E" d="M1300.97 324.013L988.165 659.457a40.2683 40.2683 0 0 1-29.45 12.805H629.729c-17.6 0-26.728-20.993-14.725-33.865l80.087-85.883a40.2683 40.2683 0 0 1 29.45-12.805H929.28c11.167 0 21.833-4.638 29.45-12.805l127.191-136.396H677.175c-22.335 0-43.667 9.275-58.899 25.61L398.182 652.139c-60.017 64.36-14.377 169.324 73.624 169.324h534.275c22.335 0 43.667-9.275 58.899-25.61l312.805-335.444a40.2683 40.2683 0 0 1 29.45-12.805h329.152c17.6 0 26.728 20.993 14.725 33.865l-80.087 85.883a40.2683 40.2683 0 0 1-29.45 12.805h-204.904c-11.167 0-21.833 4.638-29.45 12.805L1280.03 729.357h408.911c22.335 0 43.667-9.275 58.899-25.61l220.093-236.021c60.017-64.36 14.377-169.324-73.624-169.324H1359.87c-22.335 0-43.667 9.276-58.9 25.611z"/><path fill="#B3B3B3" d="M868.368 1068.626h-51.617c-2.675 0-4.843-2.168-4.843-4.843v-86.157c0-2.675-2.169-4.843-4.845-4.843h-25.396c-2.675 0-4.843 2.168-4.843 4.843v116.902c0 2.675 2.168 4.843 4.843 4.843h86.701c2.675 0 4.843-2.168 4.843-4.843v-21.055c0-2.676-2.168-4.847-4.843-4.847zm-182.956-93.791c-.759-1.792-2.515-2.958-4.462-2.958h-27.394c-1.947 0-3.704 1.166-4.462 2.958l-49.796 117.804c-1.35 3.194.995 6.731 4.46 6.731h26.309c1.98 0 3.761-1.207 4.497-3.046l6.605-16.514c.735-1.841 2.516-3.046 4.497-3.046h42.293c1.969 0 3.742 1.191 4.485 3.013l6.763 16.577a4.8421 4.8421 0 0 0 4.485 3.016h27.054c3.467 0 5.812-3.537 4.462-6.731l-49.796-117.804zm-11.425 74.624h-14.156c-3.422 0-5.765-3.452-4.503-6.632l7.124-17.943c1.622-4.083 7.408-4.072 9.011.022l7.034 17.941c1.244 3.176-1.098 6.612-4.51 6.612zm-116.864 20.072h-58.308c-2.675 0-4.845-2.171-4.845-4.843v-10.386c0-2.676 2.169-4.843 4.845-4.843h51.073c2.675 0 4.845-2.171 4.845-4.846v-17.979c0-2.675-2.169-4.846-4.845-4.846h-51.073c-2.675 0-4.845-2.168-4.845-4.843v-9.481c0-2.675 2.169-4.843 4.845-4.843h57.405c2.674 0 4.843-2.168 4.843-4.843v-20.152c0-2.675-2.169-4.843-4.843-4.843h-92.127c-2.675 0-4.843 2.168-4.843 4.843v116.902c0 2.675 2.168 4.843 4.843 4.843h93.03c2.674 0 4.843-2.168 4.843-4.843v-20.152c.001-2.677-2.169-4.845-4.843-4.845zm-209.862-96.749h-43.982c-2.675 0-4.845 2.168-4.845 4.843v116.902c0 2.675 2.169 4.843 4.845 4.843h43.257c45.573 0 72.155-27.125 72.155-63.656v-.362c0-36.529-26.219-62.57-71.43-62.57zm35.444 63.475c0 20.435-13.926 32.009-34.903 32.009h-9.442c-2.675 0-4.845-2.171-4.845-4.846v-54.689c0-2.675 2.169-4.846 4.845-4.846h9.442c20.977 0 34.903 11.755 34.903 32.009v.363zm628.965 33.274h-58.308c-2.675 0-4.845-2.171-4.845-4.843v-10.386c0-2.676 2.169-4.843 4.845-4.843h51.073c2.675 0 4.845-2.171 4.845-4.846v-17.979c0-2.675-2.169-4.846-4.845-4.846h-51.073c-2.675 0-4.845-2.168-4.845-4.843v-9.481c0-2.675 2.169-4.843 4.845-4.843h57.403c2.675 0 4.845-2.168 4.845-4.843v-20.152c0-2.675-2.169-4.843-4.845-4.843H918.64c-2.675 0-4.843 2.168-4.843 4.843v116.902c0 2.675 2.168 4.843 4.843 4.843h93.03c2.674 0 4.843-2.168 4.843-4.843v-20.152c0-2.677-2.169-4.845-4.843-4.845zm852.816 3.763c-1.795-1.759-4.665-1.88-6.545-.211-10.956 9.717-21.811 15.257-37.607 15.257-27.851 0-49.007-22.968-49.007-52.444 0-29.476 20.975-52.082 49.007-52.082 15.369 0 26.542 5.79 36.365 14.261 1.957 1.688 4.902 1.506 6.664-.384l3.158-3.394c1.88-2.02 1.694-5.203-.395-7.003-11.681-10.057-24.894-16.681-45.611-16.681-39.673 0-67.45 33.428-63.675 72.769 3.529 36.781 38.369 62.91 74.892 57.301 14.59-2.239 25.4-8.729 35.194-17.809 2.042-1.893 2.117-5.109.129-7.06l-2.569-2.52zm149.925-100.512h-6.387a4.838 4.838 0 0 0-4.005 2.121l-37.577 55.257c-1.928 2.835-6.107 2.826-8.022-.014l-37.239-55.229a4.845 4.845 0 0 0-4.016-2.135h-7.107c-3.252 0-5.168 3.647-3.326 6.325l47.421 68.93c.556.807.853 1.764.853 2.744v43.745c0 2.675 2.169 4.843 4.843 4.843h4.78c2.674 0 4.843-2.168 4.843-4.843v-43.921c0-.982.299-1.943.856-2.75l47.405-68.746c1.848-2.677-.07-6.327-3.322-6.327zm-318.346 0h-4.6c-2.676 0-4.843 2.168-4.843 4.843v116.902c0 2.675 2.168 4.843 4.843 4.843h4.6c2.675 0 4.845-2.168 4.845-4.843V977.625c0-2.675-2.169-4.843-4.845-4.843zm-413.369 0h-42.537c-2.676 0-4.845 2.168-4.845 4.843v116.902c0 2.675 2.169 4.843 4.845 4.843h4.598c2.676 0 4.843-2.168 4.843-4.843v-34.981c0-2.675 2.169-4.843 4.845-4.843h25.9c26.945 0 49.73-14.107 49.73-41.594-.001-25.136-18.807-40.327-47.379-40.327zm-1.81 68.9h-26.442c-2.675 0-4.845-2.168-4.845-4.843v-46.012c0-2.675 2.169-4.843 4.845-4.843h27.165c20.436 0 33.999 9.404 33.999 27.668 0 16.818-13.744 28.03-34.722 28.03zm-157.605-68.9h-55.014c-2.675 0-4.845 2.168-4.845 4.843v116.902c0 2.675 2.169 4.843 4.845 4.843h25.395c2.674 0 4.843-2.168 4.843-4.843v-28.651c0-2.675 2.168-4.843 4.843-4.843h7.933c1.622 0 3.135.809 4.034 2.16l22.622 34.015a4.8431 4.8431 0 0 0 4.032 2.162h28.727c3.895 0 6.197-4.366 3.998-7.579l-21.859-31.938c-1.615-2.36-.825-5.573 1.678-6.953 12.978-7.154 21.209-19.244 21.209-36.534v-.362c0-12.48-3.795-22.243-11.211-29.477-8.498-8.682-21.882-13.745-41.23-13.745zm17.179 45.752c0 9.223-6.872 15.01-18.808 15.01h-18.304c-2.676 0-4.843-2.168-4.843-4.843v-20.693c0-2.675 2.168-4.843 4.843-4.843h18.123c11.754 0 18.989 5.063 18.989 15.007v.362zm292.35-47.922c-38.517 0-64.74 30.563-64.74 65.646s25.86 65.284 64.379 65.284 64.742-30.563 64.742-65.646c0-35.084-25.861-65.284-64.381-65.284zm0 117.727c-28.935 0-49.91-23.508-49.91-52.444 0-28.933 20.615-52.082 49.549-52.082s49.913 23.508 49.913 52.444c0 28.933-20.617 52.082-49.552 52.082zm196.325-2.17h-61.564c-2.675 0-4.845-2.168-4.845-4.843v-103.7c0-2.675-2.169-4.843-4.843-4.843h-4.598c-2.675 0-4.845 2.168-4.845 4.843v116.902c0 2.675 2.169 4.843 4.845 4.843h75.849c2.675 0 4.843-2.168 4.843-4.843v-3.515c.001-2.677-2.167-4.844-4.842-4.844z"/></svg>