<svg xmlns="http://www.w3.org/2000/svg" width="400" height="140.4" viewBox="0 0 0 0 400 140.4">
  <g fill-rule="evenodd">
    <path d="M60.5 57c-.1 29.9 0 27.5-1.2 29.9-2.4 4.8-8.4 7-15 5.2-5.2-1.4-8-6.4-8-14.5v-1.1H24l.2 2.8c.6 16 8 23.7 23.6 24.1C62 104 71 98 72.7 87.1l.1-29.1V30H60.5v27m-17.3-2.3c-9.5.8-16 6.4-18.4 15.6l-.4 1.7c0 .3.3.3 6.2.3H37l.5-1c1.7-3.5 3.7-4.1 13.2-4.3h5.6v-6.3l.1-6.2h-5.8l-7.3.2m33.8 6v6l9.6.3c10.8.2 11.5.2 14 1.4 3.9 1.8 5.8 6.8 5 12.9-.8 7-4.3 9.5-13.1 9.8l-3 .1v12h4.4c7.6-.3 11.4-1.3 15.4-4.4 11.5-8.7 11.1-32.1-.7-40.5-4.7-3.3-6.2-3.6-20.6-3.7l-11-.1v6.1" fill="#fbfbfb"/>
    <path d="M63.8.2a76.5 76.5 0 0 0-29.6 9.6l-1 .7-.2.2-1.6 1-1.8 1.1-.8.6-1.7 1.3-2.4 1.9A80.2 80.2 0 0 0 9.4 35a74.6 74.6 0 0 0-6.6 15.4C1.8 53.8.7 59 .2 63.6 0 65.6 0 75 .2 76.8a96.4 96.4 0 0 0 4 17.8l.7 1.8a66 66 0 0 0 11.8 19.5 67.4 67.4 0 0 0 17 14.3 70.6 70.6 0 0 0 101.9-34 45.5 45.5 0 0 0 3.2-10.1l.4-2.4.5-3 .4-3.6a70.3 70.3 0 0 0-57-76c-.2 0-1.1 0-2-.3-4-.7-13-1-17.3-.6M317.2 37a190.8 190.8 0 0 1-.4 17.1l-.6-1-.5-1-.5-.8a287.7 287.7 0 0 1-2.8-4 26.9 26.9 0 0 0-2-3l-.6-.7-.5-.7-.1-.3-.7-.9a13.9 13.9 0 0 0-1.4-1.8 18 18 0 0 0-2.1-3l-.3-.6c-.2-.1-.7-.9-1.2-1.6a22.3 22.3 0 0 0-1.7-2.3 24.6 24.6 0 0 0-2.2-3 48 48 0 0 0-3.6-5.2 54.3 54.3 0 0 1-2.6-3.7l-.7-1h-4.4v42.2h4.4V44 26.6l.5.9a58.4 58.4 0 0 0 4.9 7.4l1.3 1.8a104.3 104.3 0 0 0 5.4 7.5 102.7 102.7 0 0 0 3.5 5 427.2 427.2 0 0 0 8.7 12.3c0 .1 1 .2 2.3.2h2.2V19.3H317.2V37M169.8 21.4v2h10.5v13c0 16.8-.1 17.9-2.4 20l-.7.6c-1.3 1.4-5 1.8-7.4 1-3.2-1.4-4.8-4.3-4.8-9.2V48H160.7v1.9a20.5 20.5 0 0 0 .4 4.2c.3 2 2.9 5.7 4.7 6.6l1.1.6a15 15 0 0 0 9.7.7c3.6-1.2 5.9-3.4 7.3-7l.5-1.4v-17l.1-17.1h-14.7v2m39.3-.6l-.6 1.5-.3.9-.7 2a339 339 0 0 0-5.6 15.1 227 227 0 0 1-3.4 9.2 387 387 0 0 1-4.3 11.9c0 .1.7.2 2.3.1h2.4l.5-1.5a46.5 46.5 0 0 1 1.3-3.9 120.2 120.2 0 0 0 2.5-6.6l.4-1.2h16.6l.3.8a519 519 0 0 1 4 11l.6 1.5h2.3c1.2 0 2.3-.1 2.3-.2l-1-2.8a33.7 33.7 0 0 1-1.5-4.2 251 251 0 0 1-2.4-6.3 868.8 868.8 0 0 0-8.3-22.8l-.5-1.3-.5-1.3-.6-1.8-.7-1.5H209.6l-.4 1.4M240 40.6v21H244.3V42.6h24.2v19.2H272.8V19.5H268.5v19.2h-24.2V19.5H240v21m97.2 0v21.2h25v-3.9h-20.9V42.5h16v-4h-16V23.3H361v-3.8h-23.8v21m37.6 0v21.2h24v-3.9h-19.6V19.5h-4.4v21M212.2 25.5a36.5 36.5 0 0 0 2.3 6.9 152 152 0 0 0 3.7 10.2l.5 1.7.1.5h-7l-7-.1.5-1.3.5-1.4.6-1.5a9.3 9.3 0 0 0 .7-2.2c.2-.1.5-1 1-2.5l.8-2.2c1.9-5 1.9-5 2.6-7.6.4-1.5.6-1.6.7-.5M72.8 58l-.1 29C71 98 62 104 47.7 103.5c-15.5-.4-23-8.1-23.6-24.1l-.2-2.8h12.4v1c0 8.2 2.8 13.2 8 14.6 6.6 1.7 12.6-.4 15-5.2 1.2-2.4 1.1 0 1.2-30V30h12.3v28m-16.5 2.7V67l-5.7.1c-9.5.2-11.5.8-13.2 4.3l-.5 1h-6.3c-6 0-6.3 0-6.2-.3l.4-1.7a19.4 19.4 0 0 1 13.3-14.6c3.3-1 4.7-1.1 12.4-1.2h5.8v6.2m43.8-5.9a20 20 0 0 1 14.8 11c4.2 8.5 3.5 22-1.7 29-4.2 5.8-9.5 8-19.3 8.3l-4.4.1v-12h3c8.8-.4 12.3-3 13.2-10 .7-6-1.2-11-5.1-12.8-2.5-1.2-3.2-1.3-14-1.4l-9.6-.2V54.5h11l12 .3m77 19.6c-1.6.2-4.6 1.1-6 1.9a15.3 15.3 0 0 0-3.7 2.4 16.9 16.9 0 0 0-5.3 6.5c-.3.1-.4.4-1.3 2.7a26 26 0 0 0 .3 17 18.1 18.1 0 0 0 2.3 4.3 20 20 0 0 0 25.5 6.6l1-.5.8-.5c.2 0 2-1.3 2.5-1.9l.5-.5v4.6h4V96.8h-11.3v3.9h7.2v7l-.8.8c-1 1-1.4 1.3-3 2.3a16 16 0 0 1-18.2.2l-.6-.3a28 28 0 0 1-3.8-4 20 20 0 0 1-2.3-4.8 22.2 22.2 0 0 1 .5-13.4 19.6 19.6 0 0 1 3.4-5.3 24.2 24.2 0 0 1 3.3-2.6l1.2-.7c4.8-2.7 15-1.8 19 1.7l.4.2.4.3c.3.3 1.2-.2 1.2-.6l.5-.8c.2-.3.5-.6.5-.8 0-.1 0-.2.2-.3.4-.2.3-.7-.3-1.1a19.4 19.4 0 0 0-7-3.4c-2.3-.8-8.3-1.1-11.2-.7m90 0a22.5 22.5 0 0 0-13.9 8.7l-.2.5s0 .3-.2.4c-.4.3-1.9 3.5-2.4 5.2-2.2 6.9-.2 16.7 4.3 21.1l.5.6.9 1 1.1 1c1.1 1 4.2 2.8 6.4 3.7a22.4 22.4 0 0 0 18.5-1.8c2.1-1 7.1-6 7.1-7l.2-.3c.6-.6 1.7-3.2 2.4-5.5l.6-2v-3.8c.2-3.8.1-4-.3-5.5a15.4 15.4 0 0 0-1.7-5l-.6-1-.6-1a20 20 0 0 0-6.3-6.2A20.4 20.4 0 0 0 277 75c-2.4-.7-7-1-10.1-.5M211.2 96V117H215.5V99.3h10.3l.5 1a36.8 36.8 0 0 0 2.1 4 93.2 93.2 0 0 0 3.7 6.8l.6 1.1.1.4 1.9 3.4.5 1h5.1l-.2-.5-.3-.6-2-3.8a369.1 369.1 0 0 0-7.3-13.1c-.3-.5-.1-.7.8-1 2.9-1.1 5.1-3.7 6.3-7.5 1.3-4-.3-10.2-3.2-12.8-3-2.6-3.9-2.7-14.6-2.8h-8.6v21m93.6-6.3c0 17.2 0 16.8 1.5 20 2.8 6.1 11 9.6 18.4 8l2.2-.6a15.5 15.5 0 0 0 8.1-6.2l.4-.8c.3-.4.7-1.4 1-2.3l.5-1.6V90.5l.1-15.7h-4.2v14c0 14.5 0 15.8-.7 17.4l-.3 1-.4.8-.7 1.2c-.2.5-2.2 2.5-2.4 2.5l-1 .5-1.3.7-1.7.4c-5.8 1.7-12.2-1-14.1-6-1-2.3-1-1.2-1-17.4v-15h-4.4v14.7M352 96V117H356.3v-16.5h6.2a99.9 99.9 0 0 0 8.5-.5 8 8 0 0 0 1.8-.7 6 6 0 0 1 1-.5c1.2 0 4.2-3.6 5.3-6.3l.6-1.6v-3.2c0-3.5 0-3.1-1-5.8a12 12 0 0 0-7.7-6.6c-1.2-.3-1.6-.4-10.1-.4H352v21m-78.3-17.4a17.6 17.6 0 0 1 7 2.9c1 .8 3 2.7 3.4 3.3a21.3 21.3 0 0 1 2.3 4 19.2 19.2 0 0 1-2.7 18.8c-.5.6-1.3 1.5-2 2l-1 1-.2.2a18.2 18.2 0 0 1-7.8 3c-2.7.4-6.4-.3-9-1.6a18.4 18.4 0 0 1-6.8-26.5 20.6 20.6 0 0 1 7-6l1-.4c2.2-1 5.7-1.2 8.8-.7m-47.5.3c3.6.5 5.7 2 6.8 5 1.3 3.9 0 8.3-2.9 10.2-2 1.3-2.3 1.4-8.8 1.5h-5.8V78.7h4.6l6.1.1m143.4.5c6.8 2.3 8 11.7 2 15.9-1.8 1.2-3.9 1.5-10.1 1.5h-5.2v-18h11.8l1.5.6" fill="#545454"/>
  </g>
</svg>
