<?xml version="1.0" encoding="UTF-8"?>
<svg width="331px" height="106px" viewBox="0 0 331 106" version="1.1" xmlns="http://www.w3.org/2000/svg" xmlns:xlink="http://www.w3.org/1999/xlink">
    <!-- Generator: Sketch 54.1 (76490) - https://sketchapp.com -->
    <title>Group</title>
    <desc>Created with Sketch.</desc>
    <defs>
        <path d="M29.8407811,10.9960393 C30.1637858,13.2655507 29.6689165,15.5958699 28.5825134,17.5905477 C27.3368283,20.0842693 25.3582394,22.135711 24.2786457,24.7201952 C23.678822,26.2008517 23.4125134,28.1860938 24.7556031,29.3484826 C26.3300661,30.5926475 28.425748,30.7070741 30.3427559,30.7048275 C31.3268693,30.6455174 32.3155717,30.7048275 33.2819213,30.9020787 C30.3942709,32.3947171 27.8533102,34.5764614 25.9592472,37.2461664 C22.2455811,35.7917201 18.1304535,32.2230772 17.4440315,28.6734554 C17.1158457,27.2594478 17.4317449,25.7554266 18.1118016,24.4974826 C20.2609228,20.5571029 24.5658268,18.2824992 26.2741102,14.0419743 C27.222548,11.6325749 27.3846425,8.96856127 27.1093039,6.40968835 C26.9421764,4.85025113 26.4807622,3.3487761 26.1203055,1.83067625 C27.8953512,4.61450832 29.4209638,7.66913011 29.8407811,10.9960393 Z M47.1025858,29.9316989 C50.2004409,30.264944 52.5229071,30.5256989 54.0699843,30.714413 C55.9701165,30.8900968 58.0822299,30.7981362 59.7200504,29.6848729 C61.222274,28.7484917 61.4897669,26.7247579 61.1371559,25.1134992 C60.437411,21.9516399 58.4370614,19.3446899 57.1964094,16.4098865 C56.4448535,14.710112 56.0368787,12.8445386 56.0607118,10.9815113 C56.2993386,6.81137973 58.5821323,3.14433585 61.1170236,0 C60.0021984,2.61354009 59.1957228,5.40905446 59.2385039,8.28110287 C59.1633039,10.6016868 59.7523213,12.9330545 60.9294677,14.9244372 C62.5313165,17.6258941 64.8472693,19.7889168 66.5309795,22.432112 C67.4736441,23.8745764 68.229937,25.5220802 68.2992157,27.2787685 C68.4839591,29.2132375 67.7349197,31.0955855 66.7620567,32.715531 C65.9674236,33.9749728 64.5306299,36.1544705 61.0319055,38.1245855 C61.1645417,38.3269289 61.302063,38.5262769 61.4376598,38.7283207 C62.8396661,38.775649 64.2671339,38.7199334 65.6436787,39.0527292 C68.032611,39.6319017 70.2051213,40.9627852 71.9285039,42.7230681 C73.2445039,44.027292 74.1948661,45.6410968 75.110885,47.244118 C71.9536693,49.5949561 67.8906488,50.4067262 64.0370929,50.1596006 C63.8376945,53.6852587 64.0209575,57.3022784 65.2339276,60.6464115 C65.964611,62.5976551 67.1171843,64.5132526 68.9133984,65.6209743 C72.2296,67.714053 75.2259055,70.2825113 78.1179969,72.9318472 C82.9336094,66.8793676 85.9000126,59.3406899 86.559937,51.59218 C86.8340913,47.6553949 86.7794677,43.6485159 85.9216252,39.7821241 C84.3816535,32.0018623 80.4570425,24.7260363 74.8500535,19.194767 C71.1618488,15.3739062 66.5978898,12.4939198 61.7445291,10.450416 C61.4742236,8.99492133 61.5577134,7.51890772 61.7372756,6.060118 C69.6095906,8.62962481 76.7074047,13.4773298 82.1971528,19.7296067 C88.2199622,26.6266566 92.2499717,35.3163404 93.496989,44.4530968 C94.7305354,52.8964039 93.690022,61.6686127 90.4331811,69.5429319 C85.5277134,81.6652648 75.4808157,91.536059 63.3309827,96.0207141 C59.6679433,97.4329244 55.8143874,98.3001104 51.9192346,98.7086914 C44.1318898,99.6127216 36.1291591,98.3931195 28.9067024,95.3187277 C20.1718079,91.6352088 12.5831213,85.2015567 7.48402835,77.1175552 C-0.312494488,65.0316172 -2.1540063,49.2464342 2.60298583,35.6371543 C5.85908661,26.1279123 12.1715937,17.7184539 20.374611,12.0472965 C21.8307969,11.0514554 23.2957165,10.042584 24.8917921,9.28907564 C24.8331717,11.0023298 24.4243087,12.7089939 23.5793449,14.2019319 C22.7351213,15.6345113 21.5838803,16.852466 20.3688378,17.9657292 C13.4237921,24.2674312 8.75310236,33.1268079 7.59105512,42.5174297 C6.5560189,50.0703359 7.69245669,57.9184448 10.8893449,64.8234327 C14.006,71.6807927 19.0706016,77.6330741 25.3388472,81.7137912 C27.7831433,79.9509622 30.0683055,77.8586324 31.6158268,75.2227761 C34.225326,71.0713661 34.775263,65.6994554 33.2090898,61.053944 C32.9226488,59.9713843 31.8073795,59.5455794 30.8747811,59.1934629 C26.4042299,57.7535446 21.6425008,58.046351 17.0202173,57.9978245 C16.046022,58.0791513 15.181222,57.4499546 14.5680756,56.7482678 C13.286863,55.0726067 12.882589,52.8661498 13.0150772,50.7923918 C13.0779906,49.7917579 13.5254898,48.6873313 14.5131559,48.3169425 C16.9882425,47.3152602 19.1591244,45.7296127 21.3883307,44.278761 C22.2448409,43.6726293 23.1821764,43.1404856 23.8765921,42.3323101 C25.8532567,39.660059 27.9344315,37.011472 30.5418583,34.939062 C32.0747244,33.6083283 33.6040378,32.2388033 35.390926,31.2636309 C36.509748,30.6381785 37.8060598,30.534236 39.0230268,30.2212103 C39.8342394,30.0124266 42.5275244,29.9159728 47.1025858,29.9316989 Z" id="path-1"></path>
        <path d="M5.376,5.26352273 C3.79123077,5.73379545 2.73446154,6.28743182 1.07446154,7 C1.09015385,6.38463636 1.08076923,5.90975 1.04646154,5.57518182 C0.999538462,5.11572727 0.862615385,4.45422727 0.636,3.59052273 C0.417384615,3.24847727 0.205384615,2.91597727 0,2.59334091 C2.81230769,1.52138636 5.74692308,0.719409091 8.776,0.217 C8.99276923,0.181045455 9.74415385,0.0342045455 9.962,0.00127272727 C10.2732308,-0.0458181818 8.604,1.24520455 7.52646154,2.54784091 C6.49892308,3.79002273 5.53630769,5.21595455 5.376,5.26352273 Z" id="path-3"></path>
        <path d="M18.3701189,25.3110943 L15.8693405,34.8508679 L17.2366486,47.9805283 L15.8569297,48 L14.0911135,34.7255849 L16.4662703,26.3320755 L14.5256432,27.3521509 L12.3428541,33.9824906 L12.8603243,47.9975849 L11.3943351,47.9975849 L10.6908541,33.6404528 L12.4359351,28.1942642 L9.79803243,29.3673962 L6.74921081,28.7301132 L3.70477838,31.6661132 L0.68652973,30.9402264 L0,30.4889057 L0.599351351,29.5260377 L5.57245405,21.4327547 L5.92207568,20.3011321 L9.61777297,15.0144906 C10.9198486,13.5186415 12.2761081,12.4523774 13.6998703,11.8015094 C14.8704216,11.2664151 15.3574703,11.0887547 15.8837189,11.0280755 C16.3398919,10.9755472 16.2826811,10.9704151 18.0153514,11.1770566 C19.2926054,11.3293585 20.1665081,11.7447547 20.6184432,12.4332075 C21.0800649,11.7824906 21.215373,11.3314717 21.0679568,11.0938868 C20.9408216,10.8889057 20.8621189,10.8226415 19.479827,9.71381132 C19.3849297,9.63773585 19.3000216,9.56920755 19.2196541,9.50369811 C18.5783784,8.98067925 18.1751784,8.60845283 17.9439135,8.29660377 C17.4981838,7.69569811 17.1562811,6.63833962 16.9071568,5.11713208 L17.2782703,2.56241509 C17.5691676,1.60558491 17.9483027,0.995018868 18.4371676,0.708830189 C19.4074811,0.140981132 20.0325622,-0.0531320755 21.2040216,0.0120754717 C21.2772757,0.0161509434 21.5486486,0.0306415095 21.6111568,0.034264151 C22.2696865,0.0713962264 22.5156324,0.118037736 22.8045622,0.293283019 C23.0194811,0.423849057 23.2168432,0.607396226 23.601427,1.01826415 C24.0436757,1.49056604 24.1119351,1.84271698 24.0311135,2.47139623 C24.0020541,2.69781132 23.9961514,2.78535849 24.0093189,2.89192453 C24.0238486,3.00996226 24.066227,3.11411321 24.1493189,3.22098113 C24.4928865,3.66233962 25.5683892,4.72920755 27.3629622,6.40664151 L28,7.00211321 L27.1715027,6.73539623 C24.9125838,6.008 23.4008865,5.50671698 22.6342919,5.2309434 C21.7295135,4.90535849 21.392,4.98430189 21.0036324,5.4090566 C20.7414919,5.69569811 20.8407784,6.35154717 21.2999784,6.86867925 C21.4826595,7.07471698 21.7441946,7.29841509 22.1280216,7.58762264 C22.2362378,7.66928302 22.3443027,7.74898113 22.5121514,7.87154717 C23.1452541,8.33358491 23.3338378,8.47683019 23.5782703,8.69720755 C24.2605622,9.31245283 24.6413622,10.1447547 24.8617297,11.4698868 C25.0053622,12.3340377 25.0702919,13.4233962 25.0571243,14.7390189 C23.7617081,18.4878491 22.9498595,20.6691321 22.6023568,21.3642264 C22.2422919,22.0845283 21.4097081,22.8422642 20.1049081,23.6501132 L18.3701189,25.3110943 Z" id="path-5"></path>
        <path d="M25.0479194,16.9657778 L15.6296497,41.5111111 C14.888167,43.3291852 13.8982232,44.8521481 12.6598182,46.0798519 C11.4214132,47.3074074 9.5560037,47.9213333 7.06343976,47.9213333 C6.47964597,47.9213333 5.93141094,47.8746667 5.41873466,47.7814815 C4.90605839,47.6881481 4.30260976,47.5561481 3.6085388,47.3851852 L4.41303695,42.4201481 C4.63389135,42.4512593 4.86269771,42.4823704 5.09930599,42.5133333 C5.33591426,42.5444444 5.54101478,42.56 5.7144575,42.56 C6.86614117,42.56 7.74955876,42.2841481 8.36486031,41.7324444 C8.98016186,41.1808889 9.45337842,40.4931852 9.78466001,39.6696296 L10.5656024,37.7582222 L2.44890318,16.989037 L0.0588144863,12.5134815 L12.6007036,12.5134815 L9.73739837,17.0822222 L13.239711,27.1521481 L13.5945484,28.9703704 L13.7366334,28.9936296 L17.7831301,17.0822222 L14.896119,12.5134815 L27.4380081,12.5134815 L25.0479194,16.9657778 Z M29.4162454,16.616 L29.4162454,12.5134815 L39.5206341,12.5134815 L39.8046541,15.8468148 C40.6250562,14.6346667 41.6543097,13.6983704 42.8927147,13.0379259 C44.1312698,12.3774815 45.5629224,12.0472593 47.1878226,12.0472593 C48.8284767,12.0472593 50.2325225,12.4047407 51.3999601,13.1195556 C52.5673976,13.8343704 53.4508152,14.9143704 54.0503629,16.3595556 C54.8391072,15.0077037 55.8644597,13.950963 57.1265706,13.1894815 C58.3886814,12.428 59.8716467,12.0472593 61.5753163,12.0472593 C64.0995381,12.0472593 66.0912786,12.9059259 67.5505381,14.6231111 C69.0097975,16.3402963 69.7394272,18.9548148 69.7394272,22.4668148 L69.7394272,32.9562963 L73.075949,37.7348148 L59.8479409,37.7348148 L62.8296253,32.9562963 L62.8296253,22.4435556 C62.8296253,20.5321481 62.5140976,19.2034074 61.8830421,18.4574815 C61.2519867,17.7115556 60.3133555,17.3386667 59.0669985,17.3386667 C58.0889076,17.3386667 57.2408987,17.5522963 56.523122,17.9797037 C55.8053452,18.406963 55.2335543,19.0014815 54.8075994,19.7628148 C54.8075994,20.0582222 54.8154013,20.3106667 54.8311552,20.5204444 C54.8469091,20.7302222 54.854861,20.9438519 54.854861,21.1614815 L54.854861,32.9562963 L57.6471988,37.7348148 L45.1762772,37.7348148 L47.9686149,32.9562963 L47.9686149,22.4435556 C47.9686149,20.5786667 47.6530872,19.2617778 47.0221818,18.4924444 C46.3911264,17.7232593 45.4445432,17.3386667 44.1824324,17.3386667 C43.2517531,17.3386667 42.435252,17.5134815 41.7332291,17.8631111 C41.0312062,18.2127407 40.4514634,18.7062222 39.9940007,19.3432593 L39.9940007,32.9562963 L42.9756851,37.7348148 L29.7712328,37.7348148 L33.1077546,32.9562963 L33.1077546,17.3154074 L29.4162454,16.616 Z M100.658593,25.8234074 C100.658593,29.5841481 99.8066829,32.5911111 98.1028633,34.8444444 C96.3990436,37.0977778 93.9381375,38.2242963 90.7198448,38.2242963 C89.2211256,38.2242963 87.9195551,37.9174815 86.8152831,37.3035556 C85.7110111,36.6897778 84.7801818,35.8001481 84.0229453,34.6346667 L83.5260229,37.7348148 L77.5626541,37.7348148 L77.5626541,6.17318519 L73.8948507,1.37140741 L84.4489002,1.37140741 L84.4489002,15.1940741 C85.1903829,14.184 86.0777014,13.4071111 87.1110059,12.8631111 C88.1443104,12.3192593 89.3315528,12.0472593 90.6724331,12.0472593 C93.9223836,12.0472593 96.3990436,13.2555556 98.1028633,15.672 C99.8066829,18.0884444 100.658593,21.309037 100.658593,25.3339259 L100.658593,25.8234074 Z M93.7723466,25.3339259 C93.7723466,22.8786667 93.4056563,20.9322963 92.6721256,19.4948148 C91.9384449,18.0573333 90.688187,17.3386667 88.9213518,17.3386667 C87.8485876,17.3386667 86.9414642,17.5601481 86.1999815,18.002963 C85.4584989,18.4459259 84.8748551,19.0791111 84.4489002,19.9028148 L84.4489002,30.5554074 C84.8748551,31.3324444 85.4623999,31.922963 86.2118344,32.326963 C86.961269,32.730963 87.8800953,32.933037 88.9686135,32.933037 C90.7513525,32.933037 91.9977095,32.3152593 92.7075344,31.0798519 C93.4175092,29.8444444 93.7723466,28.0922963 93.7723466,25.8234074 L93.7723466,25.3339259 Z M106.976799,32.9562963 L106.976799,17.3154074 L103.28529,12.5134815 L113.886751,12.5134815 L113.886751,32.9562963 L117.199567,37.7348148 L103.640277,37.7348148 L106.976799,32.9562963 Z M107.084826,6.10251852 L107.035163,0.142222222 L114.377222,4.53185185 L114.192226,8.13288889 L107.176048,7.85303704 L107.084826,6.10251852 Z M119.471426,24.8911111 C119.471426,21.1303704 120.54014,18.0496296 122.677716,15.6487407 C124.815443,13.2477037 127.76952,12.0472593 131.539949,12.0472593 C135.326132,12.0472593 138.288011,13.2438519 140.425738,15.637037 C142.563314,18.0302222 143.632177,21.1148148 143.632177,24.8911111 L143.632177,25.3805926 C143.632177,29.1722963 142.563314,32.2608889 140.425738,34.6462222 C138.288011,37.0317037 135.341885,38.2242963 131.587211,38.2242963 C127.785274,38.2242963 124.815443,37.0317037 122.677716,34.6462222 C120.54014,32.2608889 119.471426,29.1722963 119.471426,25.3805926 L119.471426,24.8911111 Z M126.987078,25.3805926 C126.987078,27.6804444 127.397129,29.5259259 128.217531,30.9167407 C129.037933,32.3075556 130.363059,33.002963 132.19306,33.002963 C133.975799,33.002963 135.28112,32.3037037 136.109475,30.905037 C136.937678,29.5063704 137.35178,27.665037 137.35178,25.3805926 L137.35178,24.8911111 C137.35178,22.6533333 136.933778,20.8274074 136.097622,19.4131852 C135.261466,17.9991111 133.944141,17.292 132.145648,17.292 C130.347305,17.292 129.037933,17.9991111 128.217531,19.4131852 C127.397129,20.8274074 126.987078,22.6533333 126.987078,24.8911111 L126.987078,25.3805926 Z M156.23078,6.33644444 L156.23078,12.5134815 L160.726938,12.5134815 L156.23078,17.292 L156.23078,30.1358519 C156.23078,31.1148148 156.435881,31.8140741 156.846082,32.2337778 C157.256133,32.6533333 157.808269,32.8631111 158.50249,32.8631111 C158.975857,32.8631111 159.389809,32.8437037 159.744796,32.8047407 C160.099783,32.7659259 160.498132,32.6998519 160.93984,32.6066667 L161.531436,37.525037 C160.758446,37.7582222 159.993407,37.933037 159.236021,38.0494815 C158.478784,38.1660741 157.658532,38.2242963 156.775115,38.2242963 C154.392828,38.2242963 152.558926,37.5794074 151.273259,36.2896296 C149.987443,34.9998519 149.344534,32.9562963 149.344534,30.1591111 L149.344534,17.292 L145.582058,12.5134815 L149.344534,12.5134815 L149.344534,6.33644444 L156.23078,6.33644444 Z M168.446039,32.9562963 L168.446039,17.3154074 L164.75453,12.5134815 L175.355841,12.5134815 L175.355841,32.9562963 L178.668807,37.7348148 L165.109367,37.7348148 L168.446039,32.9562963 Z M192.961778,33.002963 C194.192381,33.002963 195.178273,32.6493333 195.919756,31.9423704 C196.661239,31.2352593 197.03198,30.2912593 197.03198,29.1102222 L202.418607,30.762963 C201.815758,32.9361481 201.124988,34.4601481 200.345996,35.334963 C199.177659,36.6471111 195.943462,38.2242963 192.961778,38.2242963 C189.143937,38.2242963 186.201863,37.0355556 184.135254,34.6579259 C182.068494,32.2802963 181.03519,29.2268148 181.03519,25.4971852 L181.03519,24.7977778 C181.03519,21.0837037 182.096101,18.0302222 184.218074,15.637037 C186.339897,13.2438519 189.364942,12.0472593 193.293059,12.0472593 C195.359668,12.0472593 197.213375,12.3503704 198.854029,12.9564444 C200.494833,13.5625185 201.859419,14.4171852 202.947937,15.5204444 L197.434229,22.257037 L196.298449,18.3176296 C195.951414,18.0223704 195.525309,17.7776296 195.020585,17.5834074 C194.51571,17.3891852 193.939868,17.292 193.293059,17.292 C191.336877,17.292 189.956537,17.9912593 189.151889,19.3899259 C188.347241,20.7885926 187.944992,22.5911111 187.944992,24.7977778 L187.944992,25.4971852 C187.944992,27.7503704 188.315733,29.5647407 189.057216,30.94 C189.798698,32.3152593 191.100269,33.002963 192.961778,33.002963 Z" id="path-7"></path>
        <polygon id="path-9" points="6.91194 5.15543636 6.82668 6.65916364 0.27986 6.89958182 0.10724 3.80596364 6.95828 0.035"></polygon>
        <path d="M18.9934752,9.09368362 L13.9151773,5.97353672 C13.4678014,5.60366102 12.9046809,5.29562712 12.2260993,5.04899435 C11.5475177,4.80250847 10.7980142,4.67926554 9.9777305,4.67926554 C8.8293617,4.67926554 7.91957447,4.94499435 7.24836879,5.47659887 C6.57730496,6.00820339 6.24170213,6.67450847 6.24170213,7.47580791 C6.24170213,8.23083616 6.56241135,8.85865537 7.20368794,9.35941243 C7.84496454,9.86031638 9.12765957,10.3031977 11.0516312,10.6884972 C14.0493617,11.3047119 16.2716312,12.2100113 17.7182979,13.4041017 C19.1651064,14.598339 19.8883688,16.243096 19.8883688,18.3386667 C19.8883688,20.5883277 18.9524823,22.425661 17.0807092,23.8509605 C15.2089362,25.2762599 12.7443972,25.9888362 9.68695035,25.9888362 C7.82255319,25.9888362 6.11120567,25.7076836 4.55262411,25.1452316 C2.99404255,24.5827797 1.61078014,23.7778079 0.402695035,22.7300226 L0.335602837,17.1137288 L5.7941844,20.3725424 C6.18198582,20.7115706 6.71148936,20.9618757 7.38269504,21.1237514 C8.05375887,21.2854802 8.75475177,21.3664181 9.48553191,21.3664181 C10.8129078,21.3664181 11.8234043,21.1197853 12.5168794,20.6268136 C13.2104965,20.1336949 13.5571631,19.4634237 13.5571631,18.616 C13.5571631,17.8763955 13.2066667,17.2369718 12.5058156,16.6977288 C11.8048227,16.158339 10.5146099,15.680791 8.63546099,15.2646441 C5.78680851,14.6637062 3.63531915,13.7739774 2.1812766,12.5951638 C0.727092199,11.4164972 0,9.81022599 0,7.77620339 C0,5.68077966 0.835177305,3.87414689 2.50567376,2.35645198 C4.17602837,0.838757062 6.55489362,0.0799096045 9.64212766,0.0799096045 C11.5214184,0.0799096045 13.3,0.341819209 14.9778723,0.865638418 C16.6557447,1.38960452 17.9719149,2.05972881 18.926383,2.87645198 L18.9934752,9.09368362 Z" id="path-11"></path>
        <path d="M1.54,17.3953957 L7.89157895,0.0407194245 L12.1784962,0.0407194245 L18.4869173,17.3953957 L19.9780451,20 L12.8666165,20 L14.3147368,17.3542446 L13.3971429,14.6126619 L6.62977444,14.6126619 L5.71218045,17.3542446 L7.16030075,20 L0.0488721805,20 L1.54,17.3953957 Z M7.61909774,11.6653237 L12.4078195,11.6653237 L10.0565414,4.63294964 L9.97037594,4.63294964 L7.61909774,11.6653237 Z" id="path-13"></path>
        <path d="M8.81014286,0.0407194245 C11.1261429,0.0407194245 12.933,0.497697842 14.2305714,1.41151079 C15.5282857,2.32546763 16.1771429,3.69165468 16.1771429,5.51035971 C16.1771429,6.43338129 15.936,7.2581295 15.454,7.9847482 C14.9718571,8.71122302 14.2711429,9.25726619 13.352,9.6228777 C14.5325714,9.87870504 15.4178571,10.4270504 16.0081429,11.2677698 C16.5984286,12.1086331 16.8935714,13.0818705 16.8935714,14.1876259 C16.8935714,16.0976978 16.2717143,17.5438849 15.0281429,18.5263309 C13.7845714,19.508777 12.0228571,20 9.74285714,20 L0.0644285714,20 L2.15957143,17.1897842 L2.15957143,2.86460432 L0.0644285714,0.0407194245 L8.81014286,0.0407194245 Z M6.10671429,8.40273381 L8.94528571,8.40273381 C9.99971429,8.40273381 10.8107143,8.18345324 11.3784286,7.7447482 C11.9461429,7.30618705 12.23,6.66647482 12.23,5.82561151 C12.23,4.90258993 11.944,4.22172662 11.3717143,3.78316547 C10.7994286,3.34446043 9.94557143,3.12503597 8.81014286,3.12503597 L6.10671429,3.12503597 L6.10671429,8.40273381 Z M6.10671429,11.1717986 L6.10671429,16.9293525 L9.74285714,16.9293525 C10.7881429,16.9293525 11.5857143,16.6985612 12.1354286,16.2371223 C12.6851429,15.7755396 12.96,15.0923741 12.96,14.1876259 C12.96,13.2097842 12.7257143,12.4627338 12.2571429,11.9463309 C11.7884286,11.4300719 11.0495714,11.1717986 10.0402857,11.1717986 L6.10671429,11.1717986 Z" id="path-15"></path>
        <path d="M12.4687692,6.48255319 L11.9136923,3.81404255 C11.5438462,3.60056738 11.0035385,3.41375887 10.2929231,3.25361702 C9.58230769,3.09347518 8.82784615,3.01347518 8.02953846,3.01347518 C6.86138462,3.01347518 5.95846154,3.23801418 5.32076923,3.68723404 C4.68307692,4.1364539 4.36430769,4.71687943 4.36430769,5.42851064 C4.36430769,6.08680851 4.69784615,6.6270922 5.36461538,7.04964539 C6.03153846,7.47219858 7.18261538,7.91914894 8.818,8.3906383 C11.1643077,8.98666667 12.9432308,9.77375887 14.1552308,10.7523404 C15.3672308,11.7307801 15.9732308,13.0161702 15.9732308,14.6083688 C15.9732308,16.271773 15.2529231,17.5838298 13.8121538,18.544539 C12.3713846,19.5052482 10.4730769,19.9855319 8.11723077,19.9855319 C6.43292308,19.9855319 4.912,19.7409929 3.55384615,19.251773 C2.19584615,18.7624113 1.06415385,18.086383 0.158923077,17.2235461 L3.45892308,13.1673759 L3.91169231,15.9293617 C4.34,16.2495035 4.92169231,16.5141844 5.65661538,16.7232624 C6.39169231,16.9323404 7.21184615,17.0367376 8.11723077,17.0367376 C9.28538462,17.0367376 10.1736923,16.8188652 10.7821538,16.3829787 C11.3906154,15.9470922 11.6947692,15.364539 11.6947692,14.6350355 C11.6947692,13.8878014 11.4052308,13.2875177 10.826,12.8337589 C10.2467692,12.3801418 9.23184615,11.9531915 7.78138462,11.5529078 C5.26,10.8856738 3.352,10.0940426 2.05723077,9.17787234 C0.762461538,8.26170213 0.115076923,7.00737589 0.115076923,5.4151773 C0.115076923,3.84070922 0.845230769,2.55304965 2.30538462,1.55234043 C3.76569231,0.551631206 5.60076923,0.0380141844 7.81046154,0.0113475177 C9.446,0.0113475177 10.9353846,0.238156028 12.2789231,0.69177305 C13.6223077,1.14539007 14.7515385,1.75035461 15.6666154,2.50638298 L12.4687692,6.48255319 Z" id="path-17"></path>
        <polygon id="path-19" points="0.113660377 20 2.3610566 17.1897842 2.3610566 2.86460432 0.113660377 0.0407194245 8.85675472 0.0407194245 6.59486792 2.86460432 6.59486792 16.9293525 12.5539623 16.9293525 15.9901887 14.4207194 15.9901887 20"></polygon>
    </defs>
    <g id="Page-1" stroke="none" stroke-width="1" fill="none" fill-rule="evenodd">
        <g id="Group">
            <g id="Group-3" transform="translate(0.000000, 7.000000)">
                <mask id="mask-2" fill="white">
                    <use xlink:href="#path-1"></use>
                </mask>
                <g id="Clip-2"></g>
                <polygon id="Fill-1" fill="#494949" mask="url(#mask-2)" points="0 99.0059909 94.0059213 99.0059909 94.0059213 -0.00599092284 0 -0.00599092284"></polygon>
            </g>
            <g id="Group-6" transform="translate(31.000000, 12.000000)">
                <mask id="mask-4" fill="white">
                    <use xlink:href="#path-3"></use>
                </mask>
                <g id="Clip-5"></g>
                <polygon id="Fill-4" fill="#494949" mask="url(#mask-4)" points="-0.00615384615 7 10 7 10 -0.00636363636 -0.00615384615 -0.00636363636"></polygon>
            </g>
            <g id="Group-9" transform="translate(30.000000, 0.000000)">
                <mask id="mask-6" fill="white">
                    <use xlink:href="#path-5"></use>
                </mask>
                <g id="Clip-8"></g>
                <polygon id="Fill-7" fill="#494949" mask="url(#mask-6)" points="-0.00605405405 48.0120755 28 48.0120755 28 -0.00603773585 -0.00605405405 -0.00603773585"></polygon>
            </g>
            <g id="Group-12" transform="translate(128.000000, 20.000000)">
                <mask id="mask-8" fill="white">
                    <use xlink:href="#path-7"></use>
                </mask>
                <g id="Clip-11"></g>
                <polygon id="Fill-10" fill="#494949" mask="url(#mask-8)" points="0.0540133038 47.922963 202.963991 47.922963 202.963991 0.136296296 0.0540133038 0.136296296"></polygon>
            </g>
            <g id="Group-15" transform="translate(296.000000, 22.000000)">
                <mask id="mask-10" fill="white">
                    <use xlink:href="#path-9"></use>
                </mask>
                <g id="Clip-14"></g>
                <polygon id="Fill-13" fill="#4F4F4F" mask="url(#mask-10)" points="0.0952 6.90327273 6.9664 6.90327273 6.9664 0.0305454545 0.0952 0.0305454545"></polygon>
            </g>
            <g id="Group-18" transform="translate(108.000000, 32.000000)">
                <mask id="mask-12" fill="white">
                    <use xlink:href="#path-11"></use>
                </mask>
                <g id="Clip-17"></g>
                <polygon id="Fill-16" fill="#494949" mask="url(#mask-12)" points="-0.00567375887 26 19.8921986 26 19.8921986 0.0705084746 -0.00567375887 0.0705084746"></polygon>
            </g>
            <g id="Group-21" transform="translate(186.000000, 71.000000)">
                <mask id="mask-14" fill="white">
                    <use xlink:href="#path-13"></use>
                </mask>
                <g id="Clip-20"></g>
                <polygon id="Fill-19" fill="#BFBFBF" mask="url(#mask-14)" points="0.0481203008 20.0057554 19.9879699 20.0057554 19.9879699 0.0287769784 0.0481203008 0.0287769784"></polygon>
            </g>
            <g id="Group-24" transform="translate(224.000000, 71.000000)">
                <mask id="mask-16" fill="white">
                    <use xlink:href="#path-15"></use>
                </mask>
                <g id="Clip-23"></g>
                <polygon id="Fill-22" fill="#BFBFBF" mask="url(#mask-16)" points="0.0628571429 20.0057554 16.8971429 20.0057554 16.8971429 0.0287769784 0.0628571429 0.0287769784"></polygon>
            </g>
            <g id="Group-27" transform="translate(257.000000, 71.000000)">
                <mask id="mask-18" fill="white">
                    <use xlink:href="#path-17"></use>
                </mask>
                <g id="Clip-26"></g>
                <polygon id="Fill-25" fill="#BFBFBF" mask="url(#mask-18)" points="0.0984615385 20 15.9753846 20 15.9753846 0 0.0984615385 0"></polygon>
            </g>
            <g id="Group-30" transform="translate(154.000000, 71.000000)">
                <mask id="mask-20" fill="white">
                    <use xlink:href="#path-19"></use>
                </mask>
                <g id="Clip-29"></g>
                <polygon id="Fill-28" fill="#BFBFBF" mask="url(#mask-20)" points="0.0966037736 20.0057554 16 20.0057554 16 0.0287769784 0.0966037736 0.0287769784"></polygon>
            </g>
        </g>
    </g>
</svg>