<svg width="331" height="106" viewBox="0 0 331 106" xmlns="http://www.w3.org/2000/svg" xmlns:xlink="http://www.w3.org/1999/xlink">
  <defs>
    <path d="M29.84 11c.32 2.27-.17 4.6-1.26 6.6-1.24 2.48-3.22 4.54-4.3 7.12-.6 1.48-.87 3.47.48 4.63 1.57 1.24 3.67 1.36 5.58 1.35.99-.05 1.98 0 2.94.2a20.6 20.6 0 0 0-7.32 6.35c-3.71-1.46-7.83-5.03-8.52-8.58a6.03 6.03 0 0 1 .67-4.17c2.15-3.94 6.46-6.22 8.16-10.46.95-2.4 1.11-5.07.84-7.63-.17-1.56-.63-3.06-.99-4.58 1.78 2.78 3.3 5.84 3.72 9.17zM47.1 29.93c3.1.33 5.42.6 6.97.78 1.9.18 4.01.09 5.65-1.03 1.5-.93 1.77-2.96 1.42-4.57-.7-3.16-2.7-5.77-3.94-8.7a13.09 13.09 0 0 1-1.14-5.43C56.3 6.81 58.58 3.14 61.12 0a20.49 20.49 0 0 0-1.88 8.28c-.08 2.32.51 4.65 1.69 6.64 1.6 2.7 3.92 4.87 5.6 7.51a9.73 9.73 0 0 1 1.77 4.85c.18 1.93-.57 3.82-1.54 5.44a14.89 14.89 0 0 1-5.73 5.4l.4.6c1.41.06 2.84 0 4.21.33 2.4.58 4.57 1.91 6.29 3.67a20.51 20.51 0 0 1 3.18 4.52c-3.16 2.35-7.22 3.17-11.07 2.92-.2 3.53-.02 7.14 1.2 10.49.72 1.95 1.88 3.86 3.67 4.97a65.99 65.99 0 0 1 9.2 7.31 39.95 39.95 0 0 0 8.45-21.34c.27-3.93.22-7.94-.64-11.8a40.07 40.07 0 0 0-11.07-20.6 39.33 39.33 0 0 0-13.1-8.74 14.37 14.37 0 0 1-.01-4.39A46.84 46.84 0 0 1 82.2 19.73a47.69 47.69 0 0 1 11.3 24.72 47.9 47.9 0 0 1-3.07 25.1 47.44 47.44 0 0 1-27.1 26.47 44.67 44.67 0 0 1-11.41 2.69c-7.79.9-15.8-.32-23.01-3.4a47.22 47.22 0 0 1-21.43-18.2A48.35 48.35 0 0 1 2.6 35.65a47.62 47.62 0 0 1 17.77-23.6c1.46-.99 2.93-2 4.52-2.75a10.7 10.7 0 0 1-1.31 4.91c-.84 1.43-2 2.65-3.21 3.77A40.18 40.18 0 0 0 7.59 42.52c-1.03 7.55.1 15.4 3.3 22.3a40 40 0 0 0 14.45 16.9c2.44-1.77 4.73-3.86 6.28-6.5a16.9 16.9 0 0 0 1.59-14.17c-.29-1.08-1.4-1.5-2.34-1.86-4.47-1.44-9.23-1.14-13.85-1.2-.97.09-1.84-.54-2.45-1.24-1.28-1.68-1.69-3.88-1.55-5.96.06-1 .5-2.1 1.5-2.47 2.47-1 4.64-2.59 6.87-4.04.85-.6 1.8-1.14 2.49-1.95 1.97-2.67 4.05-5.32 6.66-7.4 1.53-1.32 3.06-2.7 4.85-3.67 1.12-.62 2.42-.73 3.63-1.04.81-.2 3.5-.3 8.08-.29z" id="path-1"/>
    <path d="M5.38 5.26C3.79 5.73 2.73 6.3 1.08 7c.01-.62 0-1.09-.03-1.42a14.2 14.2 0 0 0-.41-1.99L0 2.6A45.55 45.55 0 0 1 8.78.22C8.99.18 9.74.03 9.96 0c.31-.05-1.36 1.25-2.43 2.55-1.03 1.24-2 2.67-2.15 2.71z" id="path-3"/>
    <path d="M18.37 25.31l-2.5 9.54 1.37 13.13-1.38.02-1.77-13.27 2.38-8.4-1.94 1.02-2.19 6.63.52 14.02h-1.47l-.7-14.36 1.75-5.45-2.64 1.18-3.05-.64-3.05 2.94-3.01-.73-.69-.45.6-.96 4.97-8.1.35-1.13 3.7-5.29c1.3-1.5 2.66-2.56 4.08-3.2a7.28 7.28 0 0 1 2.18-.78c.46-.05.4-.06 2.14.15 1.27.15 2.15.56 2.6 1.25.46-.65.6-1.1.45-1.34-.13-.2-.2-.27-1.59-1.38l-.26-.2a7.75 7.75 0 0 1-1.28-1.21c-.44-.6-.78-1.66-1.03-3.18l.37-2.56c.29-.95.67-1.56 1.16-1.85.97-.57 1.6-.76 2.76-.7l.41.02c.66.04.9.09 1.2.26.2.13.4.32.8.73.43.47.5.82.42 1.45-.03.23-.03.32-.02.42.01.12.06.22.14.33.34.44 1.42 1.5 3.21 3.19L28 7l-.83-.27C24.91 6 23.4 5.5 22.63 5.24c-.9-.33-1.24-.26-1.63.17-.26.29-.16.94.3 1.46.18.2.44.43.83.72l.38.28c.64.46.82.6 1.07.83.68.61 1.06 1.44 1.28 2.77.15.86.21 1.95.2 3.27a85.61 85.61 0 0 1-2.46 6.62c-.36.72-1.19 1.48-2.5 2.29l-1.73 1.66z" id="path-5"/>
    <path d="M25.05 16.97L15.63 41.5a13.53 13.53 0 0 1-2.97 4.57c-1.24 1.23-3.1 1.84-5.6 1.84a9.2 9.2 0 0 1-1.64-.14c-.51-.1-1.12-.22-1.81-.4l.8-4.96.69.1c.24.02.44.04.61.04 1.16 0 2.04-.28 2.65-.83a5.46 5.46 0 0 0 1.42-2.06l.79-1.91-8.12-20.77-2.4-4.48H12.6l-2.86 4.57 3.5 10.07.35 1.82.15.02 4.04-11.9-2.88-4.58h12.54l-2.4 4.46zm4.37-.35v-4.1h10.1l.28 3.33a8.55 8.55 0 0 1 3.1-2.81 9 9 0 0 1 4.29-1c1.64 0 3.04.36 4.21 1.08a6.64 6.64 0 0 1 2.65 3.24 8.8 8.8 0 0 1 3.08-3.17 8.45 8.45 0 0 1 4.45-1.14c2.52 0 4.51.86 5.97 2.57 1.46 1.72 2.19 4.33 2.19 7.85v10.49l3.34 4.77H59.85l2.98-4.77V22.44c0-1.9-.32-3.24-.95-3.98-.63-.75-1.57-1.12-2.81-1.12-.98 0-1.83.21-2.55.64a4.7 4.7 0 0 0-1.71 1.78c0 .3 0 .55.02.76.02.21.02.42.02.64v11.8l2.8 4.77H45.18l2.79-4.77V22.44c0-1.86-.32-3.18-.95-3.95-.63-.77-1.58-1.15-2.84-1.15-.93 0-1.74.17-2.45.52-.7.35-1.28.85-1.74 1.48v13.62l2.99 4.77h-13.2l3.33-4.77V17.32l-3.7-.7zm71.24 9.2c0 3.76-.85 6.77-2.56 9.02-1.7 2.26-4.16 3.38-7.38 3.38-1.5 0-2.8-.3-3.9-.92a7.9 7.9 0 0 1-2.8-2.67l-.5 3.1h-5.96V6.17l-3.67-4.8h10.56V15.2a7.79 7.79 0 0 1 2.66-2.33 7.53 7.53 0 0 1 3.56-.81c3.25 0 5.73 1.2 7.43 3.62 1.7 2.42 2.56 5.64 2.56 9.66v.5zm-6.89-.49c0-2.45-.36-4.4-1.1-5.84-.73-1.43-1.98-2.15-3.75-2.15-1.07 0-1.98.22-2.72.66a4.63 4.63 0 0 0-1.75 1.9v10.66a4.32 4.32 0 0 0 1.76 1.77c.75.4 1.67.6 2.76.6 1.78 0 3.03-.61 3.74-1.85.7-1.24 1.06-2.99 1.06-5.26v-.49zm13.2 7.63V17.32l-3.68-4.8h10.6v20.44l3.31 4.77h-13.56l3.34-4.77zm.11-26.86l-.04-5.96 7.34 4.4-.19 3.6-7.01-.29-.1-1.75zm12.4 18.8c0-3.77 1.06-6.85 3.2-9.25 2.14-2.4 5.09-3.6 8.86-3.6 3.79 0 6.75 1.2 8.89 3.59 2.13 2.39 3.2 5.47 3.2 9.25v.5c0 3.78-1.07 6.87-3.2 9.26-2.14 2.38-5.09 3.57-8.84 3.57-3.8 0-6.77-1.19-8.91-3.57-2.14-2.39-3.2-5.48-3.2-9.27v-.49zm7.5.48c0 2.3.42 4.15 1.24 5.54.82 1.39 2.14 2.08 3.97 2.08 1.79 0 3.1-.7 3.92-2.1.83-1.4 1.24-3.23 1.24-5.52v-.49c0-2.24-.42-4.06-1.25-5.48-.84-1.41-2.16-2.12-3.95-2.12-1.8 0-3.11.7-3.93 2.12a10.82 10.82 0 0 0-1.23 5.48v.5zm29.25-19.04v6.17h4.5l-4.5 4.78v12.85c0 .97.2 1.67.62 2.1.4.41.96.62 1.65.62a11.54 11.54 0 0 0 2.44-.25l.6 4.92a16.77 16.77 0 0 1-4.76.7c-2.39 0-4.22-.65-5.5-1.94-1.3-1.29-1.94-3.33-1.94-6.13V17.29l-3.76-4.78h3.76V6.34h6.9zm12.22 26.62V17.32l-3.7-4.8h10.6v20.44l3.32 4.77H165.1l3.34-4.77zm24.51.04a4.1 4.1 0 0 0 2.96-1.06 3.73 3.73 0 0 0 1.11-2.83l5.39 1.65c-.6 2.18-1.3 3.7-2.07 4.57-1.17 1.32-4.4 2.9-7.39 2.9-3.82 0-6.76-1.2-8.82-3.57-2.07-2.38-3.1-5.43-3.1-9.16v-.7c0-3.72 1.06-6.77 3.18-9.16 2.12-2.4 5.14-3.6 9.07-3.6 2.07 0 3.92.31 5.56.92a11 11 0 0 1 4.1 2.56l-5.52 6.74-1.13-3.94c-.35-.3-.77-.54-1.28-.74-.5-.2-1.08-.29-1.73-.29-1.95 0-3.33.7-4.14 2.1-.8 1.4-1.2 3.2-1.2 5.4v.7c0 2.26.37 4.07 1.1 5.45.75 1.38 2.05 2.06 3.91 2.06z" id="path-7"/>
    <path id="path-9" d="M6.91 5.16l-.08 1.5-6.55.24-.17-3.1L6.96.05z"/>
    <path d="M19 9.1l-5.08-3.13a5.66 5.66 0 0 0-1.7-.92 6.54 6.54 0 0 0-2.24-.37c-1.15 0-2.06.26-2.73.8-.67.53-1 1.2-1 2 0 .75.31 1.38.95 1.88.64.5 1.93.94 3.85 1.33 3 .61 5.22 1.52 6.67 2.71a6.05 6.05 0 0 1 2.17 4.94c0 2.25-.94 4.09-2.8 5.51C15.2 25.28 12.73 26 9.68 26c-1.87 0-3.58-.28-5.14-.84A13.01 13.01 0 0 1 .4 22.73l-.06-5.62 5.45 3.26c.4.34.92.6 1.6.75.66.17 1.36.25 2.1.25a5.2 5.2 0 0 0 3.03-.74c.69-.5 1.04-1.17 1.04-2.01 0-.74-.35-1.38-1.05-1.92-.7-.54-2-1.02-3.87-1.44-2.85-.6-5-1.49-6.46-2.66A5.87 5.87 0 0 1 0 7.78c0-2.1.84-3.9 2.5-5.42C4.19.84 6.56.08 9.65.08c1.88 0 3.66.26 5.34.79 1.68.52 3 1.19 3.95 2l.06 6.22z" id="path-11"/>
    <path d="M1.54 17.4L7.89.04h4.29l6.3 17.36 1.5 2.6h-7.11l1.44-2.65-.91-2.74H6.63l-.92 2.74L7.16 20H.05l1.49-2.6zm6.08-5.73h4.79l-2.35-7.04h-.09l-2.35 7.04z" id="path-13"/>
    <path d="M8.81.04c2.32 0 4.12.46 5.42 1.37 1.3.92 1.95 2.28 1.95 4.1 0 .92-.24 1.75-.73 2.47a4.38 4.38 0 0 1-2.1 1.64c1.18.26 2.07.8 2.66 1.65.59.84.88 1.81.88 2.92 0 1.9-.62 3.35-1.86 4.34-1.25.98-3 1.47-5.29 1.47H.06l2.1-2.81V2.86L.06.04h8.75zM6.11 8.4h2.84a3.9 3.9 0 0 0 2.43-.66c.57-.43.85-1.07.85-1.91 0-.93-.29-1.6-.86-2.05-.57-.44-1.42-.65-2.56-.65h-2.7V8.4zm0 2.77v5.76h3.63c1.05 0 1.85-.23 2.4-.7.55-.45.82-1.14.82-2.04 0-.98-.23-1.73-.7-2.24-.47-.52-1.21-.78-2.22-.78H6.11z" id="path-15"/>
    <path d="M12.47 6.48l-.56-2.67c-.37-.2-.9-.4-1.62-.56-.7-.16-1.46-.24-2.26-.24-1.17 0-2.07.23-2.7.68a2.05 2.05 0 0 0-.97 1.74c0 .66.34 1.2 1 1.62.67.42 1.82.87 3.46 1.34 2.34.6 4.12 1.38 5.34 2.36a4.72 4.72 0 0 1 1.81 3.86 4.5 4.5 0 0 1-2.16 3.93c-1.44.97-3.34 1.45-5.7 1.45-1.68 0-3.2-.25-4.56-.74a9.52 9.52 0 0 1-3.4-2.03l3.3-4.05.46 2.76c.43.32 1.01.58 1.75.8.73.2 1.55.3 2.46.3 1.17 0 2.05-.21 2.66-.65.61-.43.91-1.02.91-1.74 0-.75-.28-1.35-.86-1.8a9.18 9.18 0 0 0-3.05-1.29c-2.52-.66-4.43-1.46-5.72-2.37A4.37 4.37 0 0 1 .12 5.42c0-1.58.73-2.87 2.19-3.87S5.6.04 7.8.01c1.64 0 3.13.23 4.47.68 1.34.46 2.47 1.06 3.39 1.82l-3.2 3.97z" id="path-17"/>
    <path id="path-19" d="M.11 20l2.25-2.81V2.86L.11.04h8.75L6.59 2.86v14.07h5.96l3.44-2.5V20z"/>
  </defs>
  <g id="Page-1" fill="none" fill-rule="evenodd">
    <g id="Group">
      <g id="Group-3" transform="translate(0 7)">
        <mask id="mask-2" fill="#fff">
          <use xlink:href="#path-1"/>
        </mask>
        <path id="Fill-1" fill="#494949" mask="url(#mask-2)" d="M0 99h94V0H0z"/>
      </g>
      <g id="Group-6" transform="translate(31 12)">
        <mask id="mask-4" fill="#fff">
          <use xlink:href="#path-3"/>
        </mask>
        <path id="Fill-4" fill="#494949" mask="url(#mask-4)" d="M0 7h10V0H0z"/>
      </g>
      <g id="Group-9" transform="translate(30)">
        <mask id="mask-6" fill="#fff">
          <use xlink:href="#path-5"/>
        </mask>
        <path id="Fill-7" fill="#494949" mask="url(#mask-6)" d="M0 48.01h28V0H0z"/>
      </g>
      <g id="Group-12" transform="translate(128 20)">
        <mask id="mask-8" fill="#fff">
          <use xlink:href="#path-7"/>
        </mask>
        <path id="Fill-10" fill="#494949" mask="url(#mask-8)" d="M.05 47.92h202.91V.14H.06z"/>
      </g>
      <g id="Group-15" transform="translate(296 22)">
        <mask id="mask-10" fill="#fff">
          <use xlink:href="#path-9"/>
        </mask>
        <path id="Fill-13" fill="#4F4F4F" mask="url(#mask-10)" d="M.1 6.9h6.87V.03H.1z"/>
      </g>
      <g id="Group-18" transform="translate(108 32)">
        <mask id="mask-12" fill="#fff">
          <use xlink:href="#path-11"/>
        </mask>
        <path id="Fill-16" fill="#494949" mask="url(#mask-12)" d="M0 26h19.9V.07H0z"/>
      </g>
      <g id="Group-21" transform="translate(186 71)">
        <mask id="mask-14" fill="#fff">
          <use xlink:href="#path-13"/>
        </mask>
        <path id="Fill-19" fill="#BFBFBF" mask="url(#mask-14)" d="M.05 20h19.94V.04H.05z"/>
      </g>
      <g id="Group-24" transform="translate(224 71)">
        <mask id="mask-16" fill="#fff">
          <use xlink:href="#path-15"/>
        </mask>
        <path id="Fill-22" fill="#BFBFBF" mask="url(#mask-16)" d="M.06 20H16.9V.04H.06z"/>
      </g>
      <g id="Group-27" transform="translate(257 71)">
        <mask id="mask-18" fill="#fff">
          <use xlink:href="#path-17"/>
        </mask>
        <path id="Fill-25" fill="#BFBFBF" mask="url(#mask-18)" d="M.1 20h15.88V0H.1z"/>
      </g>
      <g id="Group-30" transform="translate(154 71)">
        <mask id="mask-20" fill="#fff">
          <use xlink:href="#path-19"/>
        </mask>
        <path id="Fill-28" fill="#BFBFBF" mask="url(#mask-20)" d="M.1 20H16V.04H.1z"/>
      </g>
    </g>
  </g>
</svg>
