<svg width="331" height="106" xmlns="http://www.w3.org/2000/svg" xmlns:xlink="http://www.w3.org/1999/xlink"><defs><path d="M29.84 10.996c.324 2.27-.171 4.6-1.257 6.595-1.246 2.493-3.225 4.545-4.304 7.13-.6 1.48-.866 3.465.477 4.627 1.574 1.245 3.67 1.36 5.587 1.357.984-.06 1.973 0 2.939.197a20.604 20.604 0 0 0-7.323 6.344c-3.713-1.454-7.829-5.023-8.515-8.573-.328-1.414-.012-2.918.668-4.176 2.149-3.94 6.454-6.215 8.162-10.455.949-2.41 1.11-5.073.835-7.632-.167-1.56-.628-3.061-.989-4.58 1.775 2.785 3.301 5.84 3.72 9.166zm17.263 18.936c3.097.333 5.42.594 6.967.782 1.9.176 4.012.084 5.65-1.03 1.502-.936 1.77-2.96 1.417-4.57-.7-3.162-2.7-5.77-3.94-8.704-.752-1.7-1.16-3.565-1.136-5.428.238-4.17 2.521-7.838 5.056-10.982-1.115 2.614-1.921 5.41-1.878 8.281a12.34 12.34 0 0 0 1.69 6.643c1.602 2.702 3.918 4.865 5.602 7.508.943 1.443 1.699 3.09 1.768 4.847.185 1.934-.564 3.817-1.537 5.437-.795 1.259-2.231 3.438-5.73 5.409.133.202.27.401.406.603 1.402.048 2.83-.008 4.206.325 2.389.579 4.561 1.91 6.285 3.67 1.316 1.304 2.266 2.918 3.182 4.521-3.157 2.351-7.22 3.163-11.074 2.916-.2 3.525-.016 7.142 1.197 10.486.73 1.952 1.883 3.867 3.68 4.975 3.316 2.093 6.312 4.662 9.204 7.31 4.816-6.052 7.782-13.59 8.442-21.339.274-3.937.22-7.943-.638-11.81-1.54-7.78-5.465-15.056-11.072-20.587-3.688-3.821-8.252-6.701-13.105-8.745-.27-1.455-.187-2.931-.008-4.39 7.873 2.57 14.97 7.417 20.46 13.67 6.023 6.897 10.053 15.586 11.3 24.723 1.234 8.443.193 17.216-3.064 25.09-4.905 12.122-14.952 21.993-27.102 26.478-3.663 1.412-7.517 2.28-11.412 2.688-7.787.904-15.79-.316-23.012-3.39-8.735-3.684-16.324-10.117-21.423-18.201-7.796-12.086-9.638-27.872-4.881-41.48 3.256-9.51 9.569-17.92 17.772-23.59 1.456-.997 2.92-2.005 4.517-2.759-.059 1.713-.468 3.42-1.313 4.913-.844 1.433-1.995 2.65-3.21 3.764-6.945 6.301-11.616 15.16-12.778 24.551-1.035 7.553.101 15.401 3.298 22.306 3.117 6.858 8.182 12.81 14.45 16.89 2.444-1.762 4.73-3.854 6.277-6.49 2.61-4.152 3.16-9.524 1.593-14.17-.286-1.082-1.402-1.507-2.334-1.86-4.47-1.44-9.232-1.147-13.855-1.195-.974.081-1.839-.548-2.452-1.25-1.281-1.675-1.685-3.882-1.553-5.956.063-1 .51-2.105 1.498-2.475 2.475-1.002 4.646-2.587 6.875-4.038.857-.606 1.794-1.139 2.489-1.947 1.976-2.672 4.057-5.32 6.665-7.393 1.533-1.33 3.062-2.7 4.849-3.675 1.119-.626 2.415-.73 3.632-1.043.811-.209 3.505-.305 8.08-.29z" id="a"/><path d="M5.376 5.264C3.791 5.734 2.734 6.287 1.074 7c.016-.615.007-1.09-.028-1.425C1 5.115.863 4.455.636 3.591L0 2.593A45.553 45.553 0 0 1 8.776.217c.217-.036.968-.183 1.186-.216.311-.047-1.358 1.244-2.436 2.547C6.5 3.79 5.536 5.216 5.376 5.264z" id="c"/><path d="M18.37 25.311l-2.5 9.54 1.367 13.13-1.38.019-1.766-13.274 2.375-8.394-1.94 1.02-2.183 6.63.517 14.016h-1.466l-.703-14.358 1.745-5.446-2.638 1.173-3.049-.637-3.044 2.936-3.018-.726L0 30.49l.6-.963 4.972-8.093.35-1.132 3.696-5.287c1.302-1.495 2.658-2.562 4.082-3.212 1.17-.536 1.657-.713 2.184-.774.456-.052.399-.058 2.131.15 1.278.151 2.152.567 2.603 1.255.462-.65.597-1.102.45-1.34-.127-.204-.206-.27-1.588-1.38-.095-.075-.18-.144-.26-.21-.642-.522-1.045-.895-1.276-1.206-.446-.601-.788-1.659-1.037-3.18l.371-2.555c.291-.956.67-1.567 1.16-1.853.97-.568 1.595-.762 2.766-.697l.407.022c.659.037.905.084 1.194.26.214.13.412.313.796.724.443.473.51.825.43 1.453-.029.227-.035.314-.022.42a.644.644 0 0 0 .14.33c.344.441 1.42 1.508 3.214 3.186l.637.595-.828-.267c-2.26-.727-3.771-1.228-4.538-1.504-.904-.326-1.242-.247-1.63.178-.263.287-.163.943.296 1.46.183.206.444.43.828.719.108.081.216.161.384.284.633.462.822.605 1.066.825.683.615 1.063 1.448 1.284 2.773.143.864.208 1.953.195 3.269-1.295 3.749-2.107 5.93-2.455 6.625-.36.72-1.192 1.478-2.497 2.286l-1.735 1.661z" id="e"/><path d="M25.048 16.966L15.63 41.51c-.742 1.818-1.732 3.341-2.97 4.569-1.239 1.227-3.104 1.841-5.597 1.841a9.196 9.196 0 0 1-1.644-.14 30.719 30.719 0 0 1-1.81-.396l.804-4.965c.22.031.45.062.686.093.237.031.442.047.615.047 1.152 0 2.036-.276 2.65-.828a5.456 5.456 0 0 0 1.42-2.062l.782-1.912L2.449 16.99l-2.39-4.476H12.6l-2.864 4.57 3.503 10.07.355 1.817.142.024 4.046-11.912-2.887-4.569h12.542l-2.39 4.453zm4.368-.35v-4.103h10.105l.284 3.334c.82-1.212 1.85-2.149 3.088-2.81 1.238-.66 2.67-.99 4.295-.99 1.64 0 3.045.358 4.212 1.073 1.167.714 2.05 1.794 2.65 3.24.79-1.352 1.814-2.409 3.077-3.17 1.262-.762 2.745-1.143 4.448-1.143 2.525 0 4.516.859 5.976 2.576 1.459 1.717 2.188 4.332 2.188 7.844v10.49l3.337 4.778H59.848l2.982-4.779V22.444c0-1.912-.316-3.24-.947-3.987-.631-.745-1.57-1.118-2.816-1.118-.978 0-1.826.213-2.544.64a4.7 4.7 0 0 0-1.715 1.784c0 .295.007.548.023.757.016.21.024.424.024.641v11.795l2.792 4.779h-12.47l2.792-4.779V22.444c0-1.865-.316-3.182-.947-3.952-.63-.769-1.577-1.153-2.84-1.153-.93 0-1.747.174-2.449.524a4.678 4.678 0 0 0-1.739 1.48v13.613l2.982 4.779H29.77l3.337-4.779v-15.64l-3.692-.7zm71.243 9.207c0 3.761-.852 6.768-2.556 9.021-1.704 2.254-4.165 3.38-7.383 3.38-1.499 0-2.8-.307-3.905-.92-1.104-.614-2.035-1.504-2.792-2.67l-.497 3.1h-5.963V6.175L73.895 1.37h10.554v13.823c.741-1.01 1.629-1.787 2.662-2.33 1.033-.545 2.22-.817 3.561-.817 3.25 0 5.727 1.209 7.43 3.625 1.705 2.416 2.557 5.637 2.557 9.662v.49zm-6.887-.49c0-2.454-.366-4.4-1.1-5.838-.734-1.438-1.984-2.156-3.75-2.156-1.073 0-1.98.221-2.722.664-.742.443-1.325 1.076-1.751 1.9v10.652a4.32 4.32 0 0 0 1.763 1.772c.75.404 1.668.606 2.757.606 1.782 0 3.029-.618 3.739-1.853.71-1.236 1.064-2.988 1.064-5.257v-.49zm13.205 7.623v-15.64l-3.692-4.803h10.602v20.443l3.313 4.779h-13.56l3.337-4.779zm.108-26.853l-.05-5.96 7.342 4.389-.185 3.6-7.016-.279-.091-1.75zM119.47 24.89c0-3.76 1.07-6.841 3.207-9.242 2.137-2.401 5.092-3.602 8.862-3.602 3.786 0 6.748 1.197 8.886 3.59 2.137 2.393 3.206 5.478 3.206 9.254v.49c0 3.791-1.069 6.88-3.206 9.265-2.138 2.386-5.084 3.578-8.839 3.578-3.802 0-6.772-1.192-8.91-3.578-2.137-2.385-3.206-5.474-3.206-9.265v-.49zm7.516.49c0 2.3.41 4.145 1.23 5.536.82 1.39 2.146 2.086 3.976 2.086 1.783 0 3.088-.7 3.916-2.098.829-1.399 1.243-3.24 1.243-5.524v-.49c0-2.238-.418-4.064-1.254-5.478-.837-1.414-2.154-2.121-3.952-2.121-1.799 0-3.108.707-3.928 2.121-.82 1.414-1.23 3.24-1.23 5.478v.49zm29.244-19.045v6.177h4.496l-4.496 4.779v12.844c0 .979.205 1.678.615 2.098.41.42.962.63 1.656.63.474 0 .888-.02 1.243-.06a12.36 12.36 0 0 0 1.195-.197l.591 4.918c-.773.233-1.538.408-2.295.524-.757.117-1.577.175-2.46.175-2.383 0-4.217-.645-5.503-1.934-1.286-1.29-1.928-3.334-1.928-6.13V17.291l-3.763-4.779h3.763V6.336h6.886zm12.215 26.62v-15.64l-3.691-4.803h10.6v20.443l3.314 4.779h-13.56l3.337-4.779zm24.516.047c1.23 0 2.216-.354 2.958-1.06.741-.708 1.112-1.652 1.112-2.833l5.387 1.653c-.603 2.173-1.294 3.697-2.073 4.572-1.168 1.312-4.403 2.89-7.384 2.89-3.818 0-6.76-1.19-8.827-3.567-2.067-2.378-3.1-5.431-3.1-9.16v-.7c0-3.714 1.061-6.768 3.183-9.161s5.147-3.59 9.075-3.59c2.067 0 3.92.303 5.561.91 1.64.606 3.005 1.46 4.094 2.563l-5.514 6.737-1.136-3.94a4.38 4.38 0 0 0-1.277-.734c-.505-.194-1.081-.291-1.728-.291-1.956 0-3.336.7-4.141 2.098-.805 1.399-1.207 3.201-1.207 5.408v.7c0 2.252.37 4.067 1.112 5.442.742 1.375 2.043 2.063 3.905 2.063z" id="g"/><path id="i" d="M6.912 5.155L6.827 6.66.28 6.9.107 3.807 6.958.035z"/><path d="M18.993 9.094l-5.078-3.12c-.447-.37-1.01-.678-1.689-.925-.678-.246-1.428-.37-2.248-.37-1.149 0-2.058.266-2.73.798-.67.531-1.006 1.198-1.006 1.999 0 .755.32 1.383.962 1.883.641.501 1.924.944 3.848 1.33 2.997.616 5.22 1.521 6.666 2.715 1.447 1.194 2.17 2.84 2.17 4.935 0 2.25-.936 4.087-2.807 5.512-1.872 1.425-4.337 2.138-7.394 2.138-1.864 0-3.576-.281-5.134-.844a13.01 13.01 0 0 1-4.15-2.415l-.067-5.616 5.458 3.259c.388.339.917.589 1.589.75a8.946 8.946 0 0 0 2.103.243c1.327 0 2.337-.246 3.03-.74.694-.492 1.041-1.163 1.041-2.01 0-.74-.35-1.379-1.051-1.918-.701-.54-1.991-1.017-3.87-1.433-2.85-.601-5-1.491-6.455-2.67C.727 11.416 0 9.81 0 7.776c0-2.095.835-3.902 2.506-5.42C4.176.84 6.555.08 9.642.08c1.88 0 3.658.262 5.336.786 1.678.524 2.994 1.194 3.948 2.01l.067 6.218z" id="k"/><path d="M1.54 17.395L7.892.041h4.286l6.309 17.354L19.978 20h-7.111l1.448-2.646-.918-2.741H6.63l-.918 2.741L7.16 20H.05l1.491-2.605zm6.08-5.73h4.788l-2.351-7.032H9.97l-2.35 7.032z" id="m"/><path d="M8.81.04c2.316 0 4.123.458 5.42 1.372 1.298.913 1.947 2.28 1.947 4.098 0 .923-.241 1.748-.723 2.475-.482.726-1.183 1.272-2.102 1.638 1.18.256 2.066.804 2.656 1.645.59.84.886 1.814.886 2.92 0 1.91-.622 3.356-1.866 4.338C13.785 19.51 12.023 20 9.743 20H.064l2.096-2.81V2.865L.064.04H8.81zM6.107 8.404h2.838c1.055 0 1.866-.22 2.433-.658.568-.439.852-1.079.852-1.92 0-.922-.286-1.603-.858-2.042-.573-.439-1.426-.658-2.562-.658H6.107v5.278zm0 2.769v5.757h3.636c1.045 0 1.843-.23 2.392-.692.55-.461.825-1.145.825-2.05 0-.977-.234-1.724-.703-2.24-.469-.517-1.207-.775-2.217-.775H6.107z" id="o"/><path d="M12.469 6.483l-.555-2.669c-.37-.213-.91-.4-1.621-.56-.71-.16-1.465-.24-2.263-.24-1.169 0-2.072.224-2.71.673-.637.45-.956 1.03-.956 1.742 0 .658.334 1.198 1 1.62.668.423 1.819.87 3.454 1.342 2.346.596 4.125 1.383 5.337 2.361 1.212.979 1.818 2.264 1.818 3.856 0 1.664-.72 2.976-2.16 3.937-1.442.96-3.34 1.44-5.696 1.44-1.684 0-3.205-.244-4.563-.733-1.358-.49-2.49-1.166-3.395-2.028l3.3-4.057.453 2.762c.428.32 1.01.585 1.745.794.735.21 1.555.314 2.46.314 1.168 0 2.057-.218 2.665-.654.609-.436.913-1.018.913-1.748 0-.747-.29-1.347-.869-1.801-.58-.454-1.594-.88-3.045-1.281-2.521-.667-4.429-1.459-5.724-2.375C.762 8.262.115 7.008.115 5.415c0-1.574.73-2.862 2.19-3.863C3.765.552 5.601.038 7.81.012c1.636 0 3.125.226 4.469.68 1.343.453 2.473 1.058 3.388 1.814l-3.198 3.977z" id="q"/><path id="s" d="M.114 20l2.247-2.81V2.865L.114.04h8.743L6.595 2.865v14.064h5.959l3.436-2.508V20z"/></defs><g fill="none" fill-rule="evenodd"><g transform="translate(0 7)"><mask id="b" fill="#fff"><use xlink:href="#a"/></mask><path fill="#494949" mask="url(#b)" d="M0 99.006h94.006V-.006H0z"/></g><g transform="translate(31 12)"><mask id="d" fill="#fff"><use xlink:href="#c"/></mask><path fill="#494949" mask="url(#d)" d="M-.006 7H10V-.006H-.006z"/></g><g transform="translate(30)"><mask id="f" fill="#fff"><use xlink:href="#e"/></mask><path fill="#494949" mask="url(#f)" d="M-.006 48.012H28V-.006H-.006z"/></g><g transform="translate(128 20)"><mask id="h" fill="#fff"><use xlink:href="#g"/></mask><path fill="#494949" mask="url(#h)" d="M.054 47.923h202.91V.136H.054z"/></g><g transform="translate(296 22)"><mask id="j" fill="#fff"><use xlink:href="#i"/></mask><path fill="#4F4F4F" mask="url(#j)" d="M.095 6.903h6.871V.031H.096z"/></g><g transform="translate(108 32)"><mask id="l" fill="#fff"><use xlink:href="#k"/></mask><path fill="#494949" mask="url(#l)" d="M-.006 26h19.898V.07H-.006z"/></g><g transform="translate(186 71)"><mask id="n" fill="#fff"><use xlink:href="#m"/></mask><path fill="#BFBFBF" mask="url(#n)" d="M.048 20.006h19.94V.029H.048z"/></g><g transform="translate(224 71)"><mask id="p" fill="#fff"><use xlink:href="#o"/></mask><path fill="#BFBFBF" mask="url(#p)" d="M.063 20.006h16.834V.029H.063z"/></g><g transform="translate(257 71)"><mask id="r" fill="#fff"><use xlink:href="#q"/></mask><path fill="#BFBFBF" mask="url(#r)" d="M.098 20h15.877V0H.098z"/></g><g transform="translate(154 71)"><mask id="t" fill="#fff"><use xlink:href="#s"/></mask><path fill="#BFBFBF" mask="url(#t)" d="M.097 20.006H16V.029H.097z"/></g></g></svg>