<svg id="Ebene_1" xmlns="http://www.w3.org/2000/svg" width="480" height="190" viewBox="0 0 480 190">
  <style>
    .st0{fill:#162f4c}.st1{fill:#00caf4}.st3{opacity:.2;fill:#fff}.st6{fill:#002d4f}.st9{opacity:.3;fill:#004972}.st10{fill:#ffc600}.st23{opacity:.4;fill:#fff}
  </style>
  <switch>
    <g>
      <path class="st0" d="M439.7 121l-12.2-17.8a18 18 0 0 0 12.3-17.9v-.2c0-11.9-8.2-19-21.7-19h-24.6c-1 0-1.8.8-1.8 1.8V122c0 1 .8 1.8 1.8 1.8h9.1c1 0 1.8-.8 1.8-1.8v-16.7h10l11.8 17.7c.3.5.9.8 1.5.8h10.5c1.4 0 2.3-1.6 1.5-2.8zM427 86c0 4.9-3.5 8.1-9.7 8.1h-12.8V77.6h12.6c6.2 0 10 2.8 10 8.2v.2zM333.5 66.2H324c-.8 0-1.5.5-1.7 1.3l-11.6 37.8-12.5-38c-.2-.7-.9-1.2-1.7-1.2h-8.3c-.8 0-1.4.5-1.7 1.2l-12.5 38-11.6-37.8c-.2-.7-.9-1.3-1.7-1.3H251c-1.2 0-2.1 1.2-1.7 2.3l18.5 54.5c.2.7.9 1.2 1.7 1.2h8.5c.8 0 1.4-.5 1.7-1.2l12.6-36.5 12.6 36.5c.2.7.9 1.2 1.7 1.2h8.5c.8 0 1.4-.5 1.7-1.2l18.5-54.5c.2-1.1-.6-2.3-1.8-2.3zM383.1 112.5h-29.5v-12.1H379c1 0 1.8-.8 1.8-1.8v-7.7c0-1-.8-1.8-1.8-1.8h-25.4V77.5h29.1c1 0 1.8-.8 1.8-1.8V68c0-1-.8-1.8-1.8-1.8h-39.9c-1 0-1.8.8-1.8 1.8v54c0 1 .8 1.8 1.8 1.8h40.3c1 0 1.8-.8 1.8-1.8v-7.7c0-1-.8-1.8-1.8-1.8zM218.8 65.2A29.8 29.8 0 0 0 188.1 95v.2a29.5 29.5 0 0 0 30.5 29.6A29.8 29.8 0 0 0 249.3 95v-.2a29.5 29.5 0 0 0-30.5-29.6zm17.3 30c0 9.9-7.1 17.9-17.3 17.9s-17.5-8.2-17.5-18.1v-.2c0-9.9 7.1-17.9 17.3-17.9 10.2 0 17.5 8.2 17.5 18.1v.2zM186 66.2h-44.2c-1 0-1.8.8-1.8 1.8v8.1c0 .9.6 1.6 1.5 1.7h16.1V122c0 1 .8 1.8 1.8 1.8h9.1c1 0 1.8-.8 1.8-1.8V77.8h16.1c.8-.1 1.5-.9 1.5-1.7V68c-.2-1-.9-1.8-1.9-1.8z"/>
      <g>
        <path class="st1" d="M60.6 146.8v2.8c0 .2.2.4.4.4h37.6c.2 0 .4-.2.4-.4v-2.8H60.6z"/>
        <path transform="rotate(-180 80 63.4)" class="st1" d="M56.9 54.1h46.2v18.5H56.9z"/>
        <linearGradient id="SVGID_1_" gradientUnits="userSpaceOnUse" x1="56.9" y1="63.4" x2="103.1" y2="63.4">
          <stop offset=".4" stop-color="#fff" stop-opacity="0"/>
          <stop offset="1" stop-color="#fff"/>
        </linearGradient>
        <path opacity=".6" fill="url(#SVGID_1_)" d="M56.9 54.1h46.2v18.6H56.9z"/>
        <path class="st3" d="M96.4 71.1h6.7v-6.7z"/>
        <path opacity=".3" fill="#fff" d="M84 71.1l16.9-17h-24L60 71.1z"/>
        <path opacity=".3" fill="#004972" d="M56.9 54.1h46.2V56H56.9z"/>
        <path class="st3" d="M68.9 54.1h-12v12z"/>
        <path transform="rotate(-180 80 72)" class="st6" d="M56.9 71.1h46.2v1.7H56.9z"/>
        <path class="st6" d="M88.9 54.7h1.8v16.4h-1.8zM69.3 54.7h1.8v16.4h-1.8z"/>
        <linearGradient id="SVGID_2_" gradientUnits="userSpaceOnUse" x1="70" y1="71.1" x2="70" y2="54.7">
          <stop offset=".1" stop-color="#00caf4" stop-opacity="0"/>
          <stop offset=".6" stop-color="#00caf4" stop-opacity=".3"/>
          <stop offset=".6" stop-color="#00caf4" stop-opacity=".3"/>
          <stop offset=".8" stop-color="#00caf4" stop-opacity=".3"/>
          <stop offset="1" stop-color="#00caf4" stop-opacity=".1"/>
        </linearGradient>
        <path fill="url(#SVGID_2_)" d="M69.3 54.7h1.4v16.4h-1.4z"/>
        <linearGradient id="SVGID_3_" gradientUnits="userSpaceOnUse" x1="-14909.1" y1="71.1" x2="-14909.1" y2="54.7" gradientTransform="matrix(-1 0 0 1 -14819 0)">
          <stop offset=".1" stop-color="#00caf4" stop-opacity="0"/>
          <stop offset=".6" stop-color="#00caf4" stop-opacity=".3"/>
          <stop offset=".6" stop-color="#00caf4" stop-opacity=".3"/>
          <stop offset=".8" stop-color="#00caf4" stop-opacity=".3"/>
          <stop offset="1" stop-color="#00caf4" stop-opacity=".1"/>
        </linearGradient>
        <path fill="url(#SVGID_3_)" d="M89.3 54.7h1.4v16.4h-1.4z"/>
        <path class="st9" d="M71.1 54.7h.4v16.4h-.4zM88.5 54.7h.4v16.4h-.4z"/>
        <path class="st10" d="M105.4 77l-.7-3.9c0-.2-.2-.3-.4-.3H55.8c-.2 0-.4.1-.4.3l-.7 3.9h50.7z"/>
        <path d="M55.8 72.8c-.2 0-.4.1-.4.3v.1h49.4v-.1c0-.2-.2-.3-.4-.3H55.8z" opacity=".4" fill="#fff"/>
        <path class="st6" d="M114.3 86.4l-1.6-9c0-.2-.2-.3-.4-.3H47.7c-.2 0-.4.1-.4.3l-1.6 9h68.6z"/>
        <linearGradient id="SVGID_4_" gradientUnits="userSpaceOnUse" x1="45.7" y1="81.7" x2="114.3" y2="81.7">
          <stop offset=".1" stop-color="#00caf4" stop-opacity="0"/>
          <stop offset=".6" stop-color="#00caf4" stop-opacity=".3"/>
          <stop offset=".6" stop-color="#00caf4" stop-opacity=".3"/>
          <stop offset=".8" stop-color="#00caf4" stop-opacity=".3"/>
          <stop offset="1" stop-color="#00caf4" stop-opacity=".1"/>
        </linearGradient>
        <path d="M114.3 86.4l-1.6-9c0-.2-.2-.3-.4-.3H47.7c-.2 0-.4.1-.4.3l-1.6 9h68.6z" fill="url(#SVGID_4_)"/>
        <path d="M57.9 114.8v31c0 .6.5 1 1 1H101c.6 0 1-.5 1-1v-31H57.9z" fill="#004972"/>
        <path class="st6" d="M47.7 77c-.2 0-.4.1-.4.3v.1h65.4v-.1c0-.2-.2-.3-.4-.3H47.7z"/>
        <path class="st10" d="M48.8 43.6h62.5l-.9-3.2c-.1-.2-.2-.4-.5-.4H50c-.2 0-.4.2-.5.4l-.7 3.2z"/>
        <path opacity=".3" fill="#b47d4f" d="M48.8 43.6h62.5l-.3-.9H49z"/>
        <path class="st6" d="M46.3 54.7h67.6c.2 0 .3-.1.3-.3l1.7-10.9H44.3l1.6 10.9c.1.2.2.3.4.3z"/>
        <linearGradient id="SVGID_5_" gradientUnits="userSpaceOnUse" x1="44.3" y1="48.8" x2="115.8" y2="48.8">
          <stop offset=".1" stop-color="#00caf4" stop-opacity="0"/>
          <stop offset=".6" stop-color="#00caf4" stop-opacity=".3"/>
          <stop offset=".6" stop-color="#00caf4" stop-opacity=".3"/>
          <stop offset=".8" stop-color="#00caf4" stop-opacity=".3"/>
          <stop offset="1" stop-color="#00caf4" stop-opacity=".1"/>
        </linearGradient>
        <path fill="url(#SVGID_5_)" d="M114.2 54.1l1.6-10.5H44.3l1.6 10.5z"/>
        <path fill="#fff" d="M44.4 44.2h71.3l.1-.6H44.3z"/>
        <path opacity=".3" fill="#804b1b" d="M105.4 77l-.3-1.3H54.9l-.2 1.3z"/>
        <linearGradient id="SVGID_6_" gradientUnits="userSpaceOnUse" x1="54.7" y1="74.9" x2="105.4" y2="74.9">
          <stop offset=".4" stop-color="#fff" stop-opacity="0"/>
          <stop offset="1" stop-color="#fff"/>
        </linearGradient>
        <path d="M105.4 77l-.7-3.9c0-.2-.2-.3-.4-.3H55.8c-.2 0-.4.1-.4.3l-.7 3.9h50.7z" opacity=".5" fill="url(#SVGID_6_)"/>
        <path opacity=".3" fill="#002d4f" d="M114.3 86.4l-.4-2.2H46.1l-.4 2.2z"/>
        <linearGradient id="SVGID_7_" gradientUnits="userSpaceOnUse" x1="80" y1="146.8" x2="80" y2="114.8">
          <stop offset=".4" stop-color="#fff" stop-opacity="0"/>
          <stop offset="1" stop-color="#fff"/>
        </linearGradient>
        <path d="M57.9 114.8v31c0 .6.5 1 1 1H101c.6 0 1-.5 1-1v-31H57.9z" opacity=".3" fill="url(#SVGID_7_)"/>
        <path opacity=".2" fill="#004972" d="M60.6 146.8H99v.6H60.6z"/>
        <path d="M69.1 114.8H57.9v31c0 .6.5 1 1 1h10.2v-32z" opacity=".4" fill="#002d4f"/>
        <path class="st23" d="M102.1 145.7v-31H90.9v32H101c.6.1 1.1-.4 1.1-1z"/>
        <path class="st10" d="M120 94l-1.7-7c-.1-.4-.4-.7-.8-.7H42.6c-.4 0-.7.3-.8.7L40 94l.1.3 13.1 20c.1.2.4.4.7.4h52.2c.3 0 .5-.1.7-.4l13.1-20 .1-.3z"/>
        <linearGradient id="SVGID_8_" gradientUnits="userSpaceOnUse" x1="63.6" y1="120.5" x2="91.9" y2="71.5">
          <stop offset=".4" stop-color="#fff" stop-opacity="0"/>
          <stop offset="1" stop-color="#fff"/>
        </linearGradient>
        <path d="M120 94l-1.7-7c-.1-.4-.4-.7-.8-.7H42.6c-.4 0-.7.3-.8.7L40 94l.1.3 13.1 20c.1.2.4.4.7.4h52.2c.3 0 .5-.1.7-.4l13.1-20 .1-.3z" opacity=".6" fill="url(#SVGID_8_)"/>
        <path d="M120 94l-1.7-7c-.1-.4-.4-.7-.8-.7H42.6c-.4 0-.7.3-.8.7L40 94l.1.3 13.1 20c.1.2.4.4.7.4h52.2c.3 0 .5-.1.7-.4l13.1-20 .1-.3z" fill="none"/>
        <path class="st23" d="M40 94.2h80l-.2-.7H40.2z"/>
        <path d="M41.8 87L40 94l.1.3 13.1 20c.1.2.4.4.7.4h15.5a.8.8 0 0 1-.7-.4L55.4 94.2l1.9-7.5c0-.2.2-.3.4-.3H42.6c-.4 0-.7.2-.8.6z" opacity=".3" fill="#b27d4f"/>
        <path d="M40 94.2l.1.2 13.1 20c.1.2.4.4.7.4h52.2c.3 0 .5-.1.7-.4l13.1-20 .1-.2H40z" opacity=".6" fill="#b27d4f"/>
        <path class="st23" d="M102.7 86.7l1.9 7.5-13.2 20.1c-.2.3-.4.4-.7.4h15.5c.3 0 .5-.1.7-.4l13.1-20 .1-.3-1.7-7c-.1-.4-.4-.7-.8-.7h-15.1l.2.4z"/>
        <path opacity=".4" fill="#002d4f" d="M57.9 114.8h44.2v2.6H57.9z"/>
      </g>
    </g>
  </switch>
</svg>
