<svg xmlns="http://www.w3.org/2000/svg" viewBox="0 148.2 380 123.7">
  <linearGradient id="a" gradientUnits="userSpaceOnUse" x1="307.5" y1="-6.1" x2="307.5" y2="13.07" gradientTransform="matrix(1 0 0 -1 -116 175)">
    <stop offset="0" stop-color="#555"/>
    <stop offset=".54"/>
  </linearGradient>
  <path fill="url(#a)" d="M63 162.2h5.4l4 12.6 4-12.6h5.4l-6.6 18.4h-5.5L63 162.2zm78.2 0h9.2c2.1 0 3.7.6 5.1 1.8 1.3 1.2 2 2.6 2 4.4 0 .8-.1 1.5-.3 2.1-.4 1-1 1.9-1.8 2.6-.3.3-.6.4-.8.6l-.6.3 4.3 6.6h-5.5L149 175h-2.4v5.6h-5.3l-.1-18.4zm5.3 4.3v4.2h4.1c1 0 2.2-.7 2.2-2.2 0-1.2-1.2-2.1-2.2-2.1h-4.1v.1zm135.4-4.3v18.4h-4.5l-7.8-10.2v10.2h-5v-18.4h4.3l7.7 10.1v-10.1h5.3zm38.1 0v4.7h-5.3v13.7h-5.2v-13.7h-5.3v-4.7H320zm-135.2 7.5v10.9h-4.9v-18.4h5.1l4.8 7.3 4.6-7.3h5.2v18.4h-5v-10.9l-4.7 7.3-5.1-7.3zm54.1 8.6c-1.9 1.9-4.2 2.9-6.9 2.9s-5-1-6.9-2.9c-1.9-1.9-2.8-4.1-2.8-6.7s1-4.8 2.8-6.7c1.9-1.9 4.2-2.9 6.9-2.9 2.8 0 5 1 6.9 2.9 3.7 3.5 3.9 9.3.4 13-.1.1-.2.3-.4.4zm-10.3-3.2c1 1 2.1 1.5 3.5 1.5s2.5-.5 3.5-1.5 1.4-2.2 1.4-3.6c.1-2.7-2-5-4.7-5.1h-.2c-2.7 0-4.9 2.2-4.8 4.9v.2c-.1 1.4.4 2.6 1.3 3.6zm-110 1.3v4.2H104v-18.4h14.6v4.2H109v2.8h8.6v4H109v3.1h9.6v.1z"/>
  <linearGradient id="b" gradientUnits="userSpaceOnUse" x1="307.1" y1="-43.01" x2="307.1" y2="-11.31" gradientTransform="matrix(1 0 0 -1 -116 175)">
    <stop offset="0" stop-color="#555"/>
    <stop offset=".54"/>
  </linearGradient>
  <path fill="url(#b)" d="M66.6 208.5c1.6 1.6 2.9 2.2 5.3 2.2 1.5 0 2.4-.3 3.7-.9 1.3-.7 2.2-1.3 2.8-2l.9-1 5.4 4.9c-.6.8-1.2 1.5-2 2.2-.8.7-1.6 1.3-2.5 1.9-.9.5-2 1.1-3.5 1.6s-3.1.8-4.7.8c-4.5 0-8.2-.9-11.4-4.1-3.1-3.2-4.7-7-4.7-11.4s1.6-8.2 4.7-11.4c3.1-3.2 7-4.8 11.5-4.8 2.8 0 5.5.7 7.9 2.2 1 .6 1.6 1.2 2.3 1.9 1.5 1.4 2.2 2.6 2.2 2.6l-5.6 4.7c-.1-.1-.8-1-1.3-1.4s-.9-.9-1.6-1.2c-.5-.3-2.2-1.4-4.1-1.4-2.4 0-4.3.9-6 2.5-1.6 1.6-2.1 3.6-2.1 6.2.5 2.4 1.2 4.2 2.8 5.9zm47.8 4.8c-3.1 3.1-6.8 4.7-11.3 4.7-4.4 0-8.2-1.6-11.3-4.7-3-2.9-4.7-6.9-4.7-11.1 0-4.3 1.6-8 4.7-11.1 3.1-3.1 6.8-4.7 11.3-4.7 4.4 0 8.2 1.6 11.3 4.7 3.1 3.1 4.7 6.8 4.7 11.1s-1.6 8-4.7 11.1zM97.6 208c1.5 1.6 3.4 2.4 5.6 2.4 2.2 0 4.1-.8 5.6-2.4s2.2-3.5 2.2-6c0-2.4-.8-4.4-2.2-6a7.47 7.47 0 0 0-5.6-2.3c-2.2 0-4.1.8-5.6 2.3a8.29 8.29 0 0 0-2.2 6c-.1 2.4.6 4.4 2.2 6zm38-21c4.7 0 9.2 1.5 12.3 4.4 3 2.9 4.6 6.6 4.6 10.9s-1.6 7.9-4.6 10.9c-3 2.9-7.6 4.4-12.3 4.4h-11.7V187h11.7zm-3.5 7.4V210h3.5c2.2 0 4.5-.8 6-2.2 1.6-1.5 2.3-3.4 2.3-5.6 0-2.3-.7-4.1-2.2-5.6s-3.9-2.2-6.1-2.2h-3.5zm48.8 16.1v7h-24.1V187h24.1v7h-15.8v4.8h14.2v6.6h-14.2v5.2l15.8-.1zm57 1.3l-2.3 5.7h-8.9l12.2-30.5h9.2l12.1 30.5h-8.9l-2.3-5.7h-11.1zm5.5-16.4l-3.2 9.8h6.3l-3.1-9.8zm27.8 4v18H263V187h8.6l7.8 12.1L287 187h8.5v30.5h-8.4v-18l-7.9 12-8-12.1zM315 187c3.4 0 6 1 8.2 3 2.1 2 3.1 4.6 3.1 7.6 0 3.1-1 5.6-3.2 7.7-2.2 2.1-5.1 3.2-8.1 3.2h-5.7v9h-8.4V187H315zm-5.7 7.1v7.8h5.3c1.6 0 3.6-1.2 3.6-3.9 0-2.2-2.2-3.9-3.6-3.9h-5.3zM207 208.5c1.6 1.6 2.9 2.2 5.3 2.2 1.5 0 2.4-.3 3.7-.9 1.3-.7 2.2-1.3 2.8-2l.9-1 5.4 4.9c-.1.2-.3.4-.4.7a21.8 21.8 0 0 1-4 3.4c-.9.5-2 1.1-3.5 1.6s-3.1.8-4.7.8c-4.5 0-8.2-.9-11.4-4.1-3.1-3.2-4.7-7-4.7-11.4s1.6-8.2 4.7-11.4c3.1-3.2 7-4.8 11.5-4.8 2.8 0 5.5.7 7.9 2.2 1 .6 1.6 1.2 2.3 1.9 1.5 1.4 2.2 2.6 2.2 2.6l-5.6 4.7c-.1-.1-.8-1-1.3-1.4s-.9-.9-1.6-1.2c-.5-.3-2.2-1.4-4.1-1.4-2.4 0-4.3.9-6 2.5-1.6 1.6-2.1 3.6-2.1 6.2.4 2.4 1.1 4.2 2.7 5.9z"/>
  <linearGradient id="c" gradientUnits="userSpaceOnUse" x1="306" y1="-28.65" x2="306" y2="-.05" gradientTransform="matrix(1 0 0 -1 -116 175)">
    <stop offset="0" stop-color="#555"/>
    <stop offset=".54"/>
  </linearGradient>
  <path fill="url(#c)" d="M17.3 186.5l27.3-11.4v4.4l-23.4 10.2 23.4 9.6v4.3l-27.3-11.1v-6zm345.4 5.8l-27.3 11.1v-4.3l23.4-9.6-23.4-10.2V175l27.3 11.5v5.8z"/>
  <linearGradient id="d" gradientUnits="userSpaceOnUse" x1="306" y1="-45.01" x2="306" y2="-88.07" gradientTransform="matrix(1 0 0 -1 -116 175)">
    <stop offset="0" stop-color="#ddd"/>
    <stop offset=".32" stop-color="#f0f0f0"/>
    <stop offset=".65" stop-color="#fbfbfb"/>
    <stop offset="1" stop-color="#fff"/>
  </linearGradient>
  <path fill="url(#d)" d="M64.1 235.4c0 2.6.5 4.6 2.1 6.2 1.6 1.6 3.5 2.5 6 2.5 1.9 0 3.5-1 4.1-1.4.6-.3 1-.8 1.6-1.2.5-.4 1.2-1.3 1.3-1.4l5.6 4.7s-.8 1.2-2.2 2.6c-.7.7-1.4 1.3-2.3 1.9-2.4 1.4-5.1 2.2-7.9 2.2-4.5 0-8.4-1.6-11.5-4.8s-4.7-7-4.7-11.4 1.6-8.2 4.7-11.4c3.2-3.2 6.9-4.1 11.4-4.1 1.6 0 3.2.3 4.7.8s2.6 1 3.5 1.6c.9.6 1.7 1.2 2.5 1.9.8.6 1.4 1.4 2 2.2l-5.4 4.9-.9-1c-.6-.7-1.6-1.3-2.8-2-1.3-.6-2.2-.9-3.7-.9-2.3 0-3.7.5-5.3 2.2-1.9 1.6-2.6 3.4-2.8 5.9zm55 .4c0 4.3-1.6 8-4.7 11.1-3.1 3.1-6.9 4.7-11.3 4.7-4.5 0-8.2-1.6-11.3-4.7-3-2.9-4.7-6.9-4.7-11.1-.1-4.2 1.6-8.2 4.7-11.1 3.1-3.1 6.9-4.7 11.3-4.7 4.5 0 8.2 1.6 11.3 4.7 3.1 3.1 4.7 6.8 4.7 11.1zm-23.8.1c-.1 2.2.7 4.3 2.2 6 1.6 1.6 3.4 2.3 5.6 2.3 2.1.1 4.2-.8 5.6-2.3 1.5-1.6 2.2-3.5 2.2-6 0-2.4-.8-4.4-2.2-6a7.57 7.57 0 0 0-5.6-2.4c-2.2 0-4.1.9-5.6 2.4a8.29 8.29 0 0 0-2.2 6zm28.5 15.1v-30.6h11.7c4.7 0 9.2 1.5 12.3 4.4 3 2.9 4.6 6.6 4.6 10.9s-1.6 7.9-4.6 10.9c-3.1 2.9-7.6 4.4-12.3 4.4h-11.7zm11.9-7.4c2.2 0 4.7-.7 6.1-2.2 1.4-1.5 2.2-3.3 2.2-5.6 0-2.2-.8-4.1-2.3-5.6a8.91 8.91 0 0 0-6-2.2h-3.5v15.6h3.5zm29.4-16.1v5.2h14.2v6.6h-14.2v4.8h15.8v7h-24.1v-30.5h24.1v7l-15.8-.1zm83.8-1.3l2.3-5.7h8.9L248 251h-9.2l-12.2-30.5h8.9l2.3 5.7h11.1zm-5.5 16.3l3.1-9.8h-6.3l3.2 9.8zm27.8-4l7.9-12 7.9 12v-18h8.4V251h-8.5l-7.6-12.1-7.8 12.1H263v-30.5h8.2v18zM315 251h-14.1v-30.5h8.4v9h5.7c3 0 5.9 1.1 8.1 3.2 2.2 2.1 3.2 4.6 3.2 7.7 0 3-1 5.6-3.1 7.6-2.2 1.9-4.9 3-8.2 3zm-.5-7.2c1.5 0 3.6-1.7 3.6-3.9 0-2.7-2.1-3.9-3.6-3.9h-5.3v7.8h5.3zM207 229.5c-1.6 1.6-2.3 3.5-2.4 6 0 2.6.5 4.6 2.1 6.2 1.6 1.6 3.5 2.5 6 2.5 1.9 0 3.5-1 4.1-1.4.6-.3 1-.8 1.6-1.2.5-.4 1.2-1.3 1.3-1.4l5.6 4.7s-.8 1.2-2.2 2.6c-.7.7-1.4 1.3-2.3 1.9-2.4 1.4-5.1 2.2-7.9 2.2-4.5 0-8.4-1.6-11.5-4.8-3.1-3.2-4.7-7-4.7-11.4s1.6-8.2 4.7-11.4c3.2-3.2 6.9-4.1 11.4-4.1 1.6 0 3.2.3 4.7.8s2.6 1 3.5 1.6c1.5.9 2.8 2.1 4 3.4.2.3.3.5.4.7l-5.4 4.9-.9-1c-.6-.7-1.6-1.3-2.8-2-1.3-.6-2.2-.9-3.7-.9-2.7-.1-4 .4-5.6 2.1zm-189.7 16l27.3-11.1v4.3l-23.4 9.6 23.4 10.2v4.4l-27.3-11.4v-6zm345.4 6L335.4 263v-4.4l23.4-10.2-23.4-9.6v-4.3l27.3 11.1v5.9z"/>
</svg>
