<svg viewBox="0 0 560 80" xmlns="http://www.w3.org/2000/svg" fill-rule="evenodd" clip-rule="evenodd" stroke-linejoin="round" stroke-miterlimit="2">
  <path d="M72.9 7.8h6.3l4.6 14.6 4.6-14.6h6.3l-7.6 21.3h-6.4L72.9 7.8z" fill="url(#_Linear1)" fill-rule="nonzero" transform="translate(60)"/>
  <path d="M163.5 7.8h10.6c2.4 0 4.3.7 5.9 2.1 1.5 1.4 2.3 3 2.3 5.1a6 6 0 01-.4 2.4 7.7 7.7 0 01-2.1 3l-.9.7-.7.4 5 7.6h-6.4l-4.3-6.5h-2.8v6.5h-6.1V7.8h-.1zm6.1 5v4.9h4.7c1.2 0 2.5-.8 2.5-2.5 0-1.4-1.4-2.4-2.5-2.4h-4.7z" fill="url(#_Linear2)" fill-rule="nonzero" transform="translate(60)"/>
  <path d="M326.4 7.8v21.3h-5.2l-9-11.8v11.8h-5.8V7.8h5l8.9 11.7V7.8h6.1z" fill="url(#_Linear3)" fill-rule="nonzero" transform="translate(60)"/>
  <path d="M370.5 7.8v5.4h-6.1v15.9h-6V13.2h-6.1V7.8h18.2z" fill="url(#_Linear4)" fill-rule="nonzero" transform="translate(60)"/>
  <path d="M214 16.5v12.6h-5.7V7.8h5.9l5.5 8.4 5.3-8.4h6v21.3h-5.8V16.5l-5.5 8.4-5.7-8.4z" fill="url(#_Linear5)" fill-rule="nonzero" transform="translate(60)"/>
  <path d="M276.6 26.4a11 11 0 01-8 3.3 11 11 0 01-8-3.3 10.7 10.7 0 01-3.3-7.8c0-3 1.1-5.6 3.3-7.8a11 11 0 018-3.3c3.2 0 5.8 1.1 8 3.3 2.2 2.2 3.3 4.8 3.3 7.8s-1.1 5.6-3.3 7.8zm-11.9-3.7a5.4 5.4 0 004 1.7 5.7 5.7 0 005.6-6.1c0-3.1-2.5-5.7-5.6-5.7a5.7 5.7 0 00-5.6 5.9c0 1.7.5 3.1 1.6 4.2z" fill="url(#_Linear6)" fill-rule="nonzero" transform="translate(60)"/>
  <path d="M137.3 24.2v4.9h-16.9V7.8h16.9v4.9h-11.1V16h9.9v4.6h-9.9v3.6h11.1z" fill="url(#_Linear7)" fill-rule="nonzero" transform="translate(60)"/>
  <path d="M77.1 61.4c1.8 1.9 3.4 2.5 6.1 2.5a9 9 0 004.3-1c1.5-.8 2.6-1.5 3.3-2.3l1-1.1 6.3 5.7a22 22 0 01-5.2 4.7 19.7 19.7 0 01-9.4 2.7c-5.2 0-9.5-1.1-13.2-4.8a18.3 18.3 0 01-5.4-13.2c0-5.1 1.8-9.5 5.4-13.2 3.6-3.7 8.1-5.5 13.3-5.5 3.2 0 6.4.8 9.1 2.5 1.1.7 1.9 1.4 2.7 2.2a18 18 0 012.6 3L91.5 49 90 47.4c-.6-.5-1.1-1-1.8-1.4a9 9 0 00-4.7-1.6c-2.8 0-5 1-6.9 2.9-1.8 1.9-2.4 4.2-2.4 7.2.3 2.9 1.1 5 2.9 6.9z" fill="url(#_Linear8)" fill-rule="nonzero" transform="translate(60)"/>
  <path d="M132.5 67a17.7 17.7 0 01-13.1 5.4c-5.1 0-9.5-1.8-13.1-5.4-3.5-3.4-5.5-8-5.4-12.9 0-5 1.8-9.3 5.4-12.9 3.6-3.6 7.9-5.4 13.1-5.4 5.1 0 9.5 1.8 13.1 5.4 3.6 3.6 5.4 7.9 5.4 12.9s-1.8 9.3-5.4 12.9zM113 60.9a8.7 8.7 0 006.5 2.8c2.6 0 4.7-.9 6.5-2.8a9.7 9.7 0 002.6-6.9c0-2.8-.9-5.1-2.6-6.9a8.6 8.6 0 00-6.5-2.7c-2.6 0-4.7.9-6.5 2.7a9.7 9.7 0 00-2.6 6.9c0 2.7.8 5 2.6 6.9z" fill="url(#_Linear9)" fill-rule="nonzero" transform="translate(60)"/>
  <path d="M157 36.5c5.4 0 10.6 1.7 14.2 5.1a17 17 0 015.3 12.6c0 5-1.8 9.2-5.3 12.6a20.5 20.5 0 01-14.2 5.1h-13.6V36.5H157zm-4 8.6v18.1h4c2.5 0 5.2-.9 7-2.6a8.6 8.6 0 002.7-6.5c0-2.7-.8-4.8-2.5-6.5a10.3 10.3 0 00-7.1-2.5H153z" fill="url(#_Linear10)" fill-rule="nonzero" transform="translate(60)"/>
  <path d="M209.5 63.7v8.1h-27.9V36.5h27.9v8.1h-18.3v5.5h16.4v7.6h-16.4v6h18.3z" fill="url(#_Linear11)" fill-rule="nonzero" transform="translate(60)"/>
  <path d="M275.5 65.2l-2.7 6.6h-10.3l14.1-35.3h10.6l14 35.3h-10.3l-2.7-6.6h-12.7zm6.3-18.9l-3.7 11.4h7.3l-3.6-11.4z" fill="url(#_Linear12)" fill-rule="nonzero" transform="translate(60)"/>
  <path d="M314 50.9v20.9h-9.5V36.5h9.9l9 14 8.8-14h9.9v35.3h-9.7V50.9l-9.2 13.9-9.2-13.9z" fill="url(#_Linear13)" fill-rule="nonzero" transform="translate(60)"/>
  <path d="M364.7 36.5c3.9 0 7 1.2 9.5 3.5 2.4 2.3 3.6 5.3 3.6 8.8 0 3.6-1.2 6.5-3.7 8.9a13.3 13.3 0 01-9.4 3.7h-6.6v10.4h-9.7V36.5h16.3zm-6.6 8.3v9h6.1c1.8 0 4.2-1.4 4.2-4.5 0-2.5-2.5-4.5-4.2-4.5h-6.1z" fill="url(#_Linear14)" fill-rule="nonzero" transform="translate(60)"/>
  <path d="M239.7 61.4c1.8 1.9 3.4 2.5 6.1 2.5a9 9 0 004.3-1c1.5-.8 2.6-1.5 3.3-2.3l1-1.1 6.3 5.7-.5.8a22 22 0 01-4.6 3.9 19.7 19.7 0 01-9.4 2.7c-5.2 0-9.5-1.1-13.2-4.8a18.3 18.3 0 01-5.4-13.2c0-5.1 1.8-9.5 5.4-13.2 3.6-3.7 8.1-5.5 13.3-5.5 3.2 0 6.4.8 9.1 2.5 1.1.7 1.9 1.4 2.7 2.2a18 18 0 012.6 3l-6.5 5.4-1.5-1.6c-.6-.5-1.1-1-1.8-1.4a9 9 0 00-4.7-1.6c-2.8 0-5 1-6.9 2.9-1.8 1.9-2.4 4.2-2.4 7.2.1 2.9.9 5 2.8 6.9z" fill="url(#_Linear15)" fill-rule="nonzero" transform="translate(60)"/>
  <path d="M80 36l31.6-13.2v5.1L84.5 39.7l27.1 11.1v5L80 42.9V36zm400 6.7l-31.6 12.9v-5l27.1-11.1-27.1-11.8v-5.1L480 35.9v6.8z" fill="#bababa" fill-rule="nonzero"/>
  <text x="476.2" y="37.8" font-family="'ArsonPro-Bold','Arson Pro'" font-weight="700" font-size="40" fill="url(#_Linear16)" transform="matrix(1.30103 0 0 1.22157 -121.5 11.3)">
    11
  </text>
  <text x="471.4" y="37.8" font-family="'ArsonPro-Bold','Arson Pro'" font-weight="700" font-size="34.7" fill="url(#_Linear17)" transform="matrix(.74907 0 0 .74907 -331.3 4.7)">
    2<tspan x="494.8" y="37.8">0</tspan>
  </text>
  <text x="475" y="72" font-family="'ArsonPro-Bold','Arson Pro'" font-weight="700" font-size="41" fill="url(#_Linear18)" transform="matrix(.8784 0 0 .8784 -395.4 2)">
    1<tspan x="490.2" y="72">9</tspan>
  </text>
  <defs>
    <linearGradient id="_Linear1" x1="0" y1="0" x2="1" y2="0" gradientUnits="userSpaceOnUse" gradientTransform="matrix(0 -21.3 21.3 0 83.7 29.1)">
      <stop offset="0" stop-color="#d1d1d1"/>
      <stop offset=".5" stop-color="#fff"/>
      <stop offset="1" stop-color="#fff"/>
    </linearGradient>
    <linearGradient id="_Linear2" x1="0" y1="0" x2="1" y2="0" gradientUnits="userSpaceOnUse" gradientTransform="matrix(0 -21.3 21.3 0 173.3 29.1)">
      <stop offset="0" stop-color="#d1d1d1"/>
      <stop offset=".5" stop-color="#fff"/>
      <stop offset="1" stop-color="#fff"/>
    </linearGradient>
    <linearGradient id="_Linear3" x1="0" y1="0" x2="1" y2="0" gradientUnits="userSpaceOnUse" gradientTransform="matrix(0 -21.3 21.3 0 316.4 29.1)">
      <stop offset="0" stop-color="#d1d1d1"/>
      <stop offset=".5" stop-color="#fff"/>
      <stop offset="1" stop-color="#fff"/>
    </linearGradient>
    <linearGradient id="_Linear4" x1="0" y1="0" x2="1" y2="0" gradientUnits="userSpaceOnUse" gradientTransform="matrix(0 -21.3 21.3 0 361.5 29.1)">
      <stop offset="0" stop-color="#d1d1d1"/>
      <stop offset=".5" stop-color="#fff"/>
      <stop offset="1" stop-color="#fff"/>
    </linearGradient>
    <linearGradient id="_Linear5" x1="0" y1="0" x2="1" y2="0" gradientUnits="userSpaceOnUse" gradientTransform="matrix(0 -21.3 21.3 0 219.6 29.1)">
      <stop offset="0" stop-color="#d1d1d1"/>
      <stop offset=".5" stop-color="#fff"/>
      <stop offset="1" stop-color="#fff"/>
    </linearGradient>
    <linearGradient id="_Linear6" x1="0" y1="0" x2="1" y2="0" gradientUnits="userSpaceOnUse" gradientTransform="matrix(0 -22.1 22.1 0 268.6 29.7)">
      <stop offset="0" stop-color="#d1d1d1"/>
      <stop offset=".5" stop-color="#fff"/>
      <stop offset="1" stop-color="#fff"/>
    </linearGradient>
    <linearGradient id="_Linear7" x1="0" y1="0" x2="1" y2="0" gradientUnits="userSpaceOnUse" gradientTransform="rotate(-90 79 -49.9) scale(21.3)">
      <stop offset="0" stop-color="#d1d1d1"/>
      <stop offset=".5" stop-color="#fff"/>
      <stop offset="1" stop-color="#fff"/>
    </linearGradient>
    <linearGradient id="_Linear8" x1="0" y1="0" x2="1" y2="0" gradientUnits="userSpaceOnUse" gradientTransform="rotate(-90 77 -4.6) scale(36.6)">
      <stop offset="0" stop-color="#d1d1d1"/>
      <stop offset=".5" stop-color="#fff"/>
      <stop offset="1" stop-color="#fff"/>
    </linearGradient>
    <linearGradient id="_Linear9" x1="0" y1="0" x2="1" y2="0" gradientUnits="userSpaceOnUse" gradientTransform="rotate(-90 96 -23.5) scale(36.6)">
      <stop offset="0" stop-color="#d1d1d1"/>
      <stop offset=".5" stop-color="#fff"/>
      <stop offset="1" stop-color="#fff"/>
    </linearGradient>
    <linearGradient id="_Linear10" x1="0" y1="0" x2="1" y2="0" gradientUnits="userSpaceOnUse" gradientTransform="matrix(0 -35.3 35.3 0 160 71.8)">
      <stop offset="0" stop-color="#d1d1d1"/>
      <stop offset=".5" stop-color="#fff"/>
      <stop offset="1" stop-color="#fff"/>
    </linearGradient>
    <linearGradient id="_Linear11" x1="0" y1="0" x2="1" y2="0" gradientUnits="userSpaceOnUse" gradientTransform="matrix(0 -35.3 35.3 0 195.5 71.8)">
      <stop offset="0" stop-color="#d1d1d1"/>
      <stop offset=".5" stop-color="#fff"/>
      <stop offset="1" stop-color="#fff"/>
    </linearGradient>
    <linearGradient id="_Linear12" x1="0" y1="0" x2="1" y2="0" gradientUnits="userSpaceOnUse" gradientTransform="matrix(0 -35.3 35.3 0 281.8 71.8)">
      <stop offset="0" stop-color="#d1d1d1"/>
      <stop offset=".5" stop-color="#fff"/>
      <stop offset="1" stop-color="#fff"/>
    </linearGradient>
    <linearGradient id="_Linear13" x1="0" y1="0" x2="1" y2="0" gradientUnits="userSpaceOnUse" gradientTransform="matrix(0 -35.3 35.3 0 323.3 71.8)">
      <stop offset="0" stop-color="#d1d1d1"/>
      <stop offset=".5" stop-color="#fff"/>
      <stop offset="1" stop-color="#fff"/>
    </linearGradient>
    <linearGradient id="_Linear14" x1="0" y1="0" x2="1" y2="0" gradientUnits="userSpaceOnUse" gradientTransform="matrix(0 -35.3 35.3 0 363.1 71.8)">
      <stop offset="0" stop-color="#d1d1d1"/>
      <stop offset=".5" stop-color="#fff"/>
      <stop offset="1" stop-color="#fff"/>
    </linearGradient>
    <linearGradient id="_Linear15" x1="0" y1="0" x2="1" y2="0" gradientUnits="userSpaceOnUse" gradientTransform="matrix(0 -36.6 36.6 0 244.2 72.4)">
      <stop offset="0" stop-color="#d1d1d1"/>
      <stop offset=".5" stop-color="#fff"/>
      <stop offset="1" stop-color="#fff"/>
    </linearGradient>
    <linearGradient id="_Linear16" x1="0" y1="0" x2="1" y2="0" gradientUnits="userSpaceOnUse" gradientTransform="rotate(-90 265.3 -227.8) scale(27.5492)">
      <stop offset="0" stop-color="#d1d1d1"/>
      <stop offset=".5" stop-color="#fff"/>
      <stop offset="1" stop-color="#fff"/>
    </linearGradient>
    <linearGradient id="_Linear17" x1="0" y1="0" x2="1" y2="0" gradientUnits="userSpaceOnUse" gradientTransform="matrix(0 -25.8652 25.8652 0 468 37.3)">
      <stop offset="0" stop-color="#d1d1d1"/>
      <stop offset=".5" stop-color="#fff"/>
      <stop offset="1" stop-color="#fff"/>
    </linearGradient>
    <linearGradient id="_Linear18" x1="0" y1="0" x2="1" y2="0" gradientUnits="userSpaceOnUse" gradientTransform="rotate(-90 284 -212.9) scale(26.2633)">
      <stop offset="0" stop-color="#d1d1d1"/>
      <stop offset=".5" stop-color="#fff"/>
      <stop offset="1" stop-color="#fff"/>
    </linearGradient>
  </defs>
</svg>
