<svg xmlns="http://www.w3.org/2000/svg" viewBox="0 0 440 80">
  <linearGradient id="a" gradientUnits="userSpaceOnUse" x1="83.74" y1="29.12" x2="83.74" y2="7.82">
    <stop offset="0" stop-color="#d1d1d1"/>
    <stop offset=".54" stop-color="#fff"/>
  </linearGradient>
  <path fill="url(#a)" d="M72.9 7.8h6.3l4.6 14.6 4.6-14.6h6.3l-7.6 21.3h-6.4L72.9 7.8z"/>
  <linearGradient id="b" gradientUnits="userSpaceOnUse" x1="173.33" y1="29.12" x2="173.33" y2="7.82">
    <stop offset="0" stop-color="#d1d1d1"/>
    <stop offset=".54" stop-color="#fff"/>
  </linearGradient>
  <path fill="url(#b)" d="M163.5 7.8h10.6c2.4 0 4.3.7 5.9 2.1 1.5 1.4 2.3 3 2.3 5.1 0 .9-.1 1.7-.4 2.4a7.68 7.68 0 0 1-2.1 3c-.4.3-.7.5-.9.7l-.7.4 5 7.6h-6.4l-4.3-6.5h-2.8v6.5h-6.1V7.8zm6.1 5v4.9h4.7c1.2 0 2.5-.8 2.5-2.5 0-1.4-1.4-2.4-2.5-2.4h-4.7z"/>
  <linearGradient id="c" gradientUnits="userSpaceOnUse" x1="316.4" y1="29.12" x2="316.4" y2="7.82">
    <stop offset="0" stop-color="#d1d1d1"/>
    <stop offset=".54" stop-color="#fff"/>
  </linearGradient>
  <path fill="url(#c)" d="M326.4 7.8v21.3h-5.2l-9-11.8v11.8h-5.8V7.8h5l8.9 11.7V7.8h6.1z"/>
  <linearGradient id="d" gradientUnits="userSpaceOnUse" x1="361.46" y1="29.12" x2="361.46" y2="7.82">
    <stop offset="0" stop-color="#d1d1d1"/>
    <stop offset=".54" stop-color="#fff"/>
  </linearGradient>
  <path fill="url(#d)" d="M370.5 7.8v5.4h-6.1v15.9h-6V13.2h-6.1V7.8h18.2z"/>
  <linearGradient id="e" gradientUnits="userSpaceOnUse" x1="219.61" y1="29.12" x2="219.61" y2="7.82">
    <stop offset="0" stop-color="#d1d1d1"/>
    <stop offset=".54" stop-color="#fff"/>
  </linearGradient>
  <path fill="url(#e)" d="M214 16.5v12.6h-5.7V7.8h5.9l5.5 8.4 5.3-8.4h6v21.3h-5.8V16.5l-5.5 8.4-5.7-8.4z"/>
  <linearGradient id="f" gradientUnits="userSpaceOnUse" x1="268.62" y1="29.67" x2="268.62" y2="7.57">
    <stop offset="0" stop-color="#d1d1d1"/>
    <stop offset=".54" stop-color="#fff"/>
  </linearGradient>
  <path fill="url(#f)" d="M276.6 26.4c-2.2 2.2-4.9 3.3-8 3.3-3.1 0-5.8-1.1-8-3.3-2.2-2.2-3.3-4.8-3.3-7.8s1.1-5.6 3.3-7.8c2.2-2.2 4.9-3.3 8-3.3 3.2 0 5.8 1.1 8 3.3 2.2 2.2 3.3 4.8 3.3 7.8s-1.1 5.6-3.3 7.8zm-11.9-3.7c1.1 1.1 2.4 1.7 4 1.7s2.9-.6 4-1.7 1.6-2.5 1.6-4.2a5.65 5.65 0 0 0-5.6-5.9 5.65 5.65 0 0 0-5.6 5.9c0 1.7.5 3.1 1.6 4.2z"/>
  <linearGradient id="g" gradientUnits="userSpaceOnUse" x1="128.83" y1="29.12" x2="128.83" y2="7.82">
    <stop offset="0" stop-color="#d1d1d1"/>
    <stop offset=".54" stop-color="#fff"/>
  </linearGradient>
  <path fill="url(#g)" d="M137.3 24.2v4.9h-16.9V7.8h16.9v4.9h-11.1V16h9.9v4.6h-9.9v3.6h11.1z"/>
  <linearGradient id="h" gradientUnits="userSpaceOnUse" x1="81.63" y1="72.43" x2="81.63" y2="35.83">
    <stop offset="0" stop-color="#d1d1d1"/>
    <stop offset=".54" stop-color="#fff"/>
  </linearGradient>
  <path fill="url(#h)" d="M77.1 61.4c1.8 1.9 3.4 2.5 6.1 2.5 1.7 0 2.8-.3 4.3-1 1.5-.8 2.6-1.5 3.3-2.3l1-1.1 6.3 5.7a12.7 12.7 0 0 1-2.3 2.5c-.9.8-1.8 1.5-2.9 2.2-1 .6-2.3 1.3-4 1.8s-3.6.9-5.4.9c-5.2 0-9.5-1.1-13.2-4.8-3.6-3.7-5.4-8.1-5.4-13.2s1.8-9.5 5.4-13.2c3.6-3.7 8.1-5.5 13.3-5.5a17 17 0 0 1 9.1 2.5c1.1.7 1.9 1.4 2.7 2.2 1.7 1.6 2.6 3 2.6 3L91.5 49c-.1-.1-.9-1.1-1.5-1.6s-1.1-1-1.8-1.4c-.6-.4-2.5-1.6-4.7-1.6-2.8 0-5 1-6.9 2.9-1.8 1.9-2.4 4.2-2.4 7.2.3 2.9 1.1 5 2.9 6.9z"/>
  <linearGradient id="i" gradientUnits="userSpaceOnUse" x1="119.44" y1="72.43" x2="119.44" y2="35.83">
    <stop offset="0" stop-color="#d1d1d1"/>
    <stop offset=".54" stop-color="#fff"/>
  </linearGradient>
  <path fill="url(#i)" d="M132.5 67c-3.6 3.6-7.9 5.4-13.1 5.4-5.1 0-9.5-1.8-13.1-5.4a17.6 17.6 0 0 1-5.4-12.9c0-5 1.8-9.3 5.4-12.9 3.6-3.6 7.9-5.4 13.1-5.4 5.1 0 9.5 1.8 13.1 5.4 3.6 3.6 5.4 7.9 5.4 12.9s-1.8 9.3-5.4 12.9zM113 60.9c1.7 1.8 3.9 2.8 6.5 2.8s4.7-.9 6.5-2.8c1.7-1.8 2.6-4.1 2.6-6.9 0-2.8-.9-5.1-2.6-6.9a8.6 8.6 0 0 0-6.5-2.7c-2.6 0-4.7.9-6.5 2.7a9.68 9.68 0 0 0-2.6 6.9c0 2.7.8 5 2.6 6.9z"/>
  <linearGradient id="j" gradientUnits="userSpaceOnUse" x1="159.94" y1="71.78" x2="159.94" y2="36.48">
    <stop offset="0" stop-color="#d1d1d1"/>
    <stop offset=".54" stop-color="#fff"/>
  </linearGradient>
  <path fill="url(#j)" d="M157 36.5c5.4 0 10.6 1.7 14.2 5.1 3.5 3.4 5.3 7.6 5.3 12.6s-1.8 9.2-5.3 12.6c-3.5 3.4-8.8 5.1-14.2 5.1h-13.6V36.5H157zm-4 8.6v18.1h4c2.5 0 5.2-.9 7-2.6s2.7-3.9 2.7-6.5c0-2.7-.8-4.8-2.5-6.5-1.7-1.7-4.5-2.5-7.1-2.5H153z"/>
  <linearGradient id="k" gradientUnits="userSpaceOnUse" x1="195.52" y1="71.78" x2="195.52" y2="36.48">
    <stop offset="0" stop-color="#d1d1d1"/>
    <stop offset=".54" stop-color="#fff"/>
  </linearGradient>
  <path fill="url(#k)" d="M209.5 63.7v8.1h-27.9V36.5h27.9v8.1h-18.3v5.5h16.4v7.6h-16.4v6h18.3z"/>
  <linearGradient id="l" gradientUnits="userSpaceOnUse" x1="281.75" y1="71.78" x2="281.75" y2="36.48">
    <stop offset="0" stop-color="#d1d1d1"/>
    <stop offset=".54" stop-color="#fff"/>
  </linearGradient>
  <path fill="url(#l)" d="M275.5 65.2l-2.7 6.6h-10.3l14.1-35.3h10.6l14 35.3h-10.3l-2.7-6.6h-12.7zm6.3-18.9l-3.7 11.4h7.3l-3.6-11.4z"/>
  <linearGradient id="m" gradientUnits="userSpaceOnUse" x1="323.33" y1="71.78" x2="323.33" y2="36.48">
    <stop offset="0" stop-color="#d1d1d1"/>
    <stop offset=".54" stop-color="#fff"/>
  </linearGradient>
  <path fill="url(#m)" d="M314 50.9v20.9h-9.5V36.5h9.9l9 14 8.8-14h9.9v35.3h-9.7V50.9l-9.2 13.9-9.2-13.9z"/>
  <linearGradient id="n" gradientUnits="userSpaceOnUse" x1="363.1" y1="71.78" x2="363.1" y2="36.48">
    <stop offset="0" stop-color="#d1d1d1"/>
    <stop offset=".54" stop-color="#fff"/>
  </linearGradient>
  <path fill="url(#n)" d="M364.7 36.5c3.9 0 7 1.2 9.5 3.5 2.4 2.3 3.6 5.3 3.6 8.8 0 3.6-1.2 6.5-3.7 8.9a13.3 13.3 0 0 1-9.4 3.7h-6.6v10.4h-9.7V36.5h16.3zm-6.6 8.3v9h6.1c1.8 0 4.2-1.4 4.2-4.5 0-2.5-2.5-4.5-4.2-4.5h-6.1z"/>
  <linearGradient id="o" gradientUnits="userSpaceOnUse" x1="244.16" y1="72.43" x2="244.16" y2="35.83">
    <stop offset="0" stop-color="#d1d1d1"/>
    <stop offset=".54" stop-color="#fff"/>
  </linearGradient>
  <path fill="url(#o)" d="M239.7 61.4c1.8 1.9 3.4 2.5 6.1 2.5 1.7 0 2.8-.3 4.3-1 1.5-.8 2.6-1.5 3.3-2.3l1-1.1 6.3 5.7c-.1.2-.3.5-.5.8a22.05 22.05 0 0 1-4.6 3.9c-1 .6-2.3 1.3-4 1.8-1.7.5-3.6.9-5.4.9-5.2 0-9.5-1.1-13.2-4.8-3.6-3.7-5.4-8.1-5.4-13.2s1.8-9.5 5.4-13.2c3.6-3.7 8.1-5.5 13.3-5.5a17 17 0 0 1 9.1 2.5c1.1.7 1.9 1.4 2.7 2.2 1.7 1.6 2.6 3 2.6 3l-6.5 5.4c-.1-.1-.9-1.1-1.5-1.6s-1.1-1-1.8-1.4c-.6-.4-2.5-1.6-4.7-1.6-2.8 0-5 1-6.9 2.9-1.8 1.9-2.4 4.2-2.4 7.2.1 2.9.9 5 2.8 6.9z"/>
  <path fill="#BABABA" d="M20 36l31.6-13.2v5.1L24.5 39.7l27.1 11.1v5L20 42.9V36zm400 6.7l-31.6 12.9v-5l27.1-11.1-27.1-11.8v-5.1L420 35.9v6.8z"/>
</svg>
